<svg width="29" height="29" viewBox="0 0 29 29" fill="none" xmlns="http://www.w3.org/2000/svg">
<path d="M27.3483 0.871216C26.0789 2.35057 24.8107 3.83088 23.54 5.30905C21.4673 7.72011 19.393 10.1297 17.3195 12.5401C17.2721 12.5952 17.2267 12.6518 17.1623 12.7295C20.8463 18.0913 24.531 23.454 28.2365 28.8471C25.5023 28.8471 22.8036 28.8471 20.08 28.8471C17.6082 25.2504 15.1241 21.6357 12.625 17.9992C12.0374 18.6812 11.4729 19.3357 10.9091 19.9911C8.41383 22.8918 5.91813 25.7922 3.42591 28.6956C3.32276 28.8158 3.22048 28.8733 3.05722 28.8712C2.34737 28.8621 1.63736 28.8673 0.857422 28.8673C4.44088 24.7016 7.98862 20.5775 11.5455 16.4427C11.4933 16.3619 11.4473 16.2864 11.3973 16.2136C7.95807 11.2073 4.51845 6.2013 1.07982 1.19458C1.00852 1.09076 0.9485 0.979177 0.883218 0.871216C3.59897 0.871216 6.31475 0.871216 9.0305 0.871216C9.0472 0.903126 9.06083 0.937167 9.08109 0.966644C11.3849 4.32161 13.6892 7.67631 15.9946 11.0301C16.022 11.07 16.0654 11.099 16.1075 11.1389C19.0609 7.70648 22.0016 4.28885 24.9423 0.871216C25.7443 0.871216 26.5463 0.871216 27.3483 0.871216ZM24.9297 27.1127C19.215 18.9384 13.5352 10.814 7.8659 2.70463C6.62519 2.70463 5.41134 2.70463 4.15414 2.70463C9.86152 10.8686 15.5457 18.9994 21.2176 27.1127C22.457 27.1127 23.6647 27.1127 24.9297 27.1127Z" fill="white"/>
</svg>
