<svg width="30" height="31" viewBox="0 0 30 31" fill="none" xmlns="http://www.w3.org/2000/svg">
<g clip-path="url(#clip0_1126_56)">
<path d="M10.4982 0.75769C13.4928 0.75769 16.4875 0.75769 19.4821 0.75769C19.6078 0.771633 19.7332 0.7914 19.8593 0.798636C20.6593 0.844405 21.4616 0.864171 22.259 0.936708C23.4859 1.04831 24.6676 1.35646 25.7502 1.95551C28.1531 3.28523 29.4147 5.39009 29.8163 8.05799C29.8916 8.55798 29.9347 9.06286 29.9927 9.56544C29.9927 13.617 29.9927 17.6686 29.9927 21.7202C29.9752 21.8645 29.9577 22.0088 29.9401 22.1532C29.8598 22.8124 29.8261 23.4814 29.6909 24.1292C29.1335 26.7995 27.6621 28.7729 25.1499 29.9115C23.8268 30.5112 22.4126 30.7325 20.978 30.7413C16.9959 30.7659 13.0136 30.7601 9.03151 30.7419C7.98441 30.7372 6.9446 30.5962 5.93415 30.2951C3.48538 29.5654 1.74768 28.0407 0.780409 25.6653C0.241062 24.3408 0.0667507 22.9435 0.0520434 21.5289C0.0183342 18.2803 -0.00725654 15.0315 0.001862 11.7829C0.0056859 10.4152 0.0326297 9.04262 0.280889 7.68855C0.664574 5.59569 1.62396 3.84182 3.34448 2.55057C4.81892 1.44399 6.5258 1.00283 8.33191 0.875937C9.05316 0.825109 9.776 0.7964 10.4982 0.75769ZM14.9968 28.1624C14.9972 28.1463 14.9975 28.1302 14.9979 28.1141C15.9469 28.1141 16.8969 28.1407 17.8448 28.108C19.3977 28.0544 20.9585 28.0431 22.4993 27.8673C24.7926 27.6057 26.4053 26.1198 26.976 23.9231C27.2214 22.9788 27.2763 22.01 27.2845 21.0422C27.3102 18.029 27.3372 15.0156 27.3183 12.0026C27.3107 10.7825 27.2531 9.55467 27.1 8.34532C26.7946 5.93337 25.2841 4.29345 22.9073 3.82117C21.8792 3.61685 20.8114 3.55173 19.76 3.53649C16.9331 3.49566 14.1054 3.50737 11.278 3.51543C9.96796 3.5192 8.65553 3.52614 7.35864 3.75587C5.07783 4.15985 3.55556 5.61223 3.03151 7.86751C2.80167 8.85672 2.76843 9.86482 2.75537 10.8705C2.72383 13.2966 2.69242 15.7234 2.71901 18.1493C2.73742 19.8297 2.78278 21.5157 2.94403 23.1868C3.10234 24.8273 3.87024 26.1849 5.30397 27.0872C6.2896 27.7074 7.39923 27.9537 8.54323 27.9957C10.6936 28.0745 12.8455 28.1093 14.9968 28.1624Z" fill="white"/>
<path d="M7.28911 15.8008C7.27504 11.5485 10.7503 8.07106 15.0151 8.06982C19.2734 8.06859 22.7077 11.4919 22.7391 15.7689C22.7702 20.0158 19.302 23.5033 15.0322 23.5188C10.7792 23.5343 7.30322 20.0695 7.28911 15.8008ZM15.0069 20.7928C17.7793 20.7971 20.0088 18.5797 20.018 15.8091C20.0272 13.0387 17.8098 10.803 15.0409 10.7907C12.2581 10.7783 10.0175 13.0071 10.0154 15.7897C10.0133 18.5594 12.2372 20.7886 15.0069 20.7928Z" fill="white"/>
<path d="M23.0834 5.96643C24.0899 5.98631 24.8655 6.79939 24.8424 7.81055C24.8194 8.81271 24.0026 9.58743 22.9909 9.56643C22.0023 9.5459 21.2191 8.71128 21.2427 7.7033C21.2657 6.72356 22.0888 5.94684 23.0834 5.96643Z" fill="white"/>
</g>
<defs>
<clipPath id="clip0_1126_56">
<rect width="29.9928" height="30" fill="white" transform="translate(0 0.75769)"/>
</clipPath>
</defs>
</svg>
