<svg width="96" height="101" viewBox="0 0 96 101" fill="none" xmlns="http://www.w3.org/2000/svg">
<g clip-path="url(#clip0_723_297)">
<path d="M60.3993 82.0228C60.7789 82.7932 61.1052 83.4534 61.4299 84.1143C62.5501 86.3939 63.685 88.6665 64.7772 90.9595C65.0175 91.4641 65.2831 91.6798 65.8674 91.6665C67.6964 91.6249 69.5274 91.622 71.3564 91.6607C73.686 91.7101 75.5095 93.1958 75.9463 95.3317C76.357 97.3395 75.3523 99.4045 73.509 100.332C72.8275 100.675 72.1054 100.834 71.3389 100.833C55.7524 100.83 40.1656 100.835 24.5792 100.826C21.9539 100.825 19.9495 98.9188 19.8857 96.43C19.818 93.7953 21.7123 91.7624 24.4155 91.6696C26.3085 91.6045 28.2055 91.6461 30.1006 91.6563C30.517 91.6583 30.8132 91.6089 31.0294 91.1606C32.4433 88.2271 33.8921 85.3106 35.3255 82.3865C35.3647 82.3067 35.3579 82.2045 35.3872 82.0226C35.005 82.0226 34.6589 82.0226 34.313 82.0226C25.1311 82.0226 15.9491 82.0244 6.76687 82.0218C2.70581 82.0205 0.378821 79.705 0.378298 75.6536C0.375161 56.7995 0.375161 37.9454 0.378559 19.0913C0.379082 15.8132 2.06295 13.5474 4.9745 12.9116C5.44717 12.8083 5.94572 12.795 6.4325 12.7924C8.68054 12.7806 10.9286 12.7872 13.2796 12.7872C13.2796 10.5768 13.2608 8.43251 13.2843 6.28878C13.3147 3.52075 15.027 1.42094 17.6468 0.919518C18.0596 0.840566 18.4915 0.837167 18.9145 0.837167C38.1281 0.832985 57.3416 0.831939 76.5552 0.835076C80.0254 0.835599 82.2212 3.04887 82.2324 6.54184C82.2389 8.59276 82.2337 10.6434 82.2337 12.7872C84.5811 12.7872 86.8655 12.9001 89.1344 12.7605C92.4522 12.5563 95.5562 14.9594 95.5431 19.1611C95.4843 37.9825 95.5191 56.8039 95.5165 75.6256C95.516 79.6846 93.19 82.0205 89.1525 82.022C79.9705 82.0252 70.7886 82.0231 61.6063 82.0231C61.2547 82.0228 60.9031 82.0228 60.3993 82.0228Z" fill="#6E0605"/>
<path d="M79.2001 13.499C79.3763 13.8488 79.289 14.2127 79.2892 14.5615C79.2944 31.0577 79.2939 47.5537 79.2937 64.05C79.2937 66.4617 78.5588 67.1903 76.1251 67.1903C57.2117 67.1906 38.2982 67.1906 19.3848 67.1903C16.9498 67.1903 16.221 66.4656 16.221 64.044C16.2207 47.5477 16.2207 31.0515 16.2207 14.5555C16.2207 14.2302 16.2207 13.9053 16.2207 13.499C37.2381 13.499 58.2143 13.499 79.2001 13.499Z" fill="#FEE9A6"/>
<path d="M86.8811 73.3812C60.9061 73.3812 34.9811 73.3812 9.00879 73.3812C9.00879 56.063 9.00879 38.7927 9.00879 21.4476C10.3946 21.4476 11.7766 21.4476 13.1906 21.4476C13.3828 21.7859 13.2738 22.1843 13.274 22.562C13.2808 36.5133 13.2779 50.4645 13.2813 64.4157C13.2821 67.194 14.6899 69.2049 17.0993 69.9272C17.7037 70.1084 18.3207 70.1309 18.9408 70.1309C38.1523 70.1327 57.3637 70.1356 76.5755 70.1296C80.0559 70.1285 82.231 67.9223 82.232 64.4108C82.2365 50.4595 82.2339 36.5083 82.2339 22.5571C82.2339 22.2023 82.2339 21.8476 82.2339 21.4337C83.8019 21.4337 85.3151 21.4337 86.8811 21.4337C86.8811 38.7509 86.8811 56.0471 86.8811 73.3812Z" fill="#BEF3BA"/>
<path d="M13.2329 15.734C13.2329 16.6678 13.2329 17.5023 13.2329 18.4315C11.4638 18.4315 9.7407 18.4265 8.01735 18.433C6.49425 18.4385 6.02263 18.9031 6.02237 20.4139C6.02028 38.4168 6.02028 56.4199 6.02289 74.4231C6.02316 75.8852 6.50131 76.3684 7.95356 76.3684C34.6153 76.371 61.277 76.371 87.9387 76.3684C89.3896 76.3681 89.8712 75.8834 89.8715 74.4249C89.8743 56.4217 89.8743 38.4186 89.872 20.4155C89.8717 18.9046 89.398 18.438 87.8773 18.4328C86.024 18.4265 84.1707 18.4312 82.2764 18.4312C82.2764 17.4974 82.2764 16.6629 82.2764 15.7544C84.9302 15.7544 87.5672 15.699 90.2001 15.7798C91.3606 15.8153 92.2936 16.8519 92.4792 18.0121C92.5459 18.4288 92.5582 18.8576 92.5582 19.2811C92.5618 38.0359 92.5618 56.7904 92.5608 75.5451C92.5608 77.4902 91.9566 78.4914 90.5554 78.957C90.1692 79.0854 89.7839 79.0789 89.3949 79.0791C61.753 79.0817 34.111 79.0825 6.46916 79.0791C4.48202 79.0789 3.35944 77.9997 3.32624 76.011C3.29016 73.8552 3.31761 71.6982 3.31761 69.5416C3.31761 52.78 3.31892 36.0184 3.31448 19.2568C3.31421 18.2194 3.40101 17.2244 4.24099 16.477C4.74293 16.0305 5.32226 15.739 6.00538 15.7366C8.38623 15.7291 10.7679 15.734 13.2329 15.734Z" fill="#EFEFEF"/>
<path d="M79.293 10.4246C58.2398 10.4246 37.2838 10.4246 16.2596 10.4246C16.2596 8.86074 16.1796 7.33032 16.2849 5.81272C16.3686 4.60543 17.3267 3.84676 18.5431 3.78036C18.8038 3.76624 19.0657 3.77513 19.3272 3.77513C38.2757 3.77487 57.2241 3.77487 76.1723 3.77513C78.509 3.77513 79.2912 4.55236 79.2928 6.87308C79.2938 8.04037 79.293 9.20765 79.293 10.4246Z" fill="#F4B855"/>
<path d="M61.8298 91.6118C52.518 91.6118 43.353 91.6118 34.0693 91.6118C34.8345 90.05 35.56 88.5646 36.2894 87.0812C37.0225 85.5905 37.783 84.1129 38.4799 82.6058C38.6946 82.1418 38.9563 82.0118 39.4412 82.0131C45.1231 82.0283 50.8048 82.0233 56.4867 82.0218C56.8109 82.0218 57.1126 81.9849 57.3011 82.3723C58.7805 85.4141 60.2762 88.4477 61.8298 91.6118Z" fill="#DFDEE0"/>
<path d="M47.8965 97.8896C40.3176 97.8896 32.739 97.8898 25.1602 97.8885C24.8339 97.8885 24.4972 97.923 24.1832 97.8571C23.4031 97.694 22.899 97.2229 22.8376 96.3965C22.7736 95.5359 23.1803 94.9712 23.9986 94.6928C24.4135 94.5516 24.8391 94.5934 25.2613 94.5934C40.3861 94.5911 55.5109 94.5911 70.636 94.5934C71.0582 94.5934 71.4835 94.5524 71.8984 94.6943C72.7164 94.9741 73.1222 95.5388 73.0571 96.3994C72.9946 97.2268 72.4869 97.6945 71.7081 97.8579C71.3939 97.9238 71.0574 97.8885 70.7309 97.8885C63.1196 97.8901 55.508 97.8896 47.8965 97.8896Z" fill="#EFEFEF"/>
<path d="M27.3775 31.5641C24.7093 27.0233 25.1334 22.9576 28.5492 20.1242C31.6341 17.5656 36.1921 17.6869 39.2454 20.3788C41.7501 22.5874 43.3517 27.1266 40.0866 31.5665C41.7378 32.414 43.1639 33.5283 44.2588 35.0406C45.6007 36.8942 46.304 38.9657 46.3589 41.2449C46.3973 42.8451 46.3856 44.4472 46.3667 46.0482C46.3495 47.492 45.5539 48.291 44.1059 48.2931C37.2109 48.3035 30.3162 48.3022 23.4212 48.2944C22.1201 48.2928 21.2064 47.6384 21.1724 46.4631C21.1024 44.0521 20.8856 41.6177 21.3871 39.2316C22.0691 35.9868 23.9159 33.5531 26.7937 31.904C26.9887 31.7921 27.1827 31.6773 27.3775 31.5641Z" fill="#6E0605"/>
<path d="M33.7287 62.3758C30.3662 62.3758 27.0037 62.3794 23.6414 62.3742C21.9259 62.3716 21.2786 61.7193 21.275 60.0054C21.2711 58.2099 21.2666 56.4144 21.2765 54.6189C21.2846 53.1679 21.9824 52.4435 23.436 52.4412C30.3241 52.4302 37.2123 52.4294 44.1005 52.442C45.5085 52.4446 46.1963 53.1559 46.2081 54.5603C46.2233 56.3556 46.2149 58.1513 46.2113 59.9468C46.2073 61.7507 45.5966 62.3724 43.8163 62.3745C40.4538 62.3787 37.0913 62.3758 33.7287 62.3758Z" fill="#6E0605"/>
<path d="M62.263 23.3471C65.7583 23.3479 69.2536 23.3393 72.7487 23.3537C73.7309 23.3576 74.3784 23.9631 74.3824 24.7973C74.3863 25.6247 73.7327 26.2284 72.762 26.2846C72.5341 26.2976 72.3048 26.2877 72.076 26.2877C66.3596 26.2877 60.6429 26.288 54.9265 26.2877C53.8159 26.2877 52.7043 26.3131 51.5948 26.2778C50.611 26.2464 50.0116 25.6297 50.0348 24.7617C50.0576 23.9142 50.621 23.3971 51.5809 23.3511C51.8416 23.3385 52.1035 23.3464 52.3647 23.3464C55.6645 23.3461 58.9637 23.3464 62.263 23.3471Z" fill="#6E0605"/>
<path d="M62.261 34.7188C58.7983 34.7188 55.3357 34.723 51.8728 34.7162C50.7638 34.7141 50.1792 34.2995 50.0548 33.4708C49.9261 32.6138 50.4401 31.9043 51.3031 31.8039C51.7227 31.755 52.1512 31.778 52.5757 31.778C59.0765 31.7767 65.5772 31.7769 72.0779 31.778C72.4045 31.778 72.7333 31.7654 73.057 31.7989C73.8617 31.8815 74.304 32.3926 74.3615 33.1481C74.4164 33.8684 74.0407 34.4135 73.3197 34.6143C72.982 34.7084 72.6123 34.7141 72.257 34.7146C68.9251 34.7217 65.5931 34.7188 62.261 34.7188Z" fill="#6E0605"/>
<path d="M62.203 40.2086C65.6333 40.2086 69.0635 40.2046 72.4935 40.2107C73.7039 40.2128 74.4079 40.779 74.3833 41.7C74.3598 42.5902 73.6678 43.1465 72.528 43.1473C65.6348 43.1525 58.742 43.1528 51.8488 43.1473C50.6972 43.1463 50.0413 42.6009 50.0314 41.6854C50.0214 40.7513 50.6499 40.2146 51.8143 40.2117C55.2775 40.2031 58.7401 40.2086 62.203 40.2086Z" fill="#6E0605"/>
<path d="M62.263 48.651C65.7583 48.6512 69.2536 48.6442 72.7487 48.6557C73.7319 48.6588 74.3795 49.2554 74.3823 50.094C74.385 50.9257 73.7322 51.5264 72.7623 51.579C72.5667 51.5897 72.3704 51.5811 72.1743 51.5811C65.5104 51.5811 58.8466 51.5811 52.1827 51.5811C52.052 51.5811 51.9213 51.5837 51.7908 51.5805C50.6636 51.5536 50.011 50.9876 50.0348 50.0588C50.0581 49.1532 50.6588 48.6549 51.7772 48.653C55.2723 48.6465 58.7676 48.6507 62.263 48.651Z" fill="#6E0605"/>
<path d="M62.2617 57.0821C65.7571 57.0824 69.2524 57.0871 72.748 57.0782C73.4348 57.0764 73.9464 57.3135 74.2434 57.9582C74.4899 58.4938 74.3869 58.9814 74.0494 59.4269C73.6256 59.9861 73.0091 60.0266 72.3715 60.0258C68.3209 60.0201 64.2701 60.0229 60.2194 60.0229C57.4428 60.0229 54.6661 60.0164 51.8895 60.0271C51.1536 60.03 50.5089 59.8637 50.1627 59.1589C49.6545 58.1239 50.403 57.0913 51.678 57.0863C55.2057 57.0732 58.7337 57.0821 62.2617 57.0821Z" fill="#6E0605"/>
<path d="M61.8581 8.61472C58.1711 8.61472 54.4842 8.61394 50.7972 8.61577C50.4048 8.61603 50.0079 8.63485 49.6401 8.4746C49.0025 8.1967 48.6739 7.69815 48.7397 7.00379C48.8051 6.31597 49.1986 5.86003 49.8861 5.72461C50.2022 5.66239 50.5355 5.67494 50.861 5.67468C58.2349 5.67232 65.6088 5.67259 72.9824 5.67415C73.2758 5.67415 73.5722 5.66945 73.8614 5.70866C74.6161 5.81114 75.0302 6.29427 75.0877 7.01712C75.1455 7.74207 74.8023 8.29473 74.0781 8.49734C73.7095 8.60061 73.3061 8.60923 72.9184 8.61002C69.2317 8.61786 65.5448 8.61472 61.8581 8.61472Z" fill="#6E0605"/>
<path d="M22.4556 5.70213C22.8797 5.70213 23.309 5.65925 23.7265 5.71128C24.5215 5.81062 24.9557 6.33165 24.9777 7.09921C24.9999 7.87592 24.5638 8.41342 23.7895 8.54858C22.9524 8.69498 22.0936 8.67564 21.2544 8.56192C20.4262 8.44976 19.9655 7.88298 20.0042 7.06706C20.0426 6.25819 20.5242 5.74579 21.3788 5.69167C21.7364 5.66919 22.0964 5.68801 22.4554 5.68801C22.4556 5.69298 22.4556 5.69742 22.4556 5.70213Z" fill="#6E0605"/>
<path d="M29.5016 5.70005C29.8927 5.69901 30.2877 5.66398 30.6741 5.70633C31.4221 5.78842 31.8579 6.2386 31.9235 6.98159C31.9925 7.76117 31.65 8.35043 30.8686 8.51487C29.9411 8.71016 28.9816 8.71147 28.0541 8.51566C27.2794 8.35226 26.9087 7.76875 26.9817 6.99152C27.0499 6.26474 27.4841 5.79312 28.2313 5.70973C28.6501 5.66293 29.0781 5.70136 29.5016 5.70005Z" fill="#6E0605"/>
<path d="M36.4462 5.69611C36.8373 5.69611 37.2321 5.66239 37.619 5.70317C38.4112 5.7863 38.8626 6.26891 38.9162 7.04588C38.967 7.78023 38.6064 8.34309 37.8802 8.50387C36.9215 8.71589 35.9302 8.71982 34.9718 8.49995C34.2379 8.33159 33.9153 7.75697 33.9637 7.02418C34.0126 6.28407 34.427 5.80722 35.1762 5.71389C35.5935 5.66186 36.0222 5.70448 36.446 5.70448C36.4462 5.7016 36.4462 5.69899 36.4462 5.69611Z" fill="#6E0605"/>
<path d="M43.4088 45.3075C36.9204 45.3075 30.5378 45.3075 24.0625 45.3075C24.1323 43.2511 23.8345 41.2308 24.4081 39.2512C24.9871 37.2518 26.1861 35.7125 27.9585 34.6362C29.0623 33.9659 30.1394 33.5683 31.5315 34.1092C33.1783 34.7491 34.9414 34.5711 36.6069 33.939C37.1013 33.7515 37.5272 33.7419 38.0155 33.9262C41.228 35.1395 43.0311 37.4746 43.3837 40.8554C43.5346 42.3019 43.4088 43.7774 43.4088 45.3075Z" fill="#FED44F"/>
<path d="M38.9731 26.4001C38.9598 29.2322 36.6399 31.5144 33.7639 31.5249C30.8599 31.5354 28.5104 29.2073 28.5235 26.3326C28.5366 23.4653 30.8978 21.1913 33.8316 21.2206C36.6937 21.2494 38.9867 23.5591 38.9731 26.4001Z" fill="#FDDEC4"/>
<path d="M43.2359 55.4442C43.2359 56.7694 43.2359 58.036 43.2359 59.3691C36.926 59.3691 30.6388 59.3691 24.2832 59.3691C24.2832 58.0907 24.2832 56.8018 24.2832 55.4442C30.5528 55.4442 36.8389 55.4442 43.2359 55.4442Z" fill="#F4B855"/>
</g>
<defs>
<clipPath id="clip0_723_297">
<rect width="95.1672" height="100" fill="white" transform="translate(0.375977 0.833252)"/>
</clipPath>
</defs>
</svg>
