<svg width="101" height="101" viewBox="0 0 101 101" fill="none" xmlns="http://www.w3.org/2000/svg">
<g clip-path="url(#clip0_723_268)">
<path d="M60.9376 98.866C60.8495 99.1101 60.775 99.3603 60.6708 99.5974C60.2983 100.445 59.3641 100.961 58.541 100.784C57.6039 100.583 56.9492 99.8097 56.9966 98.8226C57.0671 97.3572 57.4999 95.949 57.8089 94.5249C58.7722 90.0871 59.5091 85.5975 60.7165 81.2161C62.3368 75.3363 65.5944 70.4935 70.3305 66.6784C73.114 64.4361 76.1517 62.5365 79.1563 60.6088C82.1412 58.6938 85.0515 59.0963 87.877 61.3814C87.877 60.9415 87.877 60.6002 87.877 60.2587C87.877 52.9092 87.8672 45.5597 87.8816 38.2103C87.8877 35.073 89.6174 32.6171 92.3848 31.7249C96.051 30.5427 99.895 32.7465 100.78 36.5391C100.816 36.6905 100.778 36.8694 100.955 36.9612C100.955 47.5065 100.955 58.0518 100.955 68.5971C100.795 68.9877 100.795 69.3782 100.955 69.7688C100.955 69.9641 100.955 70.1594 100.955 70.3546C100.571 71.2473 100.57 72.2279 100.308 73.1516C99.6821 75.36 98.7259 77.4071 97.4002 79.2766C92.5684 86.0906 87.7334 92.9026 82.8882 99.7072C81.7392 101.321 80.1452 101.181 79.2388 99.4179C78.8451 98.4078 79.2794 97.6121 79.8469 96.806C84.4361 90.2884 89.067 83.8001 93.6823 77.3011C95.8819 74.2037 96.8214 70.8096 96.8012 67.039C96.7506 57.6676 96.7848 48.2959 96.7838 38.9243C96.7838 38.5015 96.8102 38.0765 96.7487 37.6566C96.5854 36.5386 95.6722 35.695 94.5698 35.6315C93.3993 35.5642 92.4944 36.2184 92.1681 37.3625C92.0228 37.8719 92.0414 38.3933 92.0414 38.9135C92.0404 46.3653 91.9835 53.8175 92.0629 61.2683C92.109 65.5975 90.5648 69.2052 87.6004 72.2552C84.7671 75.1706 82.0666 78.2109 79.2047 81.0986C78.7677 81.5395 78.3488 82.0033 77.6885 82.0978C76.7714 82.2286 75.9976 81.9462 75.4613 81.1907C74.9397 80.4557 75.0071 79.6521 75.3927 78.8778C75.6569 78.3471 76.1097 77.9585 76.5088 77.5296C79.2769 74.5542 82.1217 71.6501 84.8281 68.6171C85.8475 67.4749 85.9976 65.9879 85.2365 64.8464C84.4527 63.6713 82.8897 63.1819 81.7209 63.9603C77.6673 66.6596 73.3347 69.0011 70.0154 72.6805C66.9318 76.0987 65.0627 80.1281 64.139 84.6194C63.2412 88.9854 62.3107 93.3446 61.4046 97.709C61.3182 98.1239 61.2537 98.5448 60.9376 98.866Z" fill="#6E0605"/>
<path d="M51.3531 0.833252C52.5026 1.27386 52.9867 2.11724 52.9227 3.33386C52.8834 4.07862 52.9391 4.82802 52.9083 5.57376C52.8573 6.81307 52.0027 7.68526 50.9135 7.65182C49.8531 7.61935 49.0654 6.77597 49.0168 5.57425C48.9865 4.82875 49.0414 4.07911 49.0026 3.33434C48.9389 2.11773 49.4198 1.2724 50.572 0.833252C50.8324 0.833252 51.0927 0.833252 51.3531 0.833252Z" fill="#6E0605"/>
<path d="M100.955 69.7683C100.625 69.3777 100.68 68.9872 100.955 68.5966C100.955 68.9872 100.955 69.3777 100.955 69.7683Z" fill="#252525"/>
<path d="M45.7572 60.5722C45.4404 61.9528 44.876 62.4732 43.4768 62.483C39.7677 62.5086 36.058 62.5145 32.3491 62.4803C30.8478 62.4664 30.1131 61.6699 30.0997 60.1418C30.0782 57.7344 30.0941 55.3266 30.0941 52.9156C29.8487 52.6722 29.5394 52.7886 29.2626 52.7874C26.7247 52.7777 24.1867 52.7869 21.6488 52.7799C19.9479 52.7752 19.2077 52.0573 19.1948 50.3539C19.1819 48.6655 19.0486 46.9582 19.4335 45.2998C20.3399 41.3948 22.8712 39.0951 26.7059 38.146C27.6789 37.9051 28.6565 37.6827 29.599 37.4594C29.8236 37.0114 29.6559 36.7569 29.339 36.5005C26.9102 34.5357 25.8786 31.9492 25.9792 28.8669C26.0322 27.2431 25.915 25.6201 26.1095 23.9941C26.782 18.3721 32.8681 14.7723 38.243 17.1619C38.9924 17.4951 39.6583 17.9486 40.375 18.4568C42.5458 14.0622 45.9816 11.4259 50.9459 11.4225C55.9056 11.4191 59.3968 13.967 61.5649 18.4502C62.4874 17.7907 63.4065 17.1992 64.4578 16.8582C69.8738 15.1016 75.3693 18.7949 75.856 24.2226C76.0621 26.5196 76.117 28.8371 75.7948 31.1324C75.4974 33.2488 74.4268 34.959 72.8113 36.3375C72.4969 36.6058 72.0688 36.8081 72.3202 37.4462C73.2607 37.6705 74.2611 37.909 75.2616 38.1475C79.8398 39.2389 82.6158 42.6371 82.7559 47.3476C82.7869 48.3879 82.7808 49.4303 82.7566 50.4709C82.7202 52.0402 81.9635 52.7747 80.379 52.7816C77.8738 52.7923 75.3683 52.7845 72.8628 52.7845C72.5433 52.7845 72.224 52.7845 71.8308 52.7845C71.8308 54.9929 71.8308 57.1288 71.8308 59.2645C71.8308 59.5574 71.8376 59.8503 71.8295 60.143C71.7873 61.6726 71.0779 62.4662 69.5735 62.4798C65.7994 62.5135 62.0248 62.5081 58.2505 62.4825C56.8547 62.473 56.2752 61.9389 55.9715 60.5719C55.7753 59.5484 56.3545 58.6938 57.4193 58.4423C57.7706 58.3593 58.1304 58.3715 58.488 58.3664C59.8662 58.3464 59.866 58.3462 59.8699 56.924C59.8716 56.2732 59.8535 55.6222 59.8777 54.9719C59.9348 53.4453 60.8658 52.3732 62.1095 52.3864C63.3533 52.3993 64.2555 53.4665 64.3087 55.008C64.3355 55.7884 64.3419 56.5708 64.3101 57.3502C64.2789 58.1172 64.618 58.3828 65.3593 58.373C68.041 58.3376 67.6517 58.6091 67.679 56.1046C67.7 54.1854 67.752 52.2653 66.9775 50.4372C66.1153 48.4026 64.6543 47.0065 62.5926 46.253C60.8775 45.6261 59.0809 45.2907 57.3124 44.8555C56.6231 44.6858 56.3062 45.0288 56.0641 45.6164C55.2209 47.6615 54.2611 49.6563 53.407 51.6973C53.294 51.9675 53.1844 52.2389 53.045 52.4972C52.5717 53.375 51.8703 53.8639 50.839 53.8153C49.844 53.7685 49.225 53.2229 48.833 52.3524C47.8443 50.1574 46.9053 47.9407 45.9125 45.7475C45.4287 44.6785 45.3913 44.6487 44.2116 44.9356C43.1051 45.2043 42 45.4772 40.8883 45.726C36.9102 46.6162 34.5275 49.3958 34.2665 53.4787C34.1816 54.8091 34.2573 56.1461 34.2421 57.4798C34.2353 58.0899 34.4838 58.3696 35.1102 58.3672C38.0311 58.3557 37.5658 58.6135 37.6068 56.077C37.6132 55.6866 37.5971 55.2958 37.6176 54.9058C37.6957 53.4345 38.6057 52.3954 39.8192 52.3859C41.0326 52.3763 41.9705 53.4189 42.0425 54.8787C42.0762 55.5609 42.052 56.2449 42.0539 56.9282C42.0581 58.3325 42.0576 58.333 43.4358 58.3676C43.7612 58.3757 44.0876 58.3757 44.4042 58.4653C45.4113 58.7506 45.9467 59.586 45.7572 60.5722Z" fill="#6E0605"/>
<path d="M12.7183 87.3611C11.9821 86.4921 11.3581 85.5425 10.7266 84.5981C10.7205 84.5661 10.6978 84.5241 10.7103 84.5036C11.643 82.9838 10.8377 81.8307 9.96722 80.6319C8.38249 78.4496 6.71966 76.3105 5.68441 73.7806C4.98456 72.0702 4.63354 70.2716 4.62622 68.4486C4.58594 58.3945 4.6001 48.3398 4.61255 38.2854C4.61523 36.0382 6.28564 34.671 8.30584 35.2097C9.52173 35.5339 10.1217 36.3973 10.3534 37.5709C10.4483 38.0523 10.4159 38.5439 10.4159 39.0316C10.4171 46.4504 10.4664 53.8698 10.3971 61.2878C10.3583 65.4376 11.818 68.9156 14.6694 71.8427C17.4834 74.7314 20.1542 77.7554 23.0024 80.6111C23.1862 80.7954 23.3532 80.9966 23.5567 81.1601C24.2422 81.7103 25.0702 81.7289 25.7034 81.2109C26.2902 80.7307 26.4364 79.9291 26.0722 79.1719C25.9441 78.9056 25.7678 78.6698 25.563 78.4598C23.2709 76.1074 21.104 73.6363 18.7994 71.2964C17.9985 70.4832 17.2467 69.6299 16.5148 68.7596C15.3456 67.3695 15.3868 65.4205 16.5712 64.1168C17.657 62.9219 19.416 62.749 20.919 63.7457C23.2235 65.2743 25.542 66.7824 27.8073 68.3703C33.649 72.4649 37.065 78.0859 38.4293 85.0453C39.2429 89.1953 40.1563 93.326 41.0107 97.4685C41.1042 97.9218 41.3659 98.4083 40.987 98.8662C35.2708 98.866 29.5546 98.8714 23.8387 98.8565C23.329 98.8552 22.883 98.8548 22.6836 99.4245C22.2615 97.6958 21.0972 96.3935 20.1642 94.9491C19.3062 93.6207 18.3407 92.708 16.6278 93.2096C16.3288 92.2078 15.4852 91.5475 15.0216 90.6487C14.9262 90.3221 15.1742 90.1102 15.2899 89.8559C15.8994 88.5155 15.1254 87.3606 13.6522 87.4068C13.341 87.4168 13.0188 87.581 12.7183 87.3611Z" fill="#E2F0FE"/>
<path d="M60.9375 98.866C61.5443 95.8772 62.139 92.8857 62.7619 89.9003C63.226 87.6758 63.6878 85.4498 64.2185 83.2406C65.7544 76.8451 69.3791 71.9025 74.7838 68.2238C76.8524 66.8161 78.9314 65.424 81.0119 64.034C82.5622 62.9983 84.1936 63.1294 85.2281 64.3548C86.3341 65.6649 86.3026 67.4737 85.0789 68.7892C82.1541 71.9337 79.2014 75.0526 76.2616 78.1833C75.8164 78.6576 75.3726 79.1267 75.334 79.8405C75.2889 80.6739 75.6062 81.3047 76.3412 81.6857C77.0249 82.0404 77.7177 82.0365 78.3519 81.5478C78.6077 81.3508 78.8501 81.1308 79.0718 80.8958C81.908 77.8908 84.7177 74.8608 87.5778 71.8788C90.4439 68.8907 91.8352 65.38 91.8006 61.221C91.7381 53.7055 91.7815 46.189 91.7867 38.6731C91.7869 38.2527 91.7964 37.8228 91.8804 37.4137C92.1475 36.1105 93.2532 35.2578 94.5421 35.3183C95.873 35.3811 96.9092 36.3807 97.0327 37.7379C97.062 38.0608 97.0486 38.3882 97.0486 38.7133C97.0493 48.3118 97.03 57.9102 97.0588 67.5084C97.0698 71.2104 96.0141 74.5229 93.8603 77.5325C89.1882 84.0613 84.56 90.6214 79.9027 97.1612C79.413 97.8486 79.0578 98.5462 79.2387 99.4169C79.0283 98.8638 78.5897 98.854 78.0802 98.8555C72.366 98.8714 66.6517 98.8657 60.9375 98.866Z" fill="#E2F0FE"/>
<path d="M40.9867 98.866C40.3796 95.8762 39.7847 92.884 39.1615 89.8976C38.6973 87.6726 38.2361 85.4457 37.7047 83.236C36.1659 76.8398 32.5407 71.8957 27.1321 68.2185C25.0623 66.8115 22.984 65.4167 20.9025 64.0267C19.3569 62.9946 17.7241 63.134 16.6869 64.3663C15.5933 65.6654 15.637 67.4928 16.8577 68.8038C19.785 71.9479 22.738 75.068 25.678 78.2004C26.0998 78.6498 26.5233 79.0933 26.5824 79.7666C26.6551 80.5965 26.371 81.2451 25.6484 81.6513C24.9417 82.0485 24.2199 82.0506 23.5545 81.5327C23.2996 81.3342 23.0582 81.1133 22.8363 80.8785C20.0216 77.8965 17.2371 74.8855 14.3933 71.9313C11.4957 68.9215 10.0858 65.3881 10.1227 61.1902C10.1886 53.7053 10.1417 46.2191 10.1402 38.7336C10.1402 38.2791 10.1563 37.826 10.0467 37.3747C9.73257 36.0809 8.64021 35.2432 7.34328 35.3235C6.04538 35.4038 5.03747 36.367 4.89711 37.6815C4.86269 38.0037 4.87612 38.3316 4.87612 38.657C4.87514 48.2905 4.89247 57.9244 4.8666 67.5579C4.85683 71.2268 5.88866 74.5293 8.04215 77.4937C8.97854 78.7826 9.89466 80.0861 10.8108 81.3896C11.7582 82.7373 11.7374 83.3339 10.7266 84.5981C9.2263 85.1903 8.57113 85.0268 7.66232 83.6874C5.95189 81.1658 3.93583 78.8453 2.66966 76.0298C1.60244 73.6561 0.992664 71.177 0.986317 68.5812C0.961174 58.4306 0.957513 48.2798 0.978506 38.1292C0.985341 34.8929 2.91816 32.4111 5.94212 31.5875C8.59847 30.8639 11.597 32.1015 13.0924 34.547C13.8277 35.7492 14.0554 37.0718 14.0532 38.4656C14.0415 45.7206 14.0476 52.9759 14.0476 60.2311C14.0476 60.5763 14.0476 60.9217 14.0476 61.449C15.0616 60.5109 16.0869 59.9189 17.2598 59.6297C19.2268 59.1444 21.0788 59.473 22.7548 60.5868C25.3784 62.3304 28.0214 64.0524 30.5644 65.9093C36.5411 70.2729 40.2066 76.1658 41.7752 83.3703C42.8316 88.2228 43.8325 93.0873 44.8499 97.9484C44.9158 98.2638 44.9392 98.5946 44.9334 98.9173C44.9165 99.8476 44.2894 100.589 43.3848 100.784C42.5944 100.954 41.6736 100.478 41.2972 99.6852C41.1725 99.4219 41.089 99.1394 40.9867 98.866Z" fill="#6E0605"/>
<path d="M45.7572 60.5722C45.4848 59.1166 44.916 58.621 43.4638 58.5891C42.9481 58.5778 42.4318 58.5874 41.7839 58.5874C41.7839 57.8636 41.7847 57.194 41.7837 56.5244C41.7829 55.8736 41.812 55.2209 41.7717 54.5726C41.7007 53.4302 40.9005 52.6219 39.8697 52.5973C38.8076 52.5716 37.9363 53.406 37.8934 54.5933C37.8468 55.8871 37.8829 57.1835 37.8829 58.5327C36.5847 58.5327 35.3637 58.5327 33.9821 58.5327C34.1583 55.6976 33.5342 52.8236 34.7847 50.0972C35.6652 48.1778 37.0998 46.7795 39.0495 46.0238C41.1378 45.2143 43.375 44.9217 45.5849 44.3212C46.6711 46.7837 47.7291 49.182 48.7863 51.5806C48.891 51.8181 48.9891 52.0583 49.0939 52.2958C49.4512 53.107 50.0322 53.6176 50.9559 53.6215C51.8771 53.6257 52.472 53.1328 52.8323 52.3185C53.2524 51.3689 53.6681 50.4174 54.0865 49.4671C54.8298 47.7796 55.5739 46.0924 56.3411 44.3512C58.5536 44.9036 60.8021 45.1863 62.8672 46.0358C65.6837 47.1943 67.3753 49.3685 67.7954 52.4298C68.0703 54.4327 67.8782 56.4473 67.9199 58.5219C66.6352 58.5219 65.4149 58.5219 64.046 58.5219C64.046 57.453 64.047 56.3631 64.0457 55.2731C64.044 53.5383 63.3178 52.5643 62.0521 52.5968C60.8177 52.6285 60.1425 53.5671 60.1406 55.2575C60.1393 56.3272 60.1403 57.3969 60.1403 58.5056C59.4849 58.6642 58.8693 58.5646 58.2624 58.5842C56.8139 58.6308 56.2332 59.1273 55.9713 60.5722C54.9597 60.5707 53.9481 60.5692 52.9366 60.5675C52.6605 60.4079 52.6024 60.1035 52.4679 59.8521C52.1342 59.2284 51.6352 58.8737 50.9134 58.8918C50.2333 58.9088 49.7691 59.2655 49.4559 59.8523C49.3216 60.1037 49.2635 60.4084 48.9869 60.5675C47.9104 60.5695 46.8339 60.5709 45.7572 60.5722Z" fill="#78D1F9"/>
<path d="M16.6274 93.2096C18.0564 92.5017 18.8182 92.6899 19.7693 94.0081C20.5467 95.0858 21.2947 96.185 22.086 97.2522C22.5735 97.9096 22.845 98.6009 22.6831 99.4243C21.7819 101.169 20.1994 101.307 19.0513 99.7287C18.1972 98.5543 17.3575 97.3694 16.528 96.1777C15.7283 95.0289 15.7615 94.3288 16.6274 93.2096Z" fill="#6E0605"/>
<path d="M44.3204 8.6812C44.2594 9.35371 43.9389 9.93077 43.2832 10.2772C42.6332 10.6204 41.9443 10.635 41.3604 10.1878C40.355 9.41815 39.4354 8.53718 38.6997 7.50364C38.2012 6.80355 38.3697 5.78246 38.9648 5.17855C39.5282 4.60686 40.5322 4.37862 41.1971 4.83436C42.35 5.62429 43.3279 6.62267 44.1239 7.7807C44.2892 8.02188 44.3265 8.32579 44.3204 8.6812Z" fill="#6E0605"/>
<path d="M57.584 8.60039C57.5969 7.35082 60.3419 4.63516 61.5763 4.66836C62.3118 4.68813 62.8806 5.03183 63.2287 5.68261C63.5763 6.33242 63.599 7.01347 63.145 7.60933C62.398 8.58941 61.5285 9.46574 60.5491 10.2125C59.9289 10.6855 59.2232 10.6753 58.546 10.2779C57.9106 9.90464 57.5806 9.34516 57.584 8.60039Z" fill="#6E0605"/>
<path d="M12.7184 87.3611C13.4941 87.0787 14.2645 86.933 14.9949 87.4815C16.0277 88.257 16.0357 89.3823 15.0215 90.649C13.5 91.2419 12.4542 90.8813 12.0102 89.6137C11.6846 88.6847 12.1313 88.0017 12.7184 87.3611Z" fill="#6E0605"/>
<path d="M48.9873 60.568C49.3073 59.1436 50.0003 58.5207 51.153 58.621C52.1353 58.7064 52.6286 59.2449 52.9369 60.568C52.737 62.025 51.5431 62.6929 50.3941 62.3539C49.5094 62.0929 49.1499 61.4048 48.9873 60.568Z" fill="#6E0605"/>
<path d="M43.5457 26.969C47.5717 27.2668 51.3172 26.6761 54.4298 23.802C55.6791 24.5338 56.9043 25.2569 58.136 25.9684C58.3564 26.0958 58.4726 26.2562 58.4739 26.5086C58.4834 28.7483 58.6162 30.9872 57.3424 33.0291C55.6818 35.6909 52.2907 37.1247 49.2274 36.3526C46.0763 35.5586 43.7473 32.8424 43.5537 29.691C43.5017 28.8491 43.5457 28.0013 43.5457 26.969Z" fill="#FECCAB"/>
<path d="M78.8556 48.8429C76.148 48.8429 73.5552 48.8429 70.8888 48.8429C69.1547 44.9651 66.1244 42.5934 61.9775 41.5095C62.6125 41.356 63.2466 41.1998 63.8823 41.0497C65.645 40.6335 66.007 40.2256 66.1991 38.3857C66.8604 38.3857 67.528 38.3857 68.2132 38.3857C68.4019 38.5137 68.313 38.7275 68.3289 38.9089C68.4275 40.0374 68.8571 40.5944 69.99 40.8937C71.3377 41.2496 72.6998 41.551 74.0558 41.8755C77.4245 42.6815 78.8669 44.5118 78.8556 47.9668C78.8549 48.2229 78.8556 48.4792 78.8556 48.8429Z" fill="#7C9AFE"/>
<path d="M23.1856 48.8788C22.7438 45.1543 24.2279 42.8267 27.4941 41.9965C28.5007 41.7407 29.5123 41.5039 30.5214 41.2581C30.7738 41.1966 31.0253 41.1314 31.2782 41.0728C33.179 40.6332 33.4746 40.3093 33.6714 38.3945C34.3321 38.3945 35.001 38.3945 35.6755 38.3945C36.1893 40.4846 36.1893 40.4846 39.9702 41.5266C39.6258 41.8816 39.1456 41.8703 38.7358 41.9956C35.3857 43.0198 32.9259 45.0837 31.3587 48.2148C31.1881 48.5556 31.0841 48.8988 30.5505 48.8922C28.1121 48.8615 25.6733 48.8788 23.1856 48.8788Z" fill="#7C9AFE"/>
<path d="M58.2898 21.5209C57.2518 20.9162 56.2627 20.313 55.2485 19.756C54.223 19.1928 53.4411 19.2346 52.691 20.0662C50.5656 22.4228 47.9107 23.3119 44.8154 23.1002C44.4019 23.0719 43.9769 23.1861 43.5771 23.0209C43.3284 19.0949 46.2852 15.7397 50.3991 15.3345C54.5137 14.9291 57.9612 18.2069 58.2898 21.5209Z" fill="#BDBDBD"/>
<path d="M39.5545 27.3454C39.5726 28.3487 39.6207 29.2204 39.5081 30.095C39.1705 32.7174 37.2028 34.4894 34.6483 34.4547C32.1355 34.4205 30.1528 32.5341 29.9131 29.9361C29.8807 29.5846 29.9087 29.2277 29.9087 28.7383C31.5227 28.7131 33.1375 28.7697 34.7391 28.5793C36.3533 28.387 37.9053 27.9588 39.5545 27.3454Z" fill="#FECCAB"/>
<path d="M62.4599 27.3354C65.5874 28.667 68.7564 28.8051 71.9361 28.7278C72.4042 31.4866 70.5876 34.061 67.9821 34.412C65.1492 34.7935 62.7099 32.8875 62.4463 30.084C62.3645 29.2128 62.3733 28.3421 62.4599 27.3354Z" fill="#FECCAB"/>
<path d="M71.9786 24.7928C68.8184 24.9295 65.7198 24.7803 62.8574 23.2076C63.7618 21.1083 65.8531 19.9932 68.0971 20.3791C70.202 20.7407 71.8048 22.5461 71.9786 24.7928Z" fill="#F4B855"/>
<path d="M29.9863 24.796C30.1264 22.5231 31.8017 20.6687 33.9547 20.368C36.232 20.0496 38.3232 21.2077 39.0665 23.222C36.2171 24.7792 33.1301 24.9256 29.9863 24.796Z" fill="#F4B855"/>
<path d="M50.9901 46.6321C50.1934 44.5318 48.6638 42.7279 48.6289 40.2429C50.2366 40.5446 51.7115 40.5358 53.2901 40.2729C53.3335 42.7313 51.7112 44.4959 50.9901 46.6321Z" fill="#FDB386"/>
<path d="M41.4579 35.314C42.2732 36.5657 43.296 37.4992 44.2764 38.5359C42.8537 38.1924 41.4218 37.8815 40.0131 37.4875C39.5332 37.3532 39.6279 36.9392 39.9337 36.6504C40.4005 36.2098 40.8977 35.8017 41.4579 35.314Z" fill="#FAFAFA"/>
<path d="M60.5291 35.3423C61.08 35.8232 61.5509 36.2203 62.0047 36.6356C62.3189 36.9229 62.4455 37.3371 61.9622 37.4736C60.4891 37.8893 58.9895 38.212 57.4736 38.4995C58.6949 37.6408 59.6381 36.5484 60.5291 35.3423Z" fill="#FBFBFB"/>
</g>
<defs>
<clipPath id="clip0_723_268">
<rect width="99.99" height="100" fill="white" transform="translate(0.964844 0.833252)"/>
</clipPath>
</defs>
</svg>
