<svg width="102" height="101" viewBox="0 0 102 101" fill="none" xmlns="http://www.w3.org/2000/svg">
<g clip-path="url(#clip0_723_158)">
<path d="M89.8635 82.539C95.1616 77.2131 93.4898 71.2185 90.4964 68.1296C87.1727 64.7064 81.5085 64.3044 77.6554 67.2977C75.7328 68.7904 74.479 70.7488 74.0411 73.1411C73.3644 76.8708 74.6382 79.9875 77.4285 82.5788C75.6532 83.2873 74.1446 84.1192 72.7634 85.1541C71.41 86.1692 70.2796 87.435 69.0655 88.9077C69.0576 81.4881 65.6543 74.8089 57.4027 71.1548C58.8039 69.8731 59.8229 68.3565 60.4757 66.6409C65.8493 67.8072 69.4158 63.9302 69.0018 59.3845C68.9302 58.5725 68.9939 57.7485 68.9939 56.5743C70.6935 58.2859 72.1464 59.7428 73.5953 61.2076C74.475 62.0912 75.4104 62.8873 76.6205 63.2933C79.4307 64.2367 82.42 63.2336 84.0998 60.7777C85.7398 58.3854 85.5208 55.1891 83.5187 52.7968C79.4028 47.8849 75.2671 42.9889 71.1473 38.081C69.3442 35.9315 67.2624 34.1045 64.9059 32.5839C60.5951 29.8096 56.2325 27.1148 52.0012 24.2249C47.9093 21.4306 43.6223 19.3568 38.5551 19.1777C37.0147 19.122 35.4384 19.0026 33.8741 18.5528C34.3319 17.7169 35.2275 17.3865 35.4066 16.873C30.8012 12.2278 26.3391 7.72585 21.9765 3.32742C14.8355 10.4604 7.64672 17.6372 0.48584 24.7902C4.93602 29.2324 9.426 33.7224 13.9359 38.2323C14.4175 38.1646 14.521 37.4998 15.0305 37.4123C15.1101 37.468 15.2096 37.5038 15.2415 37.5675C15.6475 38.3556 16.0535 39.1398 16.4356 39.9319C18.5731 44.3383 21.4391 48.1715 25.3917 51.1011C30.3991 54.807 35.4424 58.465 40.4936 62.1111C41.1544 62.5848 41.5445 63.0266 41.4967 63.9183C41.4251 65.2517 41.8032 66.5295 42.3764 67.7515C43.0013 69.073 43.9328 70.1597 44.9637 71.1906C37.3093 74.6098 33.4124 80.4253 33.285 88.9674C31.0082 85.9343 28.2935 83.9122 25.0295 82.6066C29.412 77.229 29.5792 71.9788 25.543 68.0023C21.9884 64.5034 16.165 64.3522 12.3954 67.6719C10.453 69.3835 9.33445 71.529 9.09164 74.1123C8.7732 77.4877 10.1266 80.2024 12.6024 82.5788C8.80106 84.0953 5.8356 86.4438 3.71799 89.7834C1.57251 93.1708 0.688844 96.8687 1.03117 100.833H36.541C36.7918 96.813 35.9081 93.1509 33.7945 89.7078H68.556C66.4424 93.2146 65.511 96.8607 65.8055 100.805H101.431C101.566 92.1001 97.6732 86.0776 89.8635 82.539ZM56.0414 55.213C54.895 54.6557 53.8959 54.2059 52.7973 54.0825C52.3634 54.0308 52.248 53.7243 52.0967 53.3939C51.5713 52.2475 50.7474 51.3439 49.8119 50.512C46.3848 47.455 42.9814 44.3741 39.5702 41.2972C39.4547 41.1937 39.2318 41.142 39.3154 40.8395C40.4339 40.6006 41.441 41.1659 42.468 41.4286C45.2901 42.1411 48.0884 42.9571 50.8867 43.7532C54.079 44.6647 55.922 47.0012 56.0334 50.3249C56.0852 51.8972 56.0414 53.4735 56.0414 55.213Z" fill="#6E0605"/>
<path d="M86.7763 17.156C85.3935 15.7497 84.0091 14.3422 82.6514 12.9618C83.3328 12.2644 84.0306 11.5499 84.7921 10.7701C85.4074 11.3469 86.073 11.9702 86.7437 12.5992C90.6223 8.66723 94.4782 4.758 98.3496 0.833252C99.4673 1.60905 100.139 2.39519 100.78 3.13278C96.0923 7.82695 91.4566 12.469 86.7763 17.156Z" fill="#6E0605"/>
<path d="M86.7677 21.4999C89.3988 21.4589 91.6967 23.7114 91.7126 26.3481C91.7285 28.931 89.5532 31.1665 86.9504 31.2417C84.3181 31.3177 82.0066 29.1121 81.9441 26.4647C81.8824 23.8392 84.1147 21.5413 86.7677 21.4999Z" fill="#6E0605"/>
<path d="M59.3477 14.9755C59.3477 13.9334 59.3477 12.9411 59.3477 11.8831C65.8036 11.8831 72.1951 11.8831 78.6605 11.8831C78.6605 12.8909 78.6605 13.8888 78.6605 14.9755C72.2496 14.9755 65.8259 14.9755 59.3477 14.9755Z" fill="#6E0605"/>
<path d="M59.3179 21.4096C59.3179 20.34 59.3179 19.3779 59.3179 18.3402C65.767 18.3402 72.1824 18.3402 78.6662 18.3402C78.6662 19.3429 78.6662 20.3344 78.6662 21.4096C72.2516 21.4096 65.8431 21.4096 59.3179 21.4096Z" fill="#6E0605"/>
<path d="M72.1788 24.8674C72.1788 25.925 72.1788 26.8823 72.1788 27.9224C67.9122 27.9224 63.706 27.9224 59.3824 27.9224C59.1862 26.9535 59.3072 25.9632 59.3044 24.8674C63.5953 24.8674 67.833 24.8674 72.1788 24.8674Z" fill="#6E0605"/>
<path d="M75.5723 27.9447C75.5723 26.8907 75.5723 25.8995 75.5723 24.8614C76.5765 24.6628 77.5705 24.7826 78.65 24.7631C78.65 25.857 78.65 26.8732 78.65 27.9447C77.6154 27.9447 76.6287 27.9447 75.5723 27.9447Z" fill="#6E0605"/>
<path d="M17.4629 34.6661C19.9009 32.2822 22.3059 29.9465 24.693 27.5928C26.4544 25.8557 28.1994 24.1016 29.9361 22.3394C30.3545 21.9151 30.7402 21.5927 31.4149 21.6731C35.053 22.1077 38.7159 22.3438 42.3266 23.0025C43.5959 23.2342 44.8299 23.6315 45.9201 24.3121C52.2515 28.2643 58.5574 32.2564 64.7482 36.4279C65.5343 36.9577 65.778 37.5739 65.7724 38.5117C65.7314 45.7167 65.7573 52.9222 65.7449 60.1277C65.7413 62.2672 64.2347 63.7702 62.3058 63.6313C61.4237 63.568 60.7789 63.2798 60.7423 62.2413C60.714 61.44 60.558 60.6137 60.134 59.9561C59.2607 58.6016 59.2858 57.134 59.2814 55.627C59.275 53.5073 59.4414 51.3802 59.1867 49.2681C58.6624 44.9226 55.9422 41.7598 51.7273 40.5975C46.6199 39.1892 41.5042 37.8131 36.3913 36.4255C35.3663 36.1473 34.2979 35.7214 33.5755 36.9681C33.0075 37.9484 33.3088 39.996 34.157 40.7682C36.8025 43.1772 39.4626 45.5703 42.1212 47.9649C44.025 49.6797 45.952 51.369 47.8391 53.1017C49.7804 54.8834 50.0825 57.0122 48.712 58.8702C47.4825 60.5377 44.6603 60.9803 42.7051 59.6934C40.9358 58.5287 39.2544 57.2303 37.5368 55.9872C34.5308 53.8115 31.5343 51.623 28.5203 49.458C24.41 46.5061 21.3033 42.7318 19.1602 38.153C18.655 37.0751 18.1189 36.0119 17.4629 34.6661Z" fill="#EFCFB3"/>
<path d="M13.8657 33.5456C10.979 30.6415 8.03067 27.6756 5.10303 24.7304C10.7111 19.1303 16.3857 13.4637 22.042 7.8154C24.9652 10.7418 27.9183 13.6978 30.811 16.5936C25.1746 22.2323 19.508 27.9009 13.8657 33.5456Z" fill="#78E9FE"/>
<path d="M11.2355 86.9772C13.6739 89.633 16.143 92.3222 18.7072 95.1153C21.4653 92.5176 23.7143 89.5693 26.411 86.9052C30.3358 89.3993 32.5346 92.9149 33.2475 97.5462C23.6092 97.5462 14.0588 97.5462 4.51562 97.5462C4.17489 94.1472 7.77126 88.4687 11.2355 86.9772Z" fill="#FE816E"/>
<path d="M98.0834 97.5868C88.3638 97.5868 78.8338 97.5868 69.1313 97.5868C69.7356 92.9296 72.0403 89.4988 75.9531 86.8618C78.4696 89.6103 80.9625 92.3333 83.5849 95.1969C86.1264 92.4169 88.6333 89.6744 91.2019 86.8645C95.1398 89.4105 97.3514 92.9264 98.0834 97.5868Z" fill="#B3DC7E"/>
<path d="M65.6812 86.2623C55.9521 86.2623 46.4603 86.2623 36.7388 86.2623C37.3 81.5626 39.66 78.141 43.5462 75.5087C46.0746 78.2751 48.568 81.0029 51.1768 83.8573C53.7048 81.0853 56.1898 78.3607 58.7743 75.5266C62.709 78.0156 64.9226 81.5506 65.6812 86.2623Z" fill="#FEE9A6"/>
<path d="M83.518 81.4344C79.9037 81.4077 77.0887 78.5203 77.1293 74.8809C77.1683 71.3558 80.0542 68.505 83.5909 68.4975C87.1132 68.4899 90.1256 71.5107 90.095 75.0187C90.0631 78.586 87.116 81.4611 83.518 81.4344Z" fill="#EFCFB3"/>
<path d="M12.3281 74.9892C12.3293 71.3765 15.2144 68.4792 18.7908 68.4983C22.3693 68.5178 25.2571 71.453 25.2285 75.0418C25.1998 78.5963 22.3637 81.4189 18.8052 81.434C15.1626 81.4499 12.3269 78.6282 12.3281 74.9892Z" fill="#EFCFB3"/>
<path d="M69.1957 40.8132C70.5602 42.4257 71.8857 43.984 73.2025 45.5499C75.59 48.3884 77.9727 51.2305 80.3562 54.0721C80.64 54.4105 80.9278 54.7464 81.1937 55.0987C82.2481 56.4951 82.1673 58.2942 81.0074 59.4422C79.793 60.6443 78.0483 60.8 76.6985 59.6066C75.0148 58.1179 73.5858 56.3259 71.834 54.9315C69.4202 53.0102 68.6046 50.6911 68.941 47.6787C69.1798 45.54 68.9931 43.3543 69.0027 41.1893C69.0031 41.1185 69.0723 41.0476 69.1957 40.8132Z" fill="#EFCFB3"/>
<path d="M44.8236 63.7821C49.7594 63.4394 51.5936 61.3246 52.8008 57.5853C55.5346 57.8795 57.907 60.9986 57.6769 63.9959C57.3891 67.7451 54.3278 70.34 50.5328 70.0518C47.268 69.8038 44.6675 66.9478 44.8236 63.7821Z" fill="#EFCFB3"/>
<path d="M18.7714 90.4004C17.2382 88.7143 15.8295 87.1651 14.291 85.4734C17.3432 84.456 20.1865 84.4671 23.2487 85.4575C21.7226 87.1416 20.3147 88.6964 18.7714 90.4004Z" fill="#E5E7EB"/>
<path d="M88.0586 85.465C86.5413 87.1408 85.1294 88.7 83.5949 90.3949C82.0923 88.7489 80.6577 87.1774 79.1025 85.4734C82.1639 84.4588 85.0155 84.456 88.0586 85.465Z" fill="#CBCFD7"/>
<path d="M55.6779 74.0988C54.0952 75.8438 52.6826 77.4018 51.1847 79.0529C49.6944 77.4169 48.2785 75.8629 46.7007 74.1306C49.7573 73.1112 52.6033 73.1777 55.6779 74.0988Z" fill="#FBD56F"/>
<path d="M86.8352 24.8136C87.7463 24.8184 88.4783 25.5257 88.466 26.3887C88.4545 27.1963 87.6261 28.0056 86.8185 27.9984C85.9945 27.9908 85.1881 27.1868 85.1885 26.3728C85.1885 25.5082 85.9273 24.8088 86.8352 24.8136Z" fill="#FAD46E"/>
</g>
<defs>
<clipPath id="clip0_723_158">
<rect width="100.949" height="100" fill="white" transform="translate(0.48584 0.833252)"/>
</clipPath>
</defs>
</svg>
