<svg width="118" height="101" viewBox="0 0 118 101" fill="none" xmlns="http://www.w3.org/2000/svg">
<g clip-path="url(#clip0_723_183)">
<path d="M89.4742 73.9958C81.9916 73.9958 74.5885 73.9958 67.182 73.9958C66.6441 74.6534 66.8945 75.3983 66.8926 76.0781C66.8715 83.2924 66.8801 90.5067 66.8781 97.721C66.8781 98.2405 66.8902 98.7631 66.8426 99.2795C66.7588 100.193 66.1668 100.722 65.3177 100.771C64.3556 100.827 63.7214 100.261 63.5842 99.2888C63.503 98.714 63.5381 98.1215 63.5377 97.5369C63.5358 87.008 63.5405 76.479 63.5268 65.95C63.526 65.2543 63.7101 64.5265 63.3587 63.8815C62.9742 63.6322 62.5729 63.7356 62.1911 63.6939C60.5663 63.5168 60.1459 63.0995 60.1193 61.4927C60.0874 59.5434 60.0901 57.593 60.1178 55.6434C60.1431 53.8665 60.6299 53.3942 62.4871 53.3626C64.3712 53.3303 66.2565 53.3552 68.1414 53.3552C74.5757 53.3552 81.0104 53.3618 87.4447 53.3455C88.1373 53.3435 88.8635 53.5292 89.5955 53.12C89.5955 50.9559 89.5955 48.7785 89.5955 46.497C87.9985 46.2443 86.4841 45.951 85.0114 45.4709C77.4075 42.9916 71.7107 35.5449 71.4287 27.682C71.4123 27.2284 71.3878 26.7678 71.442 26.3201C71.5516 25.4196 72.1335 24.9192 72.9993 24.8568C73.8865 24.7928 74.4782 25.2955 74.7352 26.127C74.8479 26.4913 74.8549 26.8957 74.8639 27.283C75.0554 35.5819 82.1893 42.5205 89.6903 42.9257C90.2098 42.7447 90.1899 42.1999 90.4118 41.8255C91.677 39.6906 93.5576 38.551 96.0107 38.5112C99.7793 38.4504 103.551 38.4352 107.319 38.5136C111.05 38.5912 113.595 41.2452 113.623 45.0189C113.66 50.023 113.534 55.0303 113.665 60.0317C113.764 63.8085 113.091 67.253 110.097 70.4741C111.897 70.4741 113.27 70.4675 114.643 70.4757C116.968 70.4897 117.435 70.9218 117.438 73.1585C117.447 81.4777 117.441 89.7969 117.441 98.1161C117.441 98.1812 117.443 98.246 117.441 98.3111C117.407 99.9429 116.745 100.857 115.641 100.795C114.599 100.737 113.996 99.8894 113.992 98.3435C113.977 92.9489 113.988 87.5544 113.98 82.1598C113.979 81.7815 114.085 81.3786 113.772 80.9208C106.994 80.9208 100.152 80.9208 93.3131 80.9208C92.9878 81.6298 93.1204 82.2854 93.1188 82.9172C93.1067 87.8566 93.1184 92.7964 93.1044 97.7358C93.1025 98.3805 93.095 99.0537 92.9145 99.6613C92.693 100.407 92.0658 100.853 91.2749 100.769C90.53 100.691 89.9021 100.287 89.7734 99.4667C89.6837 98.8938 89.6938 98.3017 89.6934 97.7183C89.6887 90.504 89.6946 83.2897 89.6829 76.0753C89.6829 75.442 89.8252 74.7856 89.4742 73.9958Z" fill="#6E0605"/>
<path d="M0.494014 62.6268C0.488164 59.9014 0.481924 57.1757 0.476074 54.45C0.476074 53.6111 1.0252 53.3607 1.8407 53.3458C9.96294 53.3634 19.6448 53.3552 27.7671 53.3552C28.4667 53.3552 29.166 53.3552 29.9573 53.3552C29.9573 50.9902 29.9573 48.8124 29.9573 46.5407C28.4191 46.1967 26.8934 45.9607 25.4212 45.4845C18.0208 43.0907 12.4165 36.0491 11.826 28.3274C11.7765 27.6812 11.7527 27.0264 11.7979 26.3809C11.8611 25.4788 12.4243 24.9363 13.2932 24.8611C14.2581 24.7776 14.8973 25.2854 15.1176 26.2448C15.1894 26.558 15.2101 26.8871 15.2183 27.2101C15.4417 35.8728 22.7715 42.4994 29.9745 42.9351C30.5119 42.7931 30.5412 42.2596 30.7514 41.8832C31.9682 39.7039 33.8597 38.5693 36.3023 38.5179C40.0694 38.4391 43.8403 38.443 47.6078 38.5116C51.3651 38.5799 53.9333 41.1738 53.9695 44.9565C54.0237 50.6088 53.9754 56.2623 53.9812 61.9154C53.984 64.6778 53.133 67.138 51.4595 69.3298C51.2391 69.6184 50.8464 69.8356 50.9341 70.4749C52.4458 70.4749 53.9773 70.4464 55.5077 70.4827C57.1578 70.5217 57.7834 71.0938 57.7877 72.6959C57.8103 81.3377 57.8068 89.9798 57.7892 98.6219C57.7865 99.9538 57.056 100.805 56.0701 100.804C55.1002 100.803 54.3712 99.9417 54.3646 98.6036C54.3393 93.4703 54.3537 88.3371 54.3533 83.2042C54.3533 82.4983 54.3533 81.7924 54.3533 80.9512C47.3995 80.9512 40.5608 80.9512 33.7072 80.9512C33.3012 81.5502 33.4912 82.2171 33.4888 82.8423C33.4709 87.7806 33.4802 92.7188 33.4771 97.657C33.4767 98.3045 33.5372 98.9589 33.3157 99.5887C33.0501 100.345 32.5044 100.814 31.7194 100.773C30.877 100.729 30.2319 100.271 30.1118 99.3629C30.0357 98.7869 30.0576 98.1964 30.0576 97.6122C30.0544 90.4646 30.0556 83.3173 30.0556 76.1697C30.0556 75.527 30.0556 74.8839 30.0556 74.0965C22.4661 74.0965 14.9768 74.0965 7.4829 74.0965C7.12059 74.786 7.28322 75.5145 7.28205 76.215C7.26918 83.2974 7.27503 90.3799 7.2723 97.4624C7.27191 98.0467 7.29063 98.6356 7.22433 99.2139C7.1124 100.189 6.50321 100.79 5.54614 100.769C4.60155 100.749 3.9908 100.171 3.93425 99.1636C3.905 98.6453 3.91553 98.1243 3.91553 97.6048C3.91475 87.0785 3.91787 76.5523 3.90773 66.0261C3.90695 65.3221 3.78293 64.6708 3.75173 63.8268C2.6133 63.8627 0.494014 64.1693 0.494014 62.6268Z" fill="#6E0605"/>
<path d="M108.883 13.354C115.844 19.5683 114.251 27.5451 110.049 31.6706C105.477 36.1591 98.0033 36.1903 93.3455 31.7205C88.1518 26.7366 88.5594 19.6268 94.4488 13.3099C93.1665 12.0564 92.3264 10.5982 92.3927 8.71096C92.4762 6.33544 93.5592 4.63268 95.7093 3.66235C96.542 3.28677 97.2865 2.85543 97.9838 2.24858C100.18 0.337556 103.238 0.377727 105.436 2.26964C105.92 2.68617 106.304 3.17874 106.983 3.38778C111.283 4.71068 112.213 10.1282 109.198 12.9815C109.104 13.0704 109.03 13.1792 108.883 13.354Z" fill="#6E0605"/>
<path d="M30.0635 23.0912C30.0643 16.419 35.3906 11.1142 42.0725 11.1309C48.7357 11.1477 54.016 16.4993 53.9712 23.1911C53.9271 29.7892 48.657 35.0429 42.0674 35.0585C35.3933 35.0741 30.0627 29.7595 30.0635 23.0912Z" fill="#6E0605"/>
<path d="M20.8308 97.3688C20.8308 94.8353 20.8308 92.5117 20.8308 90.1884C20.8308 86.8773 20.8273 83.5661 20.8344 80.255C20.8355 79.6751 20.7517 79.0823 20.9997 78.5253C21.3581 77.7204 21.9677 77.3093 22.8561 77.4419C23.6459 77.5597 24.1389 78.039 24.2524 78.8393C24.3066 79.2223 24.2906 79.6166 24.2906 80.0054C24.2925 86.0431 24.298 92.0811 24.289 98.1188C24.2855 100.38 23.8421 100.805 21.5368 100.82C19.9136 100.83 18.29 100.845 16.6675 100.814C15.1719 100.786 14.37 100.107 14.425 98.9963C14.4765 97.9534 15.1988 97.4047 16.6477 97.3739C17.9401 97.3474 19.2338 97.3688 20.8308 97.3688Z" fill="#6E0605"/>
<path d="M80.2657 97.3685C80.6272 96.5448 80.4927 95.8903 80.4946 95.2558C80.5075 90.3199 80.5001 85.384 80.504 80.4485C80.5044 79.9302 80.474 79.3998 80.5683 78.8959C80.7438 77.9587 81.3054 77.3721 82.3187 77.4295C83.3105 77.4852 83.8452 78.0687 83.9282 79.046C83.9665 79.4977 83.9481 79.9547 83.9485 80.4091C83.9497 86.1894 83.9516 91.9692 83.9481 97.7495C83.9462 100.466 83.6049 100.815 80.9677 100.822C79.4089 100.827 77.8496 100.848 76.2919 100.815C74.8138 100.784 74.1403 100.251 74.0907 99.1711C74.0369 97.9983 74.7424 97.4078 76.313 97.3739C77.6055 97.3462 78.8999 97.3685 80.2657 97.3685Z" fill="#6E0605"/>
<path d="M93.2666 59.9178C92.9729 54.8411 93.1656 49.7609 93.1711 44.6827C93.1722 43.6012 93.6289 42.6796 94.7935 42.322C97.8293 41.9714 100.875 42.2498 103.915 42.1796C104.893 42.157 105.244 42.8582 105.447 43.6554C105.673 44.545 105.622 45.4599 105.621 46.3671C105.62 50.1946 105.672 54.0225 105.598 57.8488C105.558 59.9003 105.32 60.128 103.353 60.0851C99.9907 60.0114 96.6222 60.3277 93.2666 59.9178Z" fill="#78E9FE"/>
<path d="M84.3576 70.4328C78.6046 70.4328 72.8513 70.4328 66.9673 70.4328C66.9673 68.2238 66.9673 66.1248 66.9673 63.7746C72.7943 63.7746 78.5922 63.7746 84.39 63.7746C85.2195 65.998 85.2726 68.2179 84.3576 70.4328Z" fill="#E2F0FE"/>
<path d="M93.2666 59.9178C97.0859 59.9178 100.905 59.9178 104.68 59.9178C105.394 56.8609 105.081 43.8328 104.213 42.3219C101.139 42.3219 97.9662 42.3219 94.7935 42.3219C95.1063 41.8886 95.584 41.9167 96.0275 41.9171C99.784 41.9214 103.541 41.9031 107.296 41.9702C109.075 42.0017 110.11 42.983 110.128 44.7478C110.178 49.7328 110.13 54.719 110.111 59.7045C110.111 59.8164 110.007 59.9279 109.829 60.286C108.222 60.286 106.489 60.2856 104.757 60.286C101.389 60.2871 98.0208 60.2996 94.6527 60.2774C94.1819 60.2739 93.5958 60.5363 93.2666 59.9178Z" fill="#2DCEFB"/>
<path d="M103.841 70.0966C103.599 70.3524 103.284 70.416 102.954 70.4164C99.7844 70.4199 96.6145 70.4183 93.3228 70.4183C93.088 68.1961 93.1715 66.0947 93.2675 63.7976C97.2436 63.7976 101.117 63.7976 104.991 63.7976C105.924 66.1372 105.191 68.1735 103.841 70.0966Z" fill="#78E9FE"/>
<path d="M63.6545 59.9123C63.6474 58.9966 63.6408 58.0809 63.6338 57.1647C66.3357 56.7662 69.0525 57.0368 71.7619 57.0013C75.7122 56.9498 79.6638 57.0142 83.6145 56.9725C84.8321 56.9596 85.2342 57.5559 85.2104 58.6292C85.1878 59.644 84.7136 60.1151 83.6321 60.1093C77.1553 60.0754 70.6784 60.1101 64.2012 60.0874C63.9934 60.0871 63.8327 59.9837 63.6545 59.9123Z" fill="#E2F0FE"/>
<path d="M108.526 77.392C103.471 77.392 98.4159 77.392 93.359 77.392C92.8119 76.2305 92.8852 75.1873 93.2881 74.0044C98.4911 74.0044 103.67 74.0044 108.85 74.0044C109.632 75.2185 109.804 76.3745 108.526 77.392Z" fill="#E2F0FE"/>
<path d="M84.3574 70.4328C84.3683 68.2132 84.3789 65.9941 84.3898 63.7746C86.1089 63.7746 87.8281 63.7746 89.6478 63.7746C89.6478 66.0386 89.6478 68.0744 89.6478 70.3353C87.9076 70.565 86.1273 70.4129 84.3574 70.4328Z" fill="#B5DAFD"/>
<path d="M63.6545 59.9124C70.5876 59.9124 77.5211 59.9124 84.5065 59.9124C84.7806 58.9896 84.7346 58.2373 84.5626 57.1648C77.5995 57.1648 70.6168 57.1648 63.6338 57.1648C63.8904 56.6145 64.3982 56.7744 64.8221 56.7744C72.7915 56.7736 80.7609 56.7826 88.7302 56.7951C88.9802 56.7955 89.2298 56.8567 89.5594 56.9C89.8741 57.9292 89.738 58.9436 89.6775 59.9011C89.2922 60.3804 88.8102 60.2673 88.373 60.2677C80.5978 60.2802 72.8231 60.2891 65.0479 60.2817C64.5706 60.2817 63.9895 60.5146 63.6545 59.9124Z" fill="#B5DAFD"/>
<path d="M103.841 70.0966C104.334 68.0171 105.103 65.9879 104.991 63.7976C106.594 63.7976 108.197 63.7976 109.812 63.7976C109.398 66.9212 107.027 69.384 103.841 70.0966Z" fill="#2DCEFB"/>
<path d="M108.526 77.392C109.173 76.3144 108.801 75.1393 108.85 74.0044C110.462 74.0044 112.075 74.0044 113.763 74.0044C114.114 75.0757 113.96 76.0944 113.89 77.3616C112.104 77.5105 110.315 77.4489 108.526 77.392Z" fill="#B5DAFD"/>
<path d="M45.2637 60.2256C41.4467 60.2256 37.6297 60.2256 33.9294 60.2256C33.3759 59.669 33.5382 59.1207 33.5366 58.6246C33.5234 54.2756 33.5183 49.9271 33.5327 45.5781C33.5417 42.8352 34.4075 41.962 37.1204 41.9554C39.5864 41.9491 42.052 41.9811 44.518 41.9963C45.5273 42.4718 45.8495 43.3703 45.8733 44.3761C45.986 49.1358 45.9571 53.8966 45.8896 58.657C45.8814 59.247 45.7278 59.8047 45.2637 60.2256Z" fill="#4EB0FB"/>
<path d="M24.9777 70.3914C19.2122 70.3914 13.4468 70.3914 7.52962 70.3914C7.26247 68.2245 7.429 66.1224 7.42042 63.8229C13.3637 63.8229 19.1783 63.8229 24.9925 63.8229C26.0077 66.0148 26.0389 68.2043 24.9777 70.3914Z" fill="#E2F0FE"/>
<path d="M45.2639 60.2255C45.4682 54.9285 45.3083 49.6291 45.3524 44.3313C45.3598 43.435 44.9105 42.7334 44.5186 41.9963C45.297 41.985 46.0755 41.9635 46.8539 41.9647C49.4931 41.9694 50.5878 42.7038 50.6884 45.2723C50.8682 49.8736 50.7477 54.4862 50.7501 59.0945C50.7504 60.0356 50.1853 60.307 49.3492 60.2875C47.9876 60.2552 46.6257 60.245 45.2639 60.2255Z" fill="#2A91F9"/>
<path d="M44.1732 70.1168C43.6139 70.5626 42.9392 70.4464 42.3117 70.4518C39.4221 70.4768 36.5326 70.4628 33.5635 70.4628C33.5635 68.1785 33.5635 66.0736 33.5635 63.7941C37.5037 63.7941 41.4135 63.7941 45.3233 63.7941C46.2074 66.1321 45.6248 68.2035 44.1732 70.1168Z" fill="#49C8FE"/>
<path d="M4.00822 59.905C3.92046 58.9432 3.83895 57.9815 4.10884 56.8485C10.9503 56.8485 17.8011 56.8485 24.652 56.8485C25.7073 57.4632 25.7011 58.4074 25.368 59.3863C25.0197 60.4108 24.0911 60.082 23.3688 60.0844C17.4193 60.1051 11.4698 60.0992 5.52026 60.0902C5.01365 60.0898 4.4809 60.217 4.00822 59.905Z" fill="#E2F0FE"/>
<path d="M49.1673 77.358C44.0699 77.358 38.9726 77.358 33.8027 77.358C33.3042 76.2801 33.6182 75.2212 33.569 74.0016C38.8825 74.0016 44.0333 74.0016 49.1841 74.0016C49.9961 75.1245 50.0249 76.2434 49.1673 77.358Z" fill="#E2F0FE"/>
<path d="M24.9775 70.3914C24.9826 68.2019 24.9877 66.0125 24.9927 63.823C26.598 63.7777 28.2037 63.7005 29.9489 63.8834C29.9489 66.005 29.9489 68.092 29.9489 70.3041C28.2902 70.5755 26.6323 70.4441 24.9775 70.3914Z" fill="#B5DAFD"/>
<path d="M4.0083 59.905C10.9168 59.905 17.8258 59.905 24.8073 59.905C25.1263 58.7833 25.2144 57.8067 24.652 56.8485C26.3856 56.7611 28.118 56.7276 29.937 56.8801C30.1776 57.9627 30.1121 58.9697 30.0123 59.9097C29.6656 60.334 29.258 60.2688 28.8793 60.2692C21.0484 60.2798 13.2175 60.2899 5.38658 60.2809C4.91545 60.2805 4.32771 60.5329 4.0083 59.905Z" fill="#B5DAFD"/>
<path d="M44.1733 70.1168C44.7712 68.0482 45.3683 65.9796 45.3231 63.7941C46.9357 63.6022 48.5433 63.7336 50.1697 63.7328C49.7219 66.9586 47.472 69.3107 44.1733 70.1168Z" fill="#2A91F9"/>
<path d="M49.1675 77.358C49.1729 76.2391 49.1788 75.1202 49.1843 74.0016C50.7872 74.0016 52.3897 74.0016 54.0581 74.0016C54.4981 75.0929 54.3027 76.1467 54.2013 77.3038C52.4763 77.5324 50.8227 77.4715 49.1675 77.358Z" fill="#B5DAFD"/>
<path d="M103.816 31.3777C99.0381 32.3554 94.8826 30.1016 93.5663 25.739C91.5621 19.0952 97.1778 14.1589 101.68 14.6386C102.387 14.7139 103.102 14.7264 103.813 14.7681C105.086 15.9857 105.221 17.6577 105.38 19.2224C105.706 22.4212 105.783 25.6356 105.057 28.8161C104.837 29.7798 104.495 30.6519 103.816 31.3777Z" fill="#FBDA35"/>
<path d="M103.816 31.3777C105.465 25.8408 105.507 20.3042 103.813 14.7681C106.254 15.5805 108.175 17.0235 109.309 19.3819C111.341 23.6072 109.782 29.3691 104.541 31.1039C104.296 31.1846 104.058 31.2856 103.816 31.3777Z" fill="#FBC52E"/>
<path d="M101.56 11.1477C100.521 11.1481 99.4824 11.1699 98.4442 11.1426C97.1587 11.1087 95.952 10.1411 95.7683 9.04285C95.5995 8.03118 96.5866 6.78473 97.9348 6.5164C98.7683 6.35065 99.2756 5.92594 99.8025 5.29725C101.037 3.82537 102.319 3.81289 103.527 5.28906C104.103 5.99224 104.692 6.36625 105.584 6.54292C106.766 6.77693 107.738 8.16066 107.568 9.07055C107.375 10.106 106.219 11.0982 105.064 11.1387C103.898 11.1789 102.728 11.1473 101.56 11.1477Z" fill="#FBC52E"/>
<path d="M43.7579 31.4132C40.2053 32.2244 37.3618 30.9662 35.2019 28.2163C33.069 25.5007 32.9251 21.8998 34.6637 19.0578C37.6126 21.1502 40.9424 21.6334 44.4572 21.2426C45.3549 20.8971 45.6896 21.4817 45.7652 22.1689C46.0585 24.8322 46.0051 27.4796 45.0823 30.04C44.8514 30.6807 44.3199 31.0715 43.7579 31.4132Z" fill="#FED8D3"/>
<path d="M43.7578 31.4131C44.9512 30.0778 45.0109 28.3391 45.2613 26.7268C45.4867 25.2741 45.2972 23.7593 45.3323 22.273C45.3475 21.6248 45.0585 21.3229 44.4567 21.2426C46.1727 20.6849 47.9004 20.1545 49.3645 19.059C52.2685 23.0261 49.8119 30.3648 43.7578 31.4131Z" fill="#FEB3A8"/>
<path d="M44.906 17.3827C42.3074 18.3308 39.3523 17.9678 37.0649 16.3383C39.1312 14.3719 41.58 14.4612 44.0831 14.7736C44.8093 15.5006 45.5335 16.2283 44.906 17.3827Z" fill="#FDA94E"/>
<path d="M44.9064 17.3827C44.6322 16.513 44.3577 15.6433 44.0835 14.7736C45.1962 15.0622 46.1673 15.6168 47.2347 16.3379C46.4165 16.8722 45.7582 17.3281 44.9064 17.3827Z" fill="#FBC52E"/>
</g>
<defs>
<clipPath id="clip0_723_183">
<rect width="116.968" height="100" fill="white" transform="translate(0.476074 0.833252)"/>
</clipPath>
</defs>
</svg>
