<svg width="100" height="101" viewBox="0 0 100 101" fill="none" xmlns="http://www.w3.org/2000/svg">
<g clip-path="url(#clip0_723_220)">
<path d="M66.5893 41.8976C67.8816 41.8976 69.0341 41.8976 70.1866 41.8976C76.6323 41.8976 83.0788 41.9498 89.5235 41.8703C91.8705 41.8413 93.0976 43.3709 92.9673 45.3527C92.9131 46.1755 92.9589 47.0048 92.9581 47.8312C92.9556 50.3129 91.9842 51.3372 89.5285 51.4414C89.3196 51.7385 89.4241 52.0797 89.4236 52.3988C89.4156 56.7951 89.4474 61.1918 89.4053 65.5878C89.3859 67.6063 89.7899 69.5031 90.5387 71.3678C93.4612 78.6449 96.339 85.9398 99.2555 93.2192C100.17 95.5014 99.9188 97.5504 98.1822 99.3376C97.2693 100.277 96.1154 100.731 94.815 100.815C94.5516 100.832 94.2864 100.826 94.0219 100.826C64.4375 100.826 34.8532 100.824 5.26877 100.833C4.14963 100.834 3.09494 100.675 2.16582 100.021C0.931031 99.152 0.233397 97.9701 0.160202 96.445C0.149094 96.2141 0.150284 95.9824 0.150284 95.7509C0.149689 71.1246 0.150879 46.4986 0.144532 21.8726C0.144333 20.9686 0.201263 20.0842 0.645788 19.279C1.61934 17.5152 3.15088 16.7509 5.13806 16.7527C15.1868 16.762 25.2353 16.7569 35.2841 16.7569C43.9776 16.7569 52.6712 16.7561 61.3647 16.7573C64.7116 16.7576 66.5859 18.6232 66.5881 21.9664C66.5923 28.2138 66.5893 34.4613 66.5893 40.7087C66.5893 41.0673 66.5893 41.4257 66.5893 41.8976Z" fill="#6E0605"/>
<path d="M74.3485 24.1668C74.3485 20.8208 74.3485 17.5525 74.3485 14.2119C72.9957 13.8566 71.792 13.2209 70.8272 12.1807C69.9995 11.2882 69.472 10.2395 69.1586 9.02832C65.8668 9.02832 62.5707 9.02832 59.191 9.02832C58.655 10.763 57.6049 12.1374 55.8857 12.9194C54.6702 13.4724 53.3917 13.569 52.108 13.2514C49.4172 12.5859 47.5437 10.1007 47.6669 7.42457C47.7924 4.69256 49.7485 2.36916 52.3428 1.87028C55.3636 1.28929 57.811 2.8125 59.2368 6.17907C62.5258 6.17907 65.8252 6.17907 69.1144 6.17907C70.4658 2.42887 73.1834 0.489696 76.5057 0.883243C79.6338 1.25378 82.1492 3.77177 82.4761 6.86004C82.8338 10.2375 80.9337 12.8997 77.1783 14.2507C77.1783 17.539 77.1783 20.8383 77.1783 24.1281C80.5737 25.5565 82.1185 28.0802 81.4718 31.1142C80.9041 33.7771 78.3437 35.7949 75.6436 35.707C72.8638 35.6165 70.419 33.534 70.0189 30.8757C69.5581 27.813 71.2138 25.1417 74.3485 24.1668Z" fill="#6E0605"/>
<path d="M61.2783 41.8784C59.4286 42.246 58.63 43.1795 58.5869 45.0671C58.5645 46.0527 58.5752 47.0392 58.5841 48.0252C58.603 50.134 59.3905 51.0669 61.4667 51.4566C61.8103 51.801 61.7637 52.2435 61.7641 52.67C61.7674 57.5275 61.7734 62.3849 61.7589 67.2424C61.7563 68.1288 61.6607 69.0149 61.4753 69.8865C60.7752 72.1908 59.761 74.3746 58.8888 76.6127C57.7084 79.6423 56.4877 82.6561 55.124 85.6669C55.1085 85.3356 55.0795 85.0041 55.0793 84.6729C55.0767 78.1284 55.0777 71.5839 55.0769 65.0394C55.0767 63.245 54.7254 62.8913 52.9475 62.8903C51.2287 62.8893 49.51 62.8858 47.7914 62.8915C46.2987 62.8965 45.9313 63.2644 45.9305 64.7841C45.9268 72.6175 45.9299 80.4512 45.9248 88.2846C45.9246 88.6403 46.0041 89.0088 45.8149 89.4109C45.1274 89.4109 44.423 89.4109 43.7289 89.4109C43.5564 89.056 43.6329 88.722 43.6323 88.4003C43.626 84.6983 43.6309 80.9965 43.627 77.2945C43.6254 75.9024 43.1751 75.4428 41.8082 75.4376C39.9902 75.4309 38.1725 75.4317 36.3545 75.4374C34.9307 75.442 34.4943 75.8927 34.4933 77.356C34.4905 81.0248 34.4923 84.6937 34.4923 88.3626C34.4923 88.6899 34.4923 89.0172 34.4923 89.3857C33.7348 89.5196 33.0298 89.4984 32.3395 89.4095C32.1358 89.0249 32.2221 88.6552 32.2217 88.3001C32.2157 82.3836 32.2189 76.4671 32.2165 70.5506C32.2157 68.7507 31.8862 68.4305 30.0601 68.4285C28.3745 68.4268 26.6888 68.4228 25.0031 68.4297C23.4664 68.4361 23.0584 68.8376 23.0572 70.3691C23.0525 76.3517 23.057 82.3342 23.0507 88.3168C23.0503 88.6696 23.1427 89.0396 22.9261 89.4224C22.264 89.4224 21.586 89.4224 20.7957 89.4224C20.7957 88.9085 20.7957 88.4233 20.7957 87.9381C20.7957 85.6905 20.8036 83.4428 20.7923 81.1952C20.7862 79.9884 20.3062 79.4729 19.1334 79.459C17.1836 79.436 15.2331 79.4358 13.2832 79.4592C12.1454 79.4729 11.667 79.9717 11.662 81.1139C11.6503 83.8531 11.6582 86.5922 11.6582 89.3244C11.1367 89.5914 10.6341 89.4274 10.1527 89.4728C9.31818 89.5515 8.74075 90.0939 8.73579 90.8339C8.73103 91.5326 9.25609 92.1118 10.0341 92.2203C10.359 92.2655 10.6936 92.2465 11.0237 92.2465C24.4763 92.2475 37.9287 92.2473 51.3813 92.2473C51.7413 92.2473 52.1015 92.2473 52.6325 92.2473C51.8183 94.1819 51.2708 96.0615 52.3713 98.0489C51.9208 98.0489 51.5935 98.0489 51.2662 98.0489C35.9959 98.0489 20.7253 98.0491 5.45491 98.0487C3.46952 98.0487 2.9274 97.5086 2.9272 95.526C2.92661 71.0338 2.92661 46.5415 2.9272 22.0493C2.9272 20.4583 3.15135 20.0738 4.29926 19.6674C4.65314 19.5418 5.01991 19.6035 5.38013 19.6035C23.5474 19.6002 41.7144 19.6004 59.8816 19.6006C61.3358 19.6006 61.649 19.8904 61.7714 21.3487C61.7934 21.6121 61.7936 21.8767 61.7936 22.141C61.7952 28.1527 61.8004 34.1644 61.7855 40.1759C61.7833 40.7761 61.9527 41.4628 61.2783 41.8784Z" fill="#E2F0FE"/>
<path d="M92.8195 98.0177C92.4565 98.0281 92.0935 98.0475 91.7307 98.0475C80.4253 98.0491 69.1198 98.0489 57.8144 98.0485C57.484 98.0485 57.1519 98.0634 56.823 98.0378C55.2179 97.9122 54.0793 96.3473 54.6558 94.8545C56.5906 89.8443 58.6004 84.8631 60.5996 79.8251C62.085 80.0025 63.5274 80.0923 64.9723 79.9082C67.5589 79.5786 69.9446 78.6421 72.2819 77.5386C74.5749 76.4562 76.7888 75.1833 79.2814 74.5684C81.6504 73.9838 83.9244 74.1806 86.0792 75.3811C86.327 75.6923 86.5041 76.0394 86.6529 76.4094C88.1757 80.197 89.6943 83.9865 91.1884 87.7857C91.3322 88.1513 91.7831 88.5813 91.2459 89.0108C90.9565 89.0396 90.7542 88.8543 90.5272 88.7228C88.9586 87.8135 87.1385 88.1953 86.0413 89.6608C85.1519 90.8488 85.3427 92.6922 86.4724 93.8246C87.7028 95.058 89.4726 95.1512 90.8754 94.064C91.3935 93.6625 91.7019 93.1327 91.8951 92.5182C92.0017 92.1794 92.0405 91.7878 92.4603 91.6478C93.7258 92.829 94.3199 95.7039 93.6153 97.192C93.4404 97.5611 93.2095 97.8624 92.8195 98.0177Z" fill="#78E9FE"/>
<path d="M84.2613 71.6947C80.4908 70.9514 77.0913 72.1073 73.7741 73.7227C71.256 74.949 68.7814 76.2877 66.0165 76.9163C64.624 77.2329 63.22 77.32 61.6904 77.1413C62.253 75.7119 62.7431 74.3164 63.3446 72.9708C64.4839 70.421 64.961 67.7785 64.9047 64.9818C64.8213 60.8531 64.8832 56.7217 64.8832 52.5912C64.8832 52.2355 64.8832 51.8799 64.8832 51.4544C71.0873 51.4544 77.1889 51.4544 83.2907 51.4544C83.4882 51.6526 83.5759 51.9047 83.5763 52.1713C83.5819 55.3276 83.7152 58.4851 83.5111 61.6376C83.1943 62.347 82.8017 61.8626 82.4982 61.6563C81.7419 61.1419 80.9522 60.8128 80.0156 60.8099C78.1401 60.8041 76.5099 61.8717 75.9484 63.5282C75.3567 65.2732 75.9121 67.0739 77.3901 68.2026C78.8159 69.2916 80.732 69.3045 82.2876 68.2605C82.6323 68.029 82.8743 67.6103 83.3666 67.6239C83.6479 67.7386 83.7114 67.9981 83.7642 68.2508C83.9566 69.1718 84.1855 70.0802 84.5056 70.9679C84.5963 71.2206 84.8417 71.6241 84.2613 71.6947Z" fill="#FBDA35"/>
<path d="M87.0396 48.6129C83.1063 48.6236 79.173 48.6391 75.2398 48.644C71.0083 48.6494 66.7769 48.6466 62.5455 48.6428C62.1886 48.6424 61.8229 48.6974 61.4023 48.5361C61.4023 47.3031 61.4023 46.0655 61.4023 44.8325C61.5918 44.6137 61.8389 44.6814 62.0595 44.6814C70.2579 44.6778 78.4562 44.6786 86.6546 44.6802C86.7863 44.6802 86.918 44.6986 87.0497 44.7084C87.5379 46.0112 87.5677 47.3126 87.0396 48.6129Z" fill="#DC6E1F"/>
<path d="M52.2282 89.419C51.0531 89.419 49.9465 89.419 48.7764 89.419C48.7764 81.5278 48.7764 73.6813 48.7764 65.7524C49.8927 65.7524 51.027 65.7524 52.2282 65.7524C52.2282 73.6031 52.2282 81.4489 52.2282 89.419Z" fill="#DC6E1F"/>
<path d="M92.8202 98.0177C93.812 96.772 93.954 95.3964 93.3851 93.9462C93.0874 93.1869 92.8545 92.3952 92.4094 91.6984C91.9638 90.8008 91.5078 89.9076 91.2801 88.9215C90.6334 86.7249 89.6168 84.6703 88.8256 82.5292C87.9407 80.1348 86.8053 77.8368 86.0801 75.3809C87.5981 75.9984 88.8323 77.0399 90.0836 78.0569C90.3571 78.2793 90.441 78.6058 90.5614 78.9075C92.596 84.0095 94.5606 89.1407 96.6866 94.2041C97.5657 96.298 96.2161 98.3282 94.0038 98.054C93.6138 98.0058 93.2149 98.0283 92.8202 98.0177Z" fill="#F4B855"/>
<path d="M84.2615 71.6947C84.3163 71.6191 84.4355 71.5128 84.4162 71.4725C83.8454 70.275 83.7023 68.9544 83.3209 67.7035C83.142 67.3776 83.3786 67.136 83.5083 66.8892C84.1861 65.6003 84.1996 64.3143 83.5504 63.0117C83.3925 62.6947 83.1707 62.3843 83.2802 61.9919C83.2836 58.4793 83.2872 54.967 83.2906 51.4544C84.3718 51.4544 85.4529 51.4544 86.5121 51.4544C86.7311 51.8567 86.6393 52.2262 86.6399 52.5793C86.6472 56.8435 86.6855 61.1082 86.629 65.3716C86.5964 67.8251 86.9757 70.1667 87.9762 72.4092C88.0768 72.6345 88.239 72.866 88.1643 73.2467C86.9029 72.5726 85.5947 72.1 84.2615 71.6947Z" fill="#F4B855"/>
<path d="M29.3089 89.4248C28.1588 89.4248 27.0789 89.4248 25.9082 89.4248C25.9082 83.3908 25.9082 77.3692 25.9082 71.2819C27.0256 71.2819 28.1292 71.2819 29.3089 71.2819C29.3089 77.3166 29.3089 83.3113 29.3089 89.4248Z" fill="#42EE42"/>
<path d="M61.279 41.8784C61.5284 41.5257 61.4696 41.121 61.4698 40.7279C61.4708 34.3827 61.4706 28.0376 61.4704 21.6924C61.4704 21.4941 61.4841 21.2941 61.4627 21.0979C61.3348 19.933 61.0783 19.7035 59.9169 19.7035C41.7736 19.7031 23.6304 19.7035 5.48719 19.7017C5.09126 19.7017 4.69553 19.6793 4.2998 19.6674C4.58822 19.4289 4.93277 19.5239 5.25293 19.5239C23.9573 19.5235 42.6619 19.5271 61.3663 19.5356C63.1978 19.5364 63.8107 20.1593 63.8117 21.9842C63.8151 28.2962 63.8141 34.6081 63.8091 40.9201C63.8089 41.2093 63.8821 41.512 63.6822 41.8786C62.909 41.8784 62.0939 41.8784 61.279 41.8784Z" fill="#B5DAFD"/>
<path d="M37.3271 89.3202C37.3271 85.6597 37.3271 81.999 37.3271 78.272C38.29 78.1631 39.2677 78.2059 40.2454 78.245C40.5652 78.5546 40.5392 78.9585 40.5396 79.3512C40.5432 82.3064 40.5497 85.2616 40.5368 88.2166C40.5319 89.3466 40.4414 89.4329 39.2772 89.4099C38.6274 89.397 37.9682 89.5321 37.3271 89.3202Z" fill="#FBDA35"/>
<path d="M17.9484 89.4234C16.7699 89.5051 15.6615 89.4992 14.4951 89.4313C14.4951 87.0461 14.4951 84.7133 14.4951 82.3021C15.6218 82.3021 16.754 82.3021 17.9484 82.3021C17.9484 84.6552 17.9484 86.9859 17.9484 89.4234Z" fill="#FD5370"/>
<path d="M87.04 48.6129C87.0434 47.3115 87.0468 46.0098 87.0502 44.7084C88.0606 44.681 89.0716 44.6348 90.1446 44.7443C90.1446 46.017 90.1446 47.2484 90.1446 48.5921C89.1121 48.7004 88.0761 48.6573 87.04 48.6129Z" fill="#BE4400"/>
<path d="M61.4751 69.8862C61.4723 63.743 61.4696 57.5998 61.4668 51.4564C61.6578 51.4288 61.8516 51.3721 62.1166 51.572C62.0535 56.9405 62.2303 62.3729 62.0089 67.8035C61.9802 68.509 61.8415 69.2406 61.4751 69.8862Z" fill="#B5DAFE"/>
<path d="M37.3271 89.3203C38.2432 89.3203 39.1592 89.3203 40.2454 89.3203C40.2454 85.5758 40.2454 81.9105 40.2454 78.245C40.4083 78.245 40.5711 78.245 40.7925 78.245C40.7925 81.9494 40.7925 85.6508 40.7925 89.4758C39.6261 89.3859 38.4737 89.6702 37.3271 89.3203Z" fill="#FCC92F"/>
<path d="M76.7395 11.3676C75.4777 11.9696 73.4267 11.1726 72.5666 9.94495C71.5541 8.4999 71.5551 6.69621 72.5666 5.24917C73.3987 4.05861 75.4232 3.21796 76.7399 3.82633C78.9353 5.55385 78.9302 9.64523 76.7395 11.3676Z" fill="#DC6E1F"/>
<path d="M53.9305 10.5585C52.6011 10.8034 51.6081 10.2538 50.9112 9.17588C50.2471 8.14877 50.2469 7.0443 50.9114 6.01739C51.6087 4.9399 52.602 4.39084 53.9311 4.63522C55.6861 5.992 55.6858 9.20187 53.9305 10.5585Z" fill="#43EF43"/>
<path d="M76.1464 32.8109C74.7561 33.2402 72.9939 31.9724 72.7656 30.3786C72.4654 28.2849 73.9746 26.7217 76.1526 26.8698C77.9213 28.2012 77.918 31.4809 76.1464 32.8109Z" fill="#FBDA35"/>
<path d="M76.7402 11.3676C77.4387 10.1796 78.166 9.02356 78.1494 7.54737C78.1331 6.11203 77.4192 4.98634 76.7406 3.82632C78.5154 4.21253 79.7242 5.7403 79.724 7.59715C79.7238 9.45401 78.5136 10.9834 76.7402 11.3676Z" fill="#F4B855"/>
<path d="M76.1465 32.811C77.5695 30.8321 77.5487 28.8517 76.1526 26.8701C77.8401 27.1656 78.8759 28.3929 78.8025 30.0093C78.7339 31.5212 77.6616 32.6523 76.1465 32.811Z" fill="#FBC52E"/>
<path d="M53.9307 10.5585C54.9364 9.20406 55.202 7.72151 54.7289 6.09813C54.5682 5.54709 54.1403 5.15334 53.9313 4.63522C55.4065 4.64554 56.5629 6.32843 56.5633 7.59734C56.5635 8.86942 55.4079 10.545 53.9307 10.5585Z" fill="#2DD42D"/>
<path d="M20.4393 30.9412C20.4393 32.1946 20.4538 33.4482 20.4348 34.7015C20.4191 35.7359 19.9633 36.2626 18.9443 36.2775C16.4049 36.3143 13.8643 36.3132 11.3249 36.2814C10.2714 36.2683 9.77787 35.733 9.76776 34.6447C9.74494 32.171 9.74296 29.6967 9.76855 27.2229C9.78045 26.0821 10.2752 25.6219 11.4318 25.6156C13.9058 25.6019 16.3797 25.6001 18.8537 25.6168C19.9498 25.6241 20.4181 26.096 20.4348 27.1806C20.4542 28.4339 20.4393 29.6877 20.4393 30.9412Z" fill="#6E0605"/>
<path d="M20.44 43.3008C20.44 44.4882 20.4497 45.6756 20.4372 46.8626C20.4249 48.0438 19.9963 48.5245 18.8575 48.5352C16.3512 48.5586 13.8443 48.5592 11.338 48.5342C10.2603 48.5235 9.77931 48.0305 9.7684 46.9288C9.744 44.4555 9.7438 41.9817 9.7682 39.5084C9.77951 38.3597 10.2613 37.8957 11.4203 37.887C13.8937 37.8683 16.3674 37.8667 18.8408 37.8878C19.9889 37.8975 20.4243 38.3696 20.4368 39.5411C20.4505 40.7943 20.44 42.0476 20.44 43.3008Z" fill="#6E0605"/>
<path d="M20.4396 55.4101C20.4392 56.6993 20.4561 57.9888 20.4341 59.2776C20.4164 60.3148 19.9517 60.7901 18.9085 60.7982C16.3633 60.818 13.8178 60.8192 11.2726 60.798C10.3084 60.7899 9.78767 60.3011 9.77517 59.3283C9.74225 56.7505 9.74225 54.1716 9.77934 51.5937C9.79243 50.6778 10.3123 50.1821 11.2224 50.1722C13.8005 50.1445 16.3792 50.1441 18.9573 50.1698C19.9806 50.18 20.4202 50.6761 20.4359 51.7411C20.4537 52.964 20.44 54.1872 20.4396 55.4101Z" fill="#6E0605"/>
<path d="M41.4213 51.5181C45.8493 51.5181 50.2773 51.5179 54.7055 51.5187C55.0026 51.5187 55.3028 51.5036 55.5967 51.5376C56.4054 51.6308 56.9012 52.1483 56.9146 52.8819C56.9291 53.6686 56.4279 54.189 55.5521 54.2777C55.2901 54.3041 55.0241 54.2958 54.7599 54.2958C45.8707 54.2966 36.9816 54.297 28.0925 54.2944C27.763 54.2944 27.4282 54.2948 27.1052 54.2402C26.3836 54.1182 26.0016 53.6352 25.9849 52.9358C25.9682 52.2314 26.3431 51.7359 27.0535 51.5877C27.4044 51.5146 27.7753 51.5213 28.1373 51.5209C32.5651 51.5167 36.9933 51.5181 41.4213 51.5181Z" fill="#DC6E1F"/>
<path d="M41.436 29.7639C36.9747 29.7639 32.5131 29.7645 28.0518 29.7625C27.7553 29.7623 27.4522 29.7766 27.1632 29.7236C26.4025 29.5842 25.9161 28.9611 25.9768 28.252C26.0351 27.5702 26.5405 27.0789 27.286 27.0059C27.5809 26.977 27.88 26.9869 28.1774 26.9869C37.034 26.9861 45.8908 26.9859 54.7474 26.9873C55.0774 26.9873 55.4119 26.9736 55.737 27.0194C56.4543 27.1208 56.8585 27.5665 56.9053 28.2778C56.9525 28.9955 56.5901 29.489 55.8986 29.6725C55.5553 29.7635 55.1808 29.7597 54.8202 29.7603C50.3586 29.7659 45.8973 29.7639 41.436 29.7639Z" fill="#DC6E1F"/>
<path d="M41.3791 42.0466C36.9511 42.0466 32.5231 42.0464 28.0951 42.047C27.6984 42.047 27.2989 42.0678 26.9176 41.9313C26.2807 41.7036 25.9441 41.2301 25.9859 40.5702C26.0301 39.872 26.4197 39.4024 27.1457 39.3001C27.4381 39.2588 27.739 39.2697 28.036 39.2697C36.9911 39.2683 45.9463 39.2682 54.9015 39.2691C56.2989 39.2693 56.8978 39.6714 56.9152 40.6095C56.9331 41.5666 56.2585 42.0446 54.8614 42.0454C50.3672 42.0484 45.8731 42.0466 41.3791 42.0466Z" fill="#DC6E1F"/>
<path d="M41.5363 32.1436C45.9647 32.1436 50.3929 32.143 54.8213 32.145C55.1513 32.1452 55.4867 32.1307 55.8101 32.1827C56.4373 32.2837 56.8047 32.6937 56.8977 33.3054C56.9985 33.968 56.7112 34.467 56.111 34.76C55.746 34.9381 55.3421 34.9231 54.9436 34.9229C45.9549 34.9209 36.966 34.9213 27.9773 34.9211C27.8121 34.9211 27.6461 34.9288 27.4818 34.9153C26.5555 34.8399 25.981 34.3079 25.9737 33.526C25.966 32.7014 26.5644 32.1528 27.5578 32.1488C30.8625 32.1357 34.1672 32.1436 37.4719 32.1434C38.8265 32.1436 40.1813 32.1436 41.5363 32.1436Z" fill="#DC6E1F"/>
<path d="M41.5368 59.4343C37.0757 59.4343 32.6146 59.4349 28.1534 59.4331C27.8234 59.4329 27.4897 59.443 27.164 59.4004C26.439 59.3056 26.0367 58.841 25.9887 58.1436C25.9403 57.4394 26.2964 56.9326 26.9982 56.7515C27.3122 56.6705 27.651 56.6602 27.9785 56.66C36.9668 56.6555 45.9551 56.6559 54.9436 56.659C55.2391 56.6592 55.5428 56.663 55.8287 56.7277C56.5525 56.8915 56.9817 57.4656 56.9078 58.1678C56.8328 58.8787 56.4305 59.3143 55.7116 59.4043C55.3855 59.4452 55.0521 59.4331 54.722 59.4333C50.327 59.4347 45.9319 59.4343 41.5368 59.4343Z" fill="#DC6E1F"/>
<path d="M41.3576 47.1848C36.9628 47.1848 32.5677 47.1869 28.1728 47.181C27.7787 47.1804 27.3717 47.181 26.993 47.0887C26.2892 46.917 25.9433 46.3992 25.9871 45.6957C26.0278 45.0421 26.3943 44.5813 27.0698 44.4619C27.3919 44.4049 27.7273 44.4087 28.0568 44.4087C36.9788 44.4061 45.9011 44.4061 54.8231 44.4085C55.1526 44.4085 55.488 44.4024 55.8104 44.4581C56.4814 44.5743 56.8565 45.0129 56.9041 45.6784C56.9549 46.3901 56.6203 46.9043 55.9199 47.0842C55.5432 47.181 55.135 47.1804 54.741 47.181C50.2797 47.1869 45.8188 47.1848 41.3576 47.1848Z" fill="#DC6E1F"/>
<path d="M79.8778 87.3829C77.3142 87.3696 75.3133 85.3431 75.3252 82.7722C75.3371 80.2191 77.3791 78.197 79.9345 78.2075C82.4771 78.218 84.5028 80.2704 84.4943 82.8277C84.4855 85.3754 82.4379 87.3961 79.8778 87.3829Z" fill="#6E0605"/>
<path d="M91.2791 88.9215C91.9962 89.7086 92.3205 90.6556 92.4084 91.6984C92.0889 92.0743 92.2386 92.5755 92.0365 93.0036C91.1752 94.8279 89.0069 95.6219 87.1981 94.7271C85.3801 93.8276 84.669 91.6268 85.6211 89.8465C86.579 88.0555 88.7971 87.4116 90.5452 88.4236C90.8005 88.5714 91.035 88.7547 91.2791 88.9215Z" fill="#6E0605"/>
<path d="M65.06 83.0862C65.3008 81.9103 65.7525 81.4001 66.5356 81.4188C67.2965 81.437 67.7385 81.9486 67.9358 83.0392C69.3087 83.472 69.6987 83.8489 69.6447 84.6903C69.5941 85.4794 69.1629 85.8319 67.9936 86.0402C67.6778 87.3126 67.2576 87.7713 66.444 87.7316C65.6737 87.6941 65.3095 87.2631 65.0537 86.0868C63.7847 85.767 63.3319 85.3546 63.3607 84.5453C63.3882 83.7654 63.822 83.3928 65.06 83.0862Z" fill="#6E0605"/>
<path d="M83.2795 61.9919C84.576 63.8867 84.6605 65.7899 83.3202 67.7035C81.3541 69.5858 78.9458 69.8285 77.0925 68.3313C75.2221 66.8204 74.8903 64.1019 76.3466 62.2191C77.8502 60.2749 80.5501 59.8974 82.5238 61.3609C82.787 61.5561 83.0282 61.7809 83.2795 61.9919Z" fill="#6E0605"/>
<path d="M67.1603 56.9587C67.1804 54.9033 68.7778 53.3452 70.8439 53.3658C72.8936 53.3862 74.4604 54.9937 74.4366 57.0517C74.4132 59.0901 72.7662 60.7079 70.7501 60.6732C68.7161 60.6381 67.1405 59.0078 67.1603 56.9587Z" fill="#6E0605"/>
<path d="M12.5859 33.4501C12.5859 31.7517 12.5859 30.122 12.5859 28.4415C14.2708 28.4415 15.9005 28.4415 17.5902 28.4415C17.5902 30.1119 17.5902 31.744 17.5902 33.4501C15.9595 33.4501 14.3301 33.4501 12.5859 33.4501Z" fill="#6EBEFA"/>
<path d="M12.5947 40.7227C14.252 40.7227 15.8585 40.7227 17.5535 40.7227C17.5535 42.3471 17.5535 43.9711 17.5535 45.6718C15.9238 45.6718 14.2945 45.6718 12.5947 45.6718C12.5947 44.0326 12.5947 42.4044 12.5947 40.7227Z" fill="#43EF43"/>
<path d="M17.5876 57.9813C15.9099 57.9813 14.3004 57.9813 12.6104 57.9813C12.6104 56.3341 12.6104 54.7065 12.6104 53.0129C14.2643 53.0129 15.8956 53.0129 17.5876 53.0129C17.5876 54.6546 17.5876 56.2591 17.5876 57.9813Z" fill="#FE5370"/>
<path d="M79.9484 80.9871C80.9407 81.0099 81.7284 81.843 81.7068 82.8467C81.6852 83.8532 80.8711 84.6246 79.8543 84.602C78.8332 84.5794 78.0824 83.7861 78.105 82.7539C78.1272 81.7428 78.9399 80.9639 79.9484 80.9871Z" fill="#FCFDFD"/>
<path d="M88.7595 92.316C88.2706 92.2791 87.9976 92.0012 87.999 91.5004C88.0004 91.0364 88.2948 90.7571 88.7274 90.7315C89.2217 90.7024 89.5482 91.0192 89.5631 91.4994C89.5778 91.9762 89.2923 92.2837 88.7595 92.316Z" fill="#F2F3F5"/>
<path d="M79.9023 63.2676C80.8173 63.2874 81.5135 64.0225 81.482 64.9356C81.4503 65.8558 80.7219 66.5457 79.8102 66.5189C78.9176 66.4925 78.1872 65.7252 78.2146 64.8423C78.2426 63.9434 78.988 63.2477 79.9023 63.2676Z" fill="#76E8FD"/>
<path d="M70.8108 57.8874C70.2617 57.8212 69.9356 57.5492 69.9445 56.998C69.9532 56.4519 70.2593 56.1478 70.8084 56.1514C71.3634 56.155 71.6542 56.4805 71.6542 57.018C71.6544 57.5687 71.3082 57.826 70.8108 57.8874Z" fill="#75E5FA"/>
</g>
<defs>
<clipPath id="clip0_723_220">
<rect width="99.6311" height="100" fill="white" transform="translate(0.144531 0.833252)"/>
</clipPath>
</defs>
</svg>
