<svg width="106" height="101" viewBox="0 0 106 101" fill="none" xmlns="http://www.w3.org/2000/svg">
<g clip-path="url(#clip0_723_323)">
<path d="M86.6784 31.2548C87.7506 31.2548 88.7026 31.2348 89.6535 31.2595C91.1311 31.2978 92.0525 32.1397 92.0657 33.4233C92.0796 34.7654 91.1452 35.6153 89.5982 35.6312C88.0529 35.6471 86.5074 35.6376 84.9621 35.6329C84.5562 35.6318 84.2159 35.6323 83.9227 36.0474C81.1795 39.9304 77.6634 43.0612 74.0433 46.0823C68.2841 50.8882 62.2878 55.4126 56.8466 60.5947C56.1006 61.3051 55.387 62.0508 54.6225 62.7402C53.6236 63.6408 52.4814 63.7088 51.5579 62.7847C44.9356 56.1586 37.3889 50.6156 30.2845 44.5556C28.0436 42.6441 25.8963 40.6302 24.0143 38.3554C23.6734 37.9433 23.308 37.8091 22.7882 37.8132C19.9553 37.835 17.1218 37.82 14.2886 37.8258C13.6097 37.8273 12.9635 37.7346 12.4351 37.2677C11.7342 36.6483 11.5016 35.8705 11.7665 34.9762C12.0333 34.0768 12.8202 33.4739 13.8446 33.4568C15.8677 33.4236 17.8919 33.4447 19.9155 33.4418C20.0618 33.4415 20.2081 33.4277 20.4619 33.4144C19.6538 31.7311 18.8707 30.0881 18.4206 28.3189C16.634 21.2974 17.4474 14.7811 22.4564 9.24423C26.7023 4.55109 32.0908 2.62785 38.4028 3.10388C44.2874 3.54752 48.5972 6.49052 51.8372 11.2461C52.2462 11.8463 52.6398 12.4569 53.0545 13.0845C59.6259 1.65372 70.6234 1.61721 77.5542 4.7342C80.7851 6.1873 83.3777 8.42642 85.3546 11.3568C87.3296 14.2848 88.4086 17.5213 88.5346 21.0645C88.6588 24.558 88.0653 27.9276 86.6784 31.2548Z" fill="#6E0605"/>
<path d="M74.6947 96.5075C76.484 96.5075 78.1325 96.5075 79.7811 96.5075C80.1859 96.5075 80.591 96.4969 80.9952 96.5105C82.4559 96.5593 83.4124 97.4237 83.4059 98.6786C83.3995 99.938 82.4445 100.821 80.9778 100.824C74.6517 100.839 68.3256 100.831 61.9995 100.831C53.063 100.831 44.1265 100.831 35.1898 100.831C31.9907 100.831 28.7918 100.832 25.5927 100.83C25.225 100.83 24.855 100.839 24.4902 100.801C23.3562 100.683 22.5164 99.7611 22.5193 98.6624C22.5222 97.5599 23.3515 96.5964 24.5044 96.552C26.341 96.4813 28.1819 96.5166 30.0212 96.5078C30.3812 96.506 30.7413 96.5075 31.003 96.5075C31.2771 96.2287 31.2276 95.9976 31.2279 95.783C31.2308 92.8029 31.2438 89.8231 31.2255 86.843C31.212 84.6222 30.2455 83.5362 28.0562 83.4611C21.7212 83.2441 16.6457 80.5964 12.5542 75.8014C9.33186 72.0247 5.95964 68.376 2.66867 64.6576C0.584988 62.3034 0.207876 59.3145 1.63949 56.8104C3.81826 52.9986 9.03188 52.4163 12.0835 55.6696C13.3665 57.0374 14.6338 58.4257 15.8225 59.875C19.3808 64.2131 23.9533 66.1145 29.5408 66.1192C37.1086 66.1254 42.7241 69.6584 46.4131 76.225C47.8373 78.7603 48.5518 81.5314 48.5753 84.4505C48.6042 88.0188 48.5912 91.5877 48.5962 95.156C48.5968 95.5558 48.5962 95.9558 48.5962 96.4316C51.5113 96.4316 54.3571 96.4316 57.1983 96.4316C57.4235 96.1092 57.3231 95.7683 57.324 95.4504C57.3322 92.1026 57.3914 88.7533 57.3178 85.407C57.0732 74.2826 67.9234 65.7516 76.7271 66.0666C82.0567 66.257 86.4508 64.2107 89.8925 60.114C91.0986 58.6783 92.3701 57.297 93.6236 55.9013C96.1606 53.0764 100.127 52.7499 102.897 55.1291C105.623 57.471 105.923 61.5789 103.454 64.4121C99.7089 68.7102 95.9454 72.9956 92.0748 77.18C88.5613 80.9782 84.1348 83.0216 78.9545 83.3819C78.7711 83.3946 78.5871 83.4231 78.4043 83.419C75.5405 83.3554 74.5975 84.9012 74.6741 87.4106C74.7639 90.3831 74.6947 93.3611 74.6947 96.5075Z" fill="#6E0605"/>
<path d="M9.51153 13.8676C5.90851 13.8864 2.99495 10.9964 2.98052 7.38958C2.96639 3.79657 5.87201 0.855627 9.45795 0.833253C13.0153 0.811174 15.9887 3.76036 16.0131 7.33483C16.0378 10.9031 13.106 13.8485 9.51153 13.8676Z" fill="#6E0605"/>
<path d="M97.5819 87.7762C94.5526 87.7954 92.0792 85.3622 92.0801 82.3642C92.081 79.4156 94.5194 76.9583 97.47 76.9327C100.494 76.9062 102.947 79.3387 102.947 82.3627C102.947 85.3611 100.572 87.7574 97.5819 87.7762Z" fill="#6E0605"/>
<path d="M16.0114 91.0228C16.0429 93.9566 13.6322 96.4265 10.6612 96.5043C7.70438 96.5817 5.15762 94.0923 5.12818 91.0963C5.09904 88.1151 7.60428 85.6004 10.5876 85.6166C13.5442 85.6331 15.9796 88.0603 16.0114 91.0228Z" fill="#6E0605"/>
<path d="M82.1524 55.1818C79.1659 55.062 76.7857 52.5726 76.8652 49.6517C76.9468 46.6481 79.5218 44.1932 82.4645 44.313C85.497 44.4366 87.8809 46.9946 87.7314 49.9644C87.5804 52.971 85.0901 55.2996 82.1524 55.1818Z" fill="#6E0605"/>
<path d="M24.6955 90.0068C24.6769 91.1829 23.6645 92.1682 22.4949 92.1482C21.3268 92.1282 20.3276 91.1002 20.348 89.9394C20.3683 88.773 21.4025 87.7701 22.5609 87.7927C23.7328 87.8163 24.714 88.8337 24.6955 90.0068Z" fill="#6E0605"/>
<path d="M96.421 9.56572C97.6238 9.556 98.613 10.5092 98.6259 11.6909C98.6389 12.8638 97.655 13.8497 96.4613 13.86C95.2584 13.8703 94.2787 12.92 94.2657 11.7307C94.2531 10.5434 95.2169 9.57543 96.421 9.56572Z" fill="#6E0605"/>
<path d="M24.713 53.0478C25.9194 53.054 26.8911 54.0184 26.8829 55.2022C26.8747 56.3903 25.897 57.3394 24.6876 57.3332C23.4818 57.3271 22.5118 56.3626 22.5186 55.1771C22.5257 53.9905 23.5033 53.0419 24.713 53.0478Z" fill="#6E0605"/>
<path d="M63.8051 63.8619C63.8154 65.068 62.8681 66.0533 61.6823 66.0704C60.5091 66.0872 59.5241 65.1075 59.5109 63.9105C59.4976 62.7091 60.4476 61.7255 61.6349 61.7111C62.8251 61.697 63.7948 62.6578 63.8051 63.8619Z" fill="#6E0605"/>
<path d="M92.0663 89.9318C92.0848 91.1444 91.156 92.1235 89.9617 92.1497C88.7832 92.1759 87.7911 91.2091 87.7708 90.0145C87.7505 88.814 88.6946 87.8187 89.8784 87.793C91.06 87.7674 92.048 88.7333 92.0663 89.9318Z" fill="#6E0605"/>
<path d="M7.26865 33.4513C8.44562 33.4253 9.4486 34.3962 9.46979 35.582C9.49099 36.764 8.52628 37.7776 7.35137 37.807C6.19472 37.8362 5.16524 36.8411 5.13728 35.6668C5.1099 34.5002 6.09404 33.4772 7.26865 33.4513Z" fill="#6E0605"/>
<path d="M44.2644 63.8595C44.2791 65.0294 43.287 66.0501 42.1189 66.0669C40.954 66.0836 39.9463 65.0904 39.9328 63.9119C39.9192 62.722 40.8836 61.7255 42.0635 61.7105C43.2334 61.6955 44.2497 62.6876 44.2644 63.8595Z" fill="#6E0605"/>
<path d="M98.6397 44.341C98.6306 43.1346 99.5756 42.164 100.768 42.1546C101.967 42.1448 102.929 43.0972 102.937 44.3024C102.945 45.5123 102.01 46.4659 100.806 46.4747C99.5944 46.4832 98.6491 45.5518 98.6397 44.341Z" fill="#6E0605"/>
<path d="M53.0268 39.9399C51.6055 34.2632 50.1886 28.6041 48.7723 22.9448C48.7455 22.8379 48.7335 22.7272 48.7058 22.6207C48.3193 21.1328 47.6239 20.4437 46.4823 20.4136C45.3895 20.3848 44.6733 21.0051 44.1993 22.4228C43.0706 25.7989 41.9287 29.1708 40.8445 32.5613C40.6281 33.2381 40.336 33.4645 39.6221 33.4589C35.2455 33.4247 30.8685 33.4406 26.4918 33.4433C26.05 33.4436 25.6528 33.4654 25.3514 32.9955C22.0351 27.8299 20.7501 22.331 22.9907 16.4326C25.3361 10.259 31.9545 6.59474 38.5011 7.43787C42.7615 7.98661 45.8458 10.1854 48.1974 13.6315C49.2142 15.1217 50.1162 16.6787 50.9196 18.2914C51.3594 19.174 51.9426 19.8037 53.0095 19.8216C54.1282 19.8405 54.7446 19.1887 55.2041 18.2728C56.0947 16.4971 57.1289 14.8097 58.2425 13.1614C62.8833 6.29329 71.2377 6.26003 76.2918 8.97782C81.7818 11.9297 84.4172 16.624 84.1684 22.9012C84.0648 25.5119 83.4225 27.9671 82.3315 30.3331C82.007 31.0364 81.6061 31.2733 80.8313 31.2704C73.2546 31.2401 65.6779 31.2513 58.1012 31.2527C56.1209 31.253 55.5657 31.6587 55.0201 33.5328C54.4767 35.4004 53.9489 37.2724 53.419 39.1441C53.3392 39.4238 53.3133 39.7241 53.0268 39.9399Z" fill="#E32E44"/>
<path d="M78.6846 35.6904C77.3396 37.2883 75.9913 38.5813 74.6059 39.8342C69.9957 44.0048 65.0123 47.7265 60.2665 51.7348C57.8231 53.7985 55.4462 55.9352 53.031 58.1955C45.6863 50.9312 37.1049 45.1482 29.5947 38.0578C29.933 37.699 30.2792 37.8353 30.5759 37.8344C34.2166 37.8229 37.8576 37.8306 41.4986 37.8253C43.1787 37.8229 43.7984 37.3737 44.3359 35.7834C44.8953 34.1292 45.4449 32.4715 46.2032 30.8132C46.3207 31.2127 46.4526 31.6087 46.5536 32.0123C47.9546 37.6004 49.35 43.1896 50.7507 48.7777C51.0842 50.1083 51.8929 50.8546 52.9715 50.8496C54.0081 50.8449 54.8073 50.129 55.1674 48.8696C56.3479 44.7416 57.5393 40.617 58.6903 36.4808C58.8684 35.8411 59.1337 35.6159 59.8149 35.6191C65.8828 35.6471 71.9511 35.6353 78.0193 35.6371C78.1609 35.6374 78.3025 35.6592 78.6846 35.6904Z" fill="#CB2340"/>
<path d="M44.2082 96.443C41.2894 96.443 38.4723 96.443 35.5526 96.443C35.5526 94.6935 35.5544 93.0095 35.552 91.3256C35.5497 89.5593 35.5829 87.7921 35.5314 86.0272C35.4231 82.3126 32.3803 79.2083 28.6786 79.1447C23.503 79.0558 19.3288 77.0242 15.9663 73.1021C12.7578 69.3598 9.4315 65.7188 6.15731 62.0328C5.98627 61.8403 5.80404 61.656 5.65037 61.4505C4.91086 60.4634 4.99948 59.222 5.85409 58.4654C6.75491 57.6682 8.04228 57.7109 8.91396 58.6526C10.2882 60.1375 11.6291 61.6539 12.9544 63.1827C17.158 68.0307 22.455 70.4638 28.875 70.3917C32.6122 70.3496 35.9989 71.3264 38.8989 73.7395C42.3468 76.6089 44.1488 80.3232 44.2583 84.7899C44.3492 88.5042 44.2815 92.2224 44.2806 95.939C44.2806 96.08 44.2415 96.221 44.2082 96.443Z" fill="#FFEADB"/>
<path d="M70.3731 96.4521C67.4328 96.4521 64.6178 96.4521 61.8226 96.4521C61.7605 96.3615 61.6851 96.3029 61.6851 96.2443C61.6792 92.2751 61.507 88.2964 61.7219 84.3386C62.0034 79.1589 64.9199 75.4772 69.1249 72.7203C71.5836 71.1085 74.2903 70.3593 77.2518 70.3826C83.5826 70.4323 88.8015 67.98 92.9492 63.208C94.2271 61.7375 95.5283 60.2865 96.8331 58.8396C97.8042 57.7624 99.0763 57.6152 100.041 58.4392C100.996 59.255 101.043 60.5938 100.088 61.6728C96.408 65.8292 92.7475 70.0037 89.0064 74.1045C86.006 77.3934 82.1866 78.9867 77.7514 79.1126C73.3573 79.2375 70.4017 82.2229 70.3766 86.6149C70.3584 89.8487 70.3731 93.0829 70.3731 96.4521Z" fill="#FFEADB"/>
<path d="M9.44495 9.5563C8.32098 9.53628 7.26177 8.44262 7.29062 7.33219C7.32005 6.19762 8.39163 5.16343 9.51472 5.18521C10.6437 5.207 11.6788 6.27592 11.6614 7.40196C11.6443 8.5277 10.5651 9.57631 9.44495 9.5563Z" fill="#4F5866"/>
<path d="M98.6364 82.2906C98.551 82.9892 98.1928 83.4258 97.513 83.4178C96.9013 83.4107 96.483 83.0457 96.4682 82.398C96.4523 81.6933 96.8495 81.3447 97.5504 81.3256C98.239 81.3067 98.4883 81.7542 98.6364 82.2906Z" fill="#4E5664"/>
<path d="M11.6529 91.1841C11.5307 91.6866 11.2089 92.0928 10.5839 92.1402C10.0384 92.1817 9.46054 91.5659 9.48409 91.0204C9.50794 90.4696 10.1285 89.9203 10.6643 89.9756C11.1698 90.0277 11.6779 90.6038 11.6529 91.1841Z" fill="#4E5664"/>
<path d="M83.4409 49.7259C83.284 50.3857 82.9563 50.8384 82.3363 50.8334C81.6748 50.8278 81.2409 50.3989 81.2491 49.7224C81.2568 49.0962 81.6642 48.6994 82.2925 48.692C82.9878 48.6841 83.2748 49.1854 83.4409 49.7259Z" fill="#4E5664"/>
</g>
<defs>
<clipPath id="clip0_723_323">
<rect width="104.353" height="100" fill="white" transform="translate(0.783203 0.833252)"/>
</clipPath>
</defs>
</svg>
