<svg width="231" height="121" viewBox="0 0 231 121" fill="none" xmlns="http://www.w3.org/2000/svg">
<rect x="0.583984" y="0.713623" width="230" height="120" rx="7" fill="#E2F8E2"/>
<g clip-path="url(#clip0_0_1)">
<path d="M40.2418 25.7799C42.55 26.5199 42.9519 28.3176 42.7035 30.404C52.9522 30.404 63.0906 30.404 73.2757 30.404C73.2757 29.8366 73.2624 29.3162 73.2785 28.797C73.3173 27.5402 73.9164 26.5844 75.0378 26.0781C76.1302 25.5849 77.4307 25.8785 77.4591 25.8857C79.0875 26.3008 79.9431 27.3832 79.9642 29.0671C79.9699 29.5147 79.9651 29.9624 79.9651 30.4523C81.3759 30.4523 82.7139 30.4529 84.052 30.4521C84.8557 30.4516 85.6489 30.5456 86.3773 30.8952C88.5069 31.9177 89.4622 33.6355 89.4603 35.9865C89.4465 54.0577 89.4527 72.1292 89.4525 90.2006C89.4525 90.3599 89.452 90.5193 89.4465 90.6785C89.3461 93.5464 87.1807 95.7051 84.3166 95.7069C66.7688 95.718 49.221 95.7123 31.673 95.7125C30.9343 95.7125 30.2188 95.5767 29.5586 95.2519C27.4918 94.2355 26.5388 92.5565 26.54 90.2601C26.5506 72.1434 26.5459 54.0264 26.5464 35.9097C26.5464 35.7049 26.5517 35.5001 26.5617 35.2955C26.6797 32.895 28.493 30.8941 30.8677 30.5421C32.091 30.3607 33.3221 30.4977 34.5488 30.4498C35.0376 30.4306 35.5348 30.5243 36.0334 30.3824C36.0334 29.8755 36.0148 29.3978 36.0369 28.9223C36.0994 27.5793 36.7084 26.5924 37.9565 26.0274C38.0885 25.9677 39.3863 25.5556 40.2418 25.7799ZM40.6983 46.008C40.5652 46.9143 40.3022 47.145 39.3371 47.1465C36.0143 47.1514 32.6915 47.1467 29.3686 47.152C29.1258 47.1523 28.8696 47.0817 28.6201 47.2359C28.611 47.3399 28.5926 47.4516 28.5926 47.563C28.5915 60.5129 28.5864 73.463 28.5979 86.4129C28.5995 88.3225 29.917 89.5662 31.8675 89.5666C44.9996 89.5697 58.1316 89.5691 71.2636 89.5671C72.9075 89.567 73.8434 88.6301 73.8469 86.9886C73.8514 84.8947 73.8454 82.8009 73.8487 80.7072C73.8531 77.8482 75.6656 76.0284 78.5358 76.0135C80.5386 76.0031 82.5438 75.9516 84.5435 76.0301C86.1748 76.094 87.443 75.1723 87.4298 73.1592C87.375 64.7387 87.4067 56.3177 87.4067 47.8967C87.4067 47.6719 87.4067 47.4472 87.4067 47.2419C87.098 47.0853 86.8203 47.1516 86.5533 47.1516C72.4653 47.1478 58.3775 47.1485 44.2895 47.148C43.1284 47.148 42.9141 46.9904 42.7061 46.0011C42.9465 45.2297 43.5214 45.087 44.2523 45.0878C58.339 45.0993 72.4258 45.0969 86.5125 45.0918C86.7961 45.0916 87.0975 45.177 87.4053 44.9865C87.4053 41.9492 87.4113 38.903 87.4033 35.8568C87.3976 33.7553 86.1471 32.5069 84.046 32.501C81.338 32.4934 78.6298 32.4987 75.9216 32.5003C75.7448 32.5005 75.5679 32.5156 75.3182 32.5271C75.3182 33.3739 75.3177 34.1862 75.3184 34.9987C75.3195 36.2267 75.3665 36.2772 76.5736 36.6097C77.1218 36.7609 77.4449 37.1339 77.3795 37.7132C77.3156 38.2802 76.9561 38.6062 76.37 38.6229C76.1449 38.6293 75.9129 38.6113 75.6932 38.5628C74.2933 38.253 73.3102 37.0918 73.2666 35.6518C73.2353 34.6164 73.2606 33.5794 73.2606 32.5353C61.4818 32.5353 49.8162 32.5353 38.0798 32.5353C38.0798 33.4053 38.0785 34.2409 38.0801 35.0766C38.0823 36.1504 38.2499 36.3579 39.2973 36.5939C39.877 36.7245 40.2234 37.1761 40.1633 37.7229C40.1024 38.2769 39.6928 38.6324 39.0756 38.6242C37.9953 38.6098 37.1566 38.1279 36.5516 37.2424C36.1536 36.6602 36.0094 36.0033 36.0156 35.3032C36.0238 34.3825 36.0176 33.4617 36.0176 32.4992C34.611 32.4992 33.3163 32.4963 32.0216 32.4999C29.8308 32.5059 28.5969 33.7344 28.5933 35.9222C28.5884 38.7668 28.5906 41.6116 28.5951 44.4562C28.5955 44.6529 28.5325 44.865 28.7113 45.0963C28.9222 45.0963 29.1679 45.0963 29.4136 45.0963C32.7133 45.0963 36.0132 45.1023 39.3129 45.0916C39.9983 45.0892 40.5273 45.2623 40.6983 46.008ZM87.3971 79.5523C83.8963 83.0533 80.5193 86.4 77.181 89.785C75.9406 91.0427 74.5111 91.6395 72.7372 91.6364C59.7667 91.6135 46.796 91.6257 33.8255 91.6222C32.0527 91.6217 30.2361 91.8581 28.6427 90.6377C28.6698 92.4625 30.0126 93.6594 31.9169 93.6596C49.3021 93.6613 66.6872 93.6615 84.0722 93.6596C86.1406 93.6594 87.3885 92.421 87.3945 90.3535C87.4033 87.3725 87.3969 84.3917 87.3971 81.4107C87.3971 80.8481 87.3971 80.2859 87.3971 79.5523ZM75.8073 87.9012C79.0746 84.6387 82.3943 81.3235 85.6534 78.0687C83.3162 78.0687 80.8468 78.0576 78.3776 78.0728C76.8266 78.0824 75.9085 79.0373 75.9041 80.6108C75.8983 82.7016 75.9036 84.7926 75.9016 86.8834C75.9014 87.2598 75.9367 87.6408 75.8073 87.9012ZM40.6798 30.4356C40.6798 29.8795 40.6985 29.3847 40.6752 28.8917C40.6443 28.2375 40.254 27.8689 39.5954 27.827C38.7221 27.7715 38.1934 28.07 38.106 28.7522C38.0355 29.3026 38.0275 29.8675 38.1278 30.4354C38.9747 30.4356 39.7852 30.4356 40.6798 30.4356ZM75.3277 30.3977C76.215 30.3977 77.0555 30.3977 77.8909 30.3977C78.0157 28.3125 77.7793 27.8168 76.6439 27.8317C75.3186 27.8494 75.2301 28.3324 75.3277 30.3977Z" fill="#02062E"/>
<path d="M42.7064 46.0012C42.0371 46.0034 41.3678 46.0058 40.6985 46.0079C40.5276 45.2621 39.9984 45.0891 39.3132 45.0913C36.0135 45.1021 32.7136 45.096 29.4139 45.096C29.1682 45.096 28.9225 45.096 28.7116 45.096C28.5328 44.8647 28.5958 44.6526 28.5954 44.4559C28.5909 41.6113 28.5887 38.7665 28.5936 35.9219C28.5974 33.7341 29.8311 32.5056 32.0219 32.4996C33.3166 32.496 34.6114 32.4989 36.0179 32.4989C36.0179 33.4612 36.0241 34.3821 36.0159 35.3029C36.0095 36.003 36.1539 36.6599 36.5519 37.2421C37.1569 38.1276 37.9956 38.6095 39.0759 38.6239C39.6932 38.6321 40.1027 38.2766 40.1636 37.7226C40.2237 37.176 39.8771 36.7244 39.2976 36.5936C38.25 36.3576 38.0824 36.1499 38.0804 35.0763C38.0788 34.2407 38.0801 33.405 38.0801 32.535C49.8165 32.535 61.4821 32.535 73.2609 32.535C73.2609 33.5791 73.2358 34.6161 73.2669 35.6515C73.3105 37.0915 74.2938 38.2527 75.6936 38.5625C75.9132 38.6112 76.1452 38.6292 76.3703 38.6226C76.9566 38.6059 77.3159 38.2799 77.3798 37.7129C77.4452 37.1334 77.1219 36.7604 76.5739 36.6094C75.367 36.2769 75.3198 36.2264 75.3187 34.9984C75.318 34.1861 75.3186 33.3738 75.3186 32.5268C75.5684 32.5153 75.7451 32.5 75.9219 32.5C78.6301 32.4985 81.3381 32.4933 84.0463 32.5007C86.1475 32.5066 87.3979 33.7552 87.4036 35.8565C87.4118 38.9027 87.4056 41.9489 87.4056 44.9862C87.0978 45.1767 86.7964 45.0913 86.5128 45.0915C72.4261 45.0966 58.3393 45.099 44.2526 45.0875C43.5218 45.0871 42.9468 45.2297 42.7064 46.0012Z" fill="#20C1A4"/>
<path d="M87.397 79.5522C87.397 80.286 87.397 80.8482 87.397 81.4103C87.397 84.3913 87.4033 87.3723 87.3944 90.3531C87.3882 92.4207 86.1405 93.659 84.0721 93.6592C66.687 93.661 49.3018 93.6608 31.9168 93.6592C30.0125 93.659 28.6697 92.4621 28.6426 90.6372C30.236 91.8578 32.0527 91.6214 33.8255 91.6218C46.7959 91.6252 59.7666 91.613 72.7371 91.636C74.5108 91.6391 75.9405 91.0423 77.1809 89.7845C80.5193 86.3999 83.8962 83.0532 87.397 79.5522Z" fill="#20C1A4"/>
<path d="M51.0784 60.1243C50.283 60.1238 49.487 60.142 48.6924 60.1196C47.4275 60.0841 46.6418 59.335 46.6145 58.0784C46.5801 56.4884 46.5808 54.8965 46.6136 53.3064C46.6397 52.0466 47.4071 51.2835 48.6809 51.2551C50.2483 51.2201 51.8174 51.2207 53.3848 51.2545C54.6835 51.2828 55.4544 52.0685 55.4761 53.3628C55.502 54.9078 55.5013 56.4538 55.4767 57.9988C55.4557 59.3206 54.6598 60.0919 53.3283 60.1218C52.5787 60.1387 51.8284 60.1249 51.0784 60.1243ZM48.6836 58.0303C50.2829 58.0303 51.8324 58.0303 53.3824 58.0303C53.3824 56.43 53.3824 54.8797 53.3824 53.3251C51.7903 53.3251 50.2544 53.3251 48.6836 53.3251C48.6836 54.8961 48.6836 56.4318 48.6836 58.0303Z" fill="#02062E"/>
<path d="M69.3937 55.6847C69.3939 56.4575 69.4081 57.2304 69.3906 58.0026C69.3615 59.2999 68.5982 60.0945 67.3124 60.1169C65.7449 60.1442 64.176 60.1431 62.6085 60.1171C61.3522 60.0963 60.5614 59.3359 60.5283 58.0738C60.4866 56.4843 60.4869 54.8918 60.5277 53.3022C60.5602 52.0392 61.3353 51.2828 62.605 51.2549C64.1724 51.2207 65.7416 51.2201 67.3088 51.2546C68.6091 51.2832 69.3604 52.071 69.3902 53.3667C69.4081 54.139 69.3935 54.912 69.3937 55.6847ZM62.5954 53.3224C62.5954 54.9402 62.5954 56.4764 62.5954 58.035C64.185 58.035 65.7368 58.035 67.2973 58.035C67.2973 56.4411 67.2973 54.8921 67.2973 53.3224C65.7123 53.3224 64.1784 53.3224 62.5954 53.3224Z" fill="#02062E"/>
<path d="M32.6898 55.6314C32.6893 54.8586 32.6718 54.0855 32.6933 53.3133C32.7275 52.0865 33.4588 51.2954 34.6857 51.2621C36.3207 51.2176 37.9589 51.2167 39.5936 51.2672C40.7692 51.3034 41.531 52.1053 41.5567 53.2878C41.5911 54.8779 41.5895 56.4699 41.5584 58.06C41.5341 59.3014 40.731 60.094 39.4841 60.1156C37.8938 60.1433 36.3021 60.1462 34.712 60.1135C33.4956 60.0885 32.7315 59.3003 32.6951 58.0853C32.6705 57.2683 32.6904 56.4495 32.6898 55.6314ZM39.4907 53.3326C37.9057 53.3326 36.352 53.3326 34.7739 53.3326C34.7739 54.9153 34.7739 56.469 34.7739 58.029C36.3655 58.029 37.9157 58.029 39.4907 58.029C39.4907 56.4442 39.4907 54.91 39.4907 53.3326Z" fill="#02062E"/>
<path d="M83.3074 55.7382C83.3074 56.5337 83.3269 57.3296 83.3027 58.1244C83.2679 59.2672 82.5206 60.0753 81.3842 60.1041C79.7037 60.1467 78.0205 60.1443 76.3399 60.1014C75.3156 60.0753 74.5525 59.3818 74.485 58.3588C74.3671 56.5689 74.3599 54.7697 74.4903 52.9801C74.5607 52.012 75.2707 51.3403 76.2408 51.2886C78.01 51.1944 79.7853 51.1829 81.5536 51.2944C82.5658 51.3581 83.2539 52.1329 83.2949 53.1475C83.3296 54.0097 83.302 54.8744 83.302 55.7378C83.304 55.7382 83.3056 55.7382 83.3074 55.7382ZM81.2161 58.045C81.2161 56.443 81.2161 54.8924 81.2161 53.3449C79.6143 53.3449 78.0619 53.3449 76.514 53.3449C76.514 54.9376 76.514 56.4744 76.514 58.045C78.0887 58.045 79.6258 58.045 81.2161 58.045Z" fill="#02062E"/>
<path d="M83.3069 68.7146C83.3069 69.5099 83.3263 70.306 83.3023 71.1008C83.2677 72.244 82.5203 73.0517 81.3831 73.0805C79.7026 73.1229 78.0194 73.1207 76.339 73.0775C75.3142 73.0513 74.552 72.3583 74.4848 71.3348C74.3671 69.5449 74.36 67.7457 74.4901 65.9563C74.5604 64.9889 75.2708 64.3167 76.241 64.2651C78.0101 64.171 79.7855 64.1595 81.5537 64.271C82.5656 64.3347 83.2537 65.1094 83.2948 66.1244C83.3298 66.9866 83.3021 67.8513 83.3021 68.7148C83.3034 68.7146 83.305 68.7146 83.3069 68.7146ZM81.2163 71.0203C81.2163 69.4205 81.2163 67.8699 81.2163 66.3202C79.615 66.3202 78.0622 66.3202 76.5129 66.3202C76.5129 67.9122 76.5129 69.4487 76.5129 71.0203C78.087 71.0203 79.6239 71.0203 81.2163 71.0203Z" fill="#02062E"/>
<path d="M51.0439 72.7853C50.2256 72.7852 49.4071 72.7986 48.5892 72.7819C47.4961 72.7593 46.6662 72.0168 46.6345 70.9187C46.5851 69.2159 46.586 67.5098 46.6332 65.8069C46.6634 64.7156 47.4557 63.9545 48.5799 63.9237C50.2152 63.8793 51.8534 63.8788 53.4885 63.9232C54.6554 63.9549 55.4435 64.7619 55.4711 65.9331C55.5092 67.546 55.5099 69.1611 55.4711 70.774C55.4413 72.015 54.6093 72.7719 53.3625 72.7842C52.5894 72.7917 51.8166 72.7855 51.0439 72.7853ZM53.3964 66.0014C51.7986 66.0014 50.2442 66.0014 48.6761 66.0014C48.6761 67.5899 48.6761 69.1288 48.6761 70.7037C50.2595 70.7037 51.8157 70.7037 53.3964 70.7037C53.3964 69.1161 53.3964 67.5593 53.3964 66.0014Z" fill="#02062E"/>
<path d="M64.9671 72.7853C64.1489 72.7851 63.3304 72.7984 62.5125 72.7818C61.4398 72.7602 60.6058 72.0643 60.5641 70.9897C60.4966 69.2433 60.4982 67.4909 60.561 65.7442C60.5993 64.6793 61.399 63.9536 62.4952 63.9239C64.1305 63.8798 65.7685 63.8778 67.4038 63.9226C68.602 63.9554 69.3682 64.7817 69.3869 65.9968C69.4111 67.5647 69.4111 69.1335 69.388 70.7014C69.3691 71.9887 68.5595 72.7709 67.2854 72.7836C66.5128 72.7917 65.7399 72.7853 64.9671 72.7853ZM67.3185 66.0024C65.7113 66.0024 64.1596 66.0024 62.5901 66.0024C62.5901 67.5911 62.5901 69.1292 62.5901 70.7032C64.1773 70.7032 65.733 70.7032 67.3185 70.7032C67.3185 69.1341 67.3185 67.5958 67.3185 66.0024Z" fill="#02062E"/>
<path d="M51.1017 76.5926C51.8746 76.593 52.6479 76.5797 53.4205 76.5962C54.5846 76.6212 55.43 77.3779 55.4644 78.5371C55.5138 80.1952 55.5138 81.8569 55.4652 83.5151C55.4304 84.7006 54.5678 85.4604 53.3631 85.4688C51.8172 85.4795 50.2712 85.4791 48.7253 85.4689C47.4763 85.4607 46.648 84.6996 46.6185 83.4579C46.5801 81.8447 46.5808 80.2292 46.6176 78.616C46.646 77.3679 47.4616 76.6134 48.7144 76.5942C49.5101 76.5824 50.306 76.5922 51.1017 76.5926ZM48.6918 78.6608C48.6918 80.2735 48.6918 81.8277 48.6918 83.3803C50.2874 83.3803 51.8398 83.3803 53.3957 83.3803C53.3957 81.7806 53.3957 80.2256 53.3957 78.6608C51.8127 78.6608 50.2734 78.6608 48.6918 78.6608Z" fill="#02062E"/>
<path d="M37.099 72.7852C36.3035 72.785 35.5076 72.7954 34.7123 72.7827C33.5458 72.7639 32.7268 71.9977 32.7022 70.8281C32.668 69.1923 32.6694 67.5548 32.6997 65.9188C32.7213 64.7501 33.5006 63.9524 34.6812 63.9213C36.2939 63.8788 37.9093 63.8807 39.5222 63.9194C40.7493 63.9489 41.5398 64.7818 41.5598 66.0244C41.5848 67.5697 41.5831 69.116 41.5611 70.6615C41.5421 71.9806 40.7233 72.7734 39.4175 72.7845C38.6447 72.7909 37.8718 72.7854 37.099 72.7852ZM34.7493 70.6992C36.3527 70.6992 37.9075 70.6992 39.4732 70.6992C39.4732 69.1036 39.4732 67.5486 39.4732 66.0071C37.8709 66.0071 36.3175 66.0071 34.7493 66.0071C34.7493 67.5847 34.7493 69.1072 34.7493 70.6992Z" fill="#02062E"/>
<path d="M32.6933 81.0311C32.6933 80.2127 32.6695 79.3933 32.699 78.5759C32.7414 77.4078 33.5346 76.6163 34.6965 76.5997C36.3105 76.5767 37.9252 76.5769 39.5394 76.5995C40.6838 76.6157 41.5218 77.4143 41.5526 78.5765C41.5961 80.2123 41.5974 81.8512 41.5522 83.4869C41.5196 84.6734 40.6571 85.4584 39.4705 85.468C37.9017 85.4808 36.3327 85.4815 34.7641 85.468C33.5355 85.4575 32.7307 84.6601 32.6942 83.4184C32.6709 82.6232 32.6899 81.827 32.6899 81.0311C32.691 81.0311 32.6921 81.0311 32.6933 81.0311ZM34.7763 78.6608C34.7763 80.2766 34.7763 81.8305 34.7763 83.3792C36.3724 83.3792 37.9248 83.3792 39.4767 83.3792C39.4767 81.7795 39.4767 80.2256 39.4767 78.6608C37.8928 78.6608 36.3542 78.6608 34.7763 78.6608Z" fill="#02062E"/>
<path d="M61.552 81.0451C60.7113 80.8133 60.5592 80.5776 60.5086 79.7007C60.3827 77.5145 60.9958 76.4368 63.5335 76.58C64.7584 76.649 65.9905 76.5844 67.2193 76.594C68.5774 76.6048 69.3756 77.3939 69.39 78.7602C69.4059 80.262 69.4039 81.7641 69.3907 83.2659C69.3785 84.6739 68.5816 85.4649 67.188 85.4698C65.6405 85.4755 64.093 85.4817 62.5456 85.4662C61.5895 85.4565 60.7934 84.8251 60.5913 83.9644C60.3878 83.0984 60.6756 82.6433 61.5582 82.4349C62.1468 82.5016 62.4724 82.8658 62.5839 83.3812C64.2079 83.3812 65.7667 83.3812 67.3011 83.3812C67.3011 81.7835 67.3011 80.229 67.3011 78.6837C65.6987 78.6837 64.1445 78.6837 62.5604 78.6837C62.5604 79.0689 62.5662 79.4089 62.5593 79.7488C62.5418 80.5935 62.3839 80.7931 61.552 81.0451Z" fill="#02062E"/>
<path d="M61.5518 81.0451C62.3837 80.793 62.5416 80.5932 62.5591 79.7489C62.5662 79.4091 62.5602 79.069 62.5602 78.6838C64.1443 78.6838 65.6985 78.6838 67.3009 78.6838C67.3009 80.2292 67.3009 81.7834 67.3009 83.3814C65.7665 83.3814 64.2079 83.3814 62.5837 83.3814C62.4722 82.8659 62.1464 82.5017 61.5579 82.435C61.5559 81.9717 61.5538 81.5084 61.5518 81.0451Z" fill="#20C1A4"/>
<path d="M48.6846 58.0301C48.6846 56.4316 48.6846 54.896 48.6846 53.325C50.2556 53.325 51.7914 53.325 53.3834 53.325C53.3834 54.8796 53.3834 56.4298 53.3834 58.0301C51.8333 58.0301 50.284 58.0301 48.6846 58.0301Z" fill="#20C1A4"/>
<path d="M62.5957 53.3225C64.1787 53.3225 65.7126 53.3225 67.2976 53.3225C67.2976 54.8922 67.2976 56.4412 67.2976 58.0351C65.7372 58.0351 64.1853 58.0351 62.5957 58.0351C62.5957 56.4765 62.5957 54.9403 62.5957 53.3225Z" fill="#20C1A4"/>
<path d="M39.4903 53.3325C39.4903 54.9099 39.4903 56.4441 39.4903 58.0289C37.9154 58.0289 36.365 58.0289 34.7734 58.0289C34.7734 56.4689 34.7734 54.9154 34.7734 53.3325C36.3515 53.3325 37.9052 53.3325 39.4903 53.3325Z" fill="#20C1A4"/>
<path d="M81.2157 58.045C79.6254 58.045 78.0885 58.045 76.5137 58.045C76.5137 56.4744 76.5137 54.9376 76.5137 53.345C78.0615 53.345 79.614 53.345 81.2157 53.345C81.2157 54.8925 81.2157 56.4431 81.2157 58.045Z" fill="#20C1A4"/>
<path d="M81.216 71.0204C79.6237 71.0204 78.0868 71.0204 76.5127 71.0204C76.5127 69.4488 76.5127 67.9121 76.5127 66.3203C78.0622 66.3203 79.6148 66.3203 81.216 66.3203C81.216 67.87 81.216 69.4206 81.216 71.0204Z" fill="#20C1A4"/>
<path d="M53.3961 66.0015C53.3961 67.5595 53.3961 69.1161 53.3961 70.7037C51.8154 70.7037 50.2592 70.7037 48.6758 70.7037C48.6758 69.1291 48.6758 67.5899 48.6758 66.0015C50.2439 66.0015 51.7983 66.0015 53.3961 66.0015Z" fill="#20C1A4"/>
<path d="M67.3193 66.0024C67.3193 67.596 67.3193 69.1341 67.3193 70.7032C65.7335 70.7032 64.178 70.7032 62.5908 70.7032C62.5908 69.1291 62.5908 67.5911 62.5908 66.0024C64.1604 66.0024 65.7121 66.0024 67.3193 66.0024Z" fill="#20C1A4"/>
<path d="M48.6914 78.6609C50.273 78.6609 51.8123 78.6609 53.3953 78.6609C53.3953 80.2257 53.3953 81.7809 53.3953 83.3804C51.8394 83.3804 50.287 83.3804 48.6914 83.3804C48.6914 81.8278 48.6914 80.2736 48.6914 78.6609Z" fill="#20C1A4"/>
<path d="M34.75 70.6994C34.75 69.1073 34.75 67.5849 34.75 66.0073C36.3183 66.0073 37.8716 66.0073 39.4739 66.0073C39.4739 67.5488 39.4739 69.104 39.4739 70.6994C37.9082 70.6994 36.3534 70.6994 34.75 70.6994Z" fill="#20C1A4"/>
<path d="M34.7764 78.6609C36.3543 78.6609 37.8929 78.6609 39.4768 78.6609C39.4768 80.2257 39.4768 81.7796 39.4768 83.3793C37.9249 83.3793 36.3725 83.3793 34.7764 83.3793C34.7764 81.8306 34.7764 80.2767 34.7764 78.6609Z" fill="#20C1A4"/>
</g>
<path d="M102.357 55.2936V67.7136H100.557V55.2936H102.357ZM108.027 60.3336V61.8276H102.213V60.3336H108.027ZM109.647 55.2936V67.7136H107.829V55.2936H109.647ZM116.287 58.7136C117.319 58.7136 118.141 58.8636 118.753 59.1636C119.377 59.4636 119.821 59.9556 120.085 60.6396C120.361 61.3116 120.499 62.2056 120.499 63.3216C120.499 64.4496 120.361 65.3556 120.085 66.0396C119.821 66.7116 119.377 67.1976 118.753 67.4976C118.141 67.7976 117.319 67.9476 116.287 67.9476C115.267 67.9476 114.445 67.7976 113.821 67.4976C113.209 67.1976 112.765 66.7116 112.489 66.0396C112.213 65.3556 112.075 64.4496 112.075 63.3216C112.075 62.2056 112.213 61.3116 112.489 60.6396C112.765 59.9556 113.209 59.4636 113.821 59.1636C114.445 58.8636 115.267 58.7136 116.287 58.7136ZM116.287 60.1176C115.687 60.1176 115.213 60.2136 114.865 60.4056C114.517 60.5976 114.271 60.9276 114.127 61.3956C113.983 61.8516 113.911 62.4936 113.911 63.3216C113.911 64.1496 113.983 64.7976 114.127 65.2656C114.271 65.7336 114.517 66.0636 114.865 66.2556C115.213 66.4356 115.687 66.5256 116.287 66.5256C116.887 66.5256 117.361 66.4356 117.709 66.2556C118.069 66.0636 118.321 65.7336 118.465 65.2656C118.609 64.7976 118.681 64.1496 118.681 63.3216C118.681 62.4936 118.609 61.8516 118.465 61.3956C118.321 60.9276 118.069 60.5976 117.709 60.4056C117.361 60.2136 116.887 60.1176 116.287 60.1176ZM124.535 55.1136L124.517 65.2116C124.517 65.5836 124.619 65.8656 124.823 66.0576C125.039 66.2496 125.333 66.3456 125.705 66.3456H126.533L126.731 67.6236C126.611 67.6836 126.443 67.7316 126.227 67.7676C126.023 67.8036 125.807 67.8276 125.579 67.8396C125.363 67.8636 125.177 67.8756 125.021 67.8756C124.349 67.8756 123.809 67.6836 123.401 67.2996C123.005 66.9156 122.807 66.3576 122.807 65.6256V55.1136H124.535ZM130.021 58.9296V67.7136H128.311V58.9296H130.021ZM129.571 55.1676C129.919 55.1676 130.093 55.3416 130.093 55.6896V56.7156C130.093 57.0636 129.919 57.2376 129.571 57.2376H128.761C128.413 57.2376 128.239 57.0636 128.239 56.7156V55.6896C128.239 55.3416 128.413 55.1676 128.761 55.1676H129.571ZM135.725 58.7136C136.313 58.7136 136.889 58.7916 137.453 58.9476C138.017 59.0916 138.551 59.3316 139.055 59.6676L138.947 60.6756C138.419 60.5076 137.945 60.3756 137.525 60.2796C137.117 60.1836 136.673 60.1356 136.193 60.1356C135.713 60.1356 135.323 60.2196 135.023 60.3876C134.735 60.5556 134.519 60.8676 134.375 61.3236C134.243 61.7796 134.177 62.4276 134.177 63.2676C134.177 64.0956 134.243 64.7436 134.375 65.2116C134.507 65.6676 134.717 65.9856 135.005 66.1656C135.293 66.3456 135.659 66.4356 136.103 66.4356C136.439 66.4356 136.745 66.3936 137.021 66.3096C137.297 66.2256 137.585 66.0876 137.885 65.8956C138.185 65.7036 138.539 65.4636 138.947 65.1756L139.091 66.2916C138.635 66.7476 138.101 67.1376 137.489 67.4616C136.889 67.7736 136.223 67.9296 135.491 67.9296C134.387 67.9296 133.595 67.5396 133.115 66.7596C132.635 65.9676 132.395 64.8096 132.395 63.2856C132.395 62.1336 132.515 61.2276 132.755 60.5676C133.007 59.8956 133.379 59.4216 133.871 59.1456C134.363 58.8576 134.981 58.7136 135.725 58.7136ZM140.477 55.1136V67.7136H139.109L138.911 66.1656L138.731 66.0216V60.0456L138.839 59.7756C138.791 59.4396 138.761 59.1096 138.749 58.7856C138.737 58.4616 138.731 58.1196 138.731 57.7596V55.1136H140.477ZM147.41 58.7136C148.082 58.7136 148.646 58.8036 149.102 58.9836C149.57 59.1516 149.918 59.4456 150.146 59.8656C150.386 60.2856 150.506 60.8616 150.506 61.5936V67.7136H149.138L148.868 65.8056L148.76 65.5896V61.5936C148.76 61.0776 148.64 60.7056 148.4 60.4776C148.16 60.2496 147.704 60.1356 147.032 60.1356C146.576 60.1356 146 60.1596 145.304 60.2076C144.62 60.2556 143.942 60.3036 143.27 60.3516L143.108 59.1096C143.516 59.0376 143.966 58.9716 144.458 58.9116C144.962 58.8516 145.472 58.8036 145.988 58.7676C146.504 58.7316 146.978 58.7136 147.41 58.7136ZM149.714 62.2956L149.696 63.5196L145.556 63.5376C145.148 63.5496 144.86 63.6576 144.692 63.8616C144.536 64.0536 144.458 64.3236 144.458 64.6716V65.2116C144.458 65.6436 144.56 65.9616 144.764 66.1656C144.98 66.3576 145.316 66.4536 145.772 66.4536C146.108 66.4536 146.48 66.3936 146.888 66.2736C147.308 66.1416 147.728 65.9496 148.148 65.6976C148.568 65.4336 148.946 65.1036 149.282 64.7076V65.8416C149.162 66.0096 148.982 66.2136 148.742 66.4536C148.502 66.6816 148.208 66.9036 147.86 67.1196C147.524 67.3356 147.146 67.5156 146.726 67.6596C146.318 67.8036 145.868 67.8756 145.376 67.8756C144.848 67.8756 144.38 67.7856 143.972 67.6056C143.576 67.4136 143.264 67.1376 143.036 66.7776C142.808 66.4056 142.694 65.9556 142.694 65.4276V64.4736C142.694 63.7896 142.91 63.2556 143.342 62.8716C143.786 62.4876 144.398 62.2956 145.178 62.2956H149.714ZM161.104 58.9296L157.648 68.1276C157.504 68.5236 157.318 68.9136 157.09 69.2976C156.874 69.6816 156.604 70.0296 156.28 70.3416C155.956 70.6656 155.572 70.9236 155.128 71.1156C154.696 71.3076 154.192 71.4036 153.616 71.4036L153.454 70.3056C154.174 70.0776 154.726 69.7776 155.11 69.4056C155.506 69.0336 155.818 68.5776 156.046 68.0376L156.496 66.9576C156.592 66.7056 156.688 66.4296 156.784 66.1296C156.88 65.8176 156.97 65.5476 157.054 65.3196L159.232 58.9296H161.104ZM153.904 58.9296L156.118 65.3196C156.178 65.4996 156.232 65.6856 156.28 65.8776C156.34 66.0576 156.388 66.2436 156.424 66.4356H156.856L156.298 67.7136H155.794C155.65 67.7136 155.524 67.6776 155.416 67.6056C155.308 67.5216 155.23 67.4076 155.182 67.2636L152.05 58.9296H153.904ZM168.256 55.2936V65.0856C168.256 65.4696 168.352 65.7576 168.544 65.9496C168.736 66.1296 169.03 66.2196 169.426 66.2196H173.872L173.962 67.6056C173.158 67.6656 172.342 67.7016 171.514 67.7136C170.686 67.7256 169.858 67.7316 169.03 67.7316C168.118 67.7316 167.464 67.5096 167.068 67.0656C166.672 66.6096 166.474 66.0396 166.474 65.3556V55.2936H168.256ZM177.446 58.9296V67.7136H175.736V58.9296H177.446ZM176.996 55.1676C177.344 55.1676 177.518 55.3416 177.518 55.6896V56.7156C177.518 57.0636 177.344 57.2376 176.996 57.2376H176.186C175.838 57.2376 175.664 57.0636 175.664 56.7156V55.6896C175.664 55.3416 175.838 55.1676 176.186 55.1676H176.996ZM183.223 58.7136C183.607 58.7136 184.021 58.7256 184.465 58.7496C184.909 58.7736 185.347 58.8036 185.779 58.8396C186.223 58.8756 186.625 58.9236 186.985 58.9836L186.859 60.2076C186.295 60.1836 185.731 60.1656 185.167 60.1536C184.615 60.1296 184.063 60.1176 183.511 60.1176C182.983 60.1056 182.569 60.1176 182.269 60.1536C181.969 60.1896 181.753 60.2796 181.621 60.4236C181.489 60.5676 181.423 60.8136 181.423 61.1616C181.423 61.5816 181.525 61.8576 181.729 61.9896C181.945 62.1216 182.263 62.2356 182.683 62.3316L185.185 62.9076C185.893 63.0876 186.415 63.3516 186.751 63.6996C187.087 64.0476 187.255 64.5996 187.255 65.3556C187.255 66.0756 187.117 66.6216 186.841 66.9936C186.577 67.3536 186.163 67.5936 185.599 67.7136C185.035 67.8456 184.321 67.9116 183.457 67.9116C183.133 67.9116 182.647 67.8996 181.999 67.8756C181.363 67.8516 180.661 67.7736 179.893 67.6416L180.019 66.4356C180.295 66.4476 180.595 66.4596 180.919 66.4716C181.243 66.4836 181.585 66.4896 181.945 66.4896C182.317 66.4896 182.689 66.4896 183.061 66.4896C183.709 66.4896 184.213 66.4656 184.573 66.4176C184.945 66.3576 185.203 66.2496 185.347 66.0936C185.503 65.9256 185.581 65.6796 185.581 65.3556C185.581 64.9596 185.455 64.6956 185.203 64.5636C184.963 64.4196 184.633 64.2996 184.213 64.2036L181.747 63.6276C181.243 63.5076 180.841 63.3456 180.541 63.1416C180.253 62.9256 180.043 62.6616 179.911 62.3496C179.791 62.0256 179.731 61.6236 179.731 61.1436C179.731 60.4716 179.851 59.9616 180.091 59.6136C180.331 59.2536 180.703 59.0136 181.207 58.8936C181.723 58.7616 182.395 58.7016 183.223 58.7136ZM191.858 56.3556V65.2116C191.858 65.6196 191.942 65.9136 192.11 66.0936C192.29 66.2616 192.59 66.3456 193.01 66.3456H194.306L194.504 67.6236C194.3 67.6836 194.066 67.7316 193.802 67.7676C193.55 67.8036 193.292 67.8276 193.028 67.8396C192.776 67.8636 192.572 67.8756 192.416 67.8756C191.672 67.8756 191.102 67.6716 190.706 67.2636C190.31 66.8556 190.112 66.2676 190.112 65.4996V56.3556H191.858ZM194.594 58.9296V60.2256H188.528V59.0196L190.256 58.9296H194.594Z" fill="#012253"/>
<defs>
<clipPath id="clip0_0_1">
<rect width="62.9199" height="70" fill="white" transform="translate(26.54 25.7136)"/>
</clipPath>
</defs>
</svg>
