<svg width="30" height="31" viewBox="0 0 30 31" fill="none" xmlns="http://www.w3.org/2000/svg">
<path d="M2.5 26.6294V10.3794H10V11.6294V5.37939H22.5V11.6294H27.5V25.3794H10V26.6294H2.5ZM5 24.1294H7.5V12.8794H5V24.1294ZM12.5 11.6294H20V7.87939H12.5V11.6294ZM10 22.8794H25V14.1294H10V22.8794ZM18.75 17.8794C19.1042 17.8794 19.4012 17.7594 19.6412 17.5194C19.8804 17.2802 20 16.9836 20 16.6294C20 16.2752 19.8804 15.9781 19.6412 15.7381C19.4012 15.499 19.1042 15.3794 18.75 15.3794C18.3958 15.3794 18.0992 15.499 17.86 15.7381C17.62 15.9781 17.5 16.2752 17.5 16.6294C17.5 16.9836 17.62 17.2802 17.86 17.5194C18.0992 17.7594 18.3958 17.8794 18.75 17.8794ZM22.5 17.8794C22.8542 17.8794 23.1508 17.7594 23.39 17.5194C23.63 17.2802 23.75 16.9836 23.75 16.6294C23.75 16.2752 23.63 15.9781 23.39 15.7381C23.1508 15.499 22.8542 15.3794 22.5 15.3794C22.1458 15.3794 21.8492 15.499 21.61 15.7381C21.37 15.9781 21.25 16.2752 21.25 16.6294C21.25 16.9836 21.37 17.2802 21.61 17.5194C21.8492 17.7594 22.1458 17.8794 22.5 17.8794ZM18.75 21.6294C19.1042 21.6294 19.4012 21.5094 19.6412 21.2694C19.8804 21.0302 20 20.7336 20 20.3794C20 20.0252 19.8804 19.7281 19.6412 19.4881C19.4012 19.249 19.1042 19.1294 18.75 19.1294C18.3958 19.1294 18.0992 19.249 17.86 19.4881C17.62 19.7281 17.5 20.0252 17.5 20.3794C17.5 20.7336 17.62 21.0302 17.86 21.2694C18.0992 21.5094 18.3958 21.6294 18.75 21.6294ZM22.5 21.6294C22.8542 21.6294 23.1508 21.5094 23.39 21.2694C23.63 21.0302 23.75 20.7336 23.75 20.3794C23.75 20.0252 23.63 19.7281 23.39 19.4881C23.1508 19.249 22.8542 19.1294 22.5 19.1294C22.1458 19.1294 21.8492 19.249 21.61 19.4881C21.37 19.7281 21.25 20.0252 21.25 20.3794C21.25 20.7336 21.37 21.0302 21.61 21.2694C21.8492 21.5094 22.1458 21.6294 22.5 21.6294ZM11.25 21.6294H16.25V15.3794H11.25V21.6294ZM10 22.8794V14.1294V22.8794Z" fill="white"/>
</svg>
