<svg width="231" height="121" viewBox="0 0 231 121" fill="none" xmlns="http://www.w3.org/2000/svg">
<rect x="0.583984" y="0.713623" width="230" height="120" rx="7" fill="#E2F8E2"/>
<path d="M81.8192 74.6039C80.4488 74.3317 79.0572 74.0004 77.683 73.6197C72.2673 72.119 67.5342 71.9734 63.6138 73.1893C63.373 73.2645 63.1718 73.4322 63.0544 73.6555C62.9371 73.8788 62.9131 74.1396 62.9877 74.3806C63.0623 74.6216 63.2295 74.8232 63.4525 74.9411C63.6755 75.059 63.9362 75.0837 64.1774 75.0097C67.7435 73.9045 72.1166 74.0543 77.1747 75.4568C78.594 75.85 80.0317 76.192 81.4481 76.4736C81.6961 76.5228 81.9534 76.4715 82.1635 76.331C82.3736 76.1904 82.5193 75.9722 82.5685 75.7243C82.6177 75.4763 82.5664 75.219 82.4259 75.0089C82.2854 74.7988 82.0672 74.6531 81.8192 74.6039ZM63.6138 58.8945C63.4194 58.9547 63.2495 59.0755 63.1288 59.2393C63.0081 59.4031 62.9431 59.6012 62.9432 59.8047V69.3346C62.9431 69.4838 62.978 69.631 63.0453 69.7642C63.1125 69.8975 63.2101 70.013 63.3302 70.1016C63.4503 70.1902 63.5896 70.2493 63.7367 70.2741C63.8839 70.299 64.0348 70.2889 64.1774 70.2447C67.7435 69.1396 72.1166 69.2894 77.1747 70.6919C78.594 71.0851 80.0316 71.4271 81.4481 71.7086C81.5863 71.736 81.7288 71.7324 81.8654 71.6981C82.002 71.6638 82.1293 71.5997 82.2381 71.5103C82.347 71.4209 82.4346 71.3084 82.4948 71.1811C82.5549 71.0537 82.5861 70.9146 82.586 70.7738V61.2439C82.586 61.0235 82.5096 60.8098 82.3698 60.6394C82.23 60.4689 82.0354 60.3522 81.8192 60.3091C80.4488 60.0369 79.0572 59.7056 77.683 59.3249C72.2673 57.8247 67.5342 57.6786 63.6138 58.8945ZM72.1099 67.7648C71.1923 67.6641 70.27 67.6123 69.3469 67.6096C67.8339 67.601 66.3247 67.763 64.848 68.0926V65.2893C67.2252 64.7201 69.6869 64.5939 72.1099 64.9169V67.7648ZM74.0146 60.4387C75.0369 60.6244 76.0879 60.8606 77.1747 61.162C78.3385 61.484 79.5148 61.7721 80.6813 62.0206V64.8255C79.6818 64.6052 78.6789 64.3657 77.683 64.0899C76.4749 63.7533 75.2505 63.4781 74.0146 63.2653V60.4387ZM74.0146 65.2006C75.0363 65.3862 76.0887 65.6259 77.1747 65.927C78.3392 66.2496 79.5139 66.5277 80.6813 66.7762V69.6002C79.6824 69.3802 78.6782 69.1307 77.683 68.8548C76.4749 68.5186 75.2505 68.2439 74.0146 68.0316V65.2006ZM72.1099 62.9995C69.6875 62.7067 67.2334 62.8191 64.848 63.3319V60.5245C67.2249 59.9541 69.6867 59.8268 72.1099 60.149V62.9995ZM34.3708 76.4917C34.4334 76.4918 34.4959 76.4858 34.5573 76.4736C35.9794 76.1906 37.4158 75.8486 38.8261 75.4568C43.8874 74.0548 48.262 73.904 51.8281 75.0097C52.0692 75.0837 52.3299 75.059 52.553 74.9411C52.776 74.8232 52.9431 74.6216 53.0178 74.3806C53.0924 74.1396 53.0684 73.8788 52.951 73.6555C52.8336 73.4322 52.6325 73.2645 52.3917 73.1893C48.4724 71.9734 43.7372 72.1191 38.3171 73.6202C36.9515 73.9995 35.5618 74.3308 34.1862 74.6039C33.9544 74.6501 33.748 74.7809 33.6071 74.9708C33.4663 75.1606 33.401 75.3961 33.424 75.6314C33.447 75.8667 33.5567 76.085 33.7316 76.244C33.9066 76.403 34.1344 76.4913 34.3708 76.4917ZM34.3718 71.7268C34.4341 71.7268 34.4962 71.7207 34.5573 71.7086C35.9794 71.4257 37.4158 71.0837 38.8261 70.6919C43.8874 69.2899 48.262 69.1391 51.8281 70.2447C51.9706 70.2889 52.1215 70.299 52.2687 70.2741C52.4158 70.2493 52.5551 70.1902 52.6752 70.1016C52.7953 70.013 52.8929 69.8975 52.9602 69.7642C53.0274 69.631 53.0624 69.4838 53.0622 69.3346V59.8047C53.0623 59.6012 52.9973 59.4031 52.8766 59.2393C52.756 59.0755 52.586 58.9547 52.3917 58.8945C48.4724 57.6786 43.7372 57.8243 38.3171 59.3254C36.9515 59.7046 35.5618 60.0359 34.1862 60.3091C33.97 60.3522 33.7755 60.4689 33.6356 60.6394C33.4958 60.8098 33.4194 61.0235 33.4194 61.2439V70.7738C33.4193 70.8989 33.4439 71.0228 33.4918 71.1384C33.5396 71.254 33.6097 71.3591 33.6982 71.4476C33.7866 71.5361 33.8916 71.6063 34.0072 71.6542C34.1228 71.7021 34.2466 71.7268 34.3718 71.7268ZM35.3241 62.0206C36.4941 61.7716 37.6688 61.4836 38.826 61.162C43.5745 59.8461 47.7183 59.6325 51.1575 60.5245V68.0926C47.4916 67.2531 43.1799 67.5081 38.3171 68.8553C37.3272 69.1303 36.3249 69.3797 35.3241 69.6002L35.3241 62.0206ZM81.8192 78.8923C80.4488 78.6201 79.0572 78.2888 77.683 77.9081C72.2673 76.4079 67.5342 76.2614 63.6138 77.4777C63.3729 77.5529 63.1717 77.7205 63.0543 77.9439C62.9368 78.1672 62.9128 78.428 62.9874 78.6691C63.0621 78.9101 63.2293 79.1117 63.4524 79.2296C63.6754 79.3475 63.9362 79.3722 64.1774 79.2981C67.7435 78.1924 72.1166 78.3432 77.1747 79.7452C78.594 80.1385 80.0317 80.4805 81.4481 80.762C81.5709 80.7863 81.6973 80.7863 81.82 80.7618C81.9427 80.7373 82.0595 80.6889 82.1635 80.6194C82.2675 80.5498 82.3568 80.4604 82.4263 80.3563C82.4958 80.2522 82.5441 80.1355 82.5685 80.0127C82.5929 79.8899 82.5928 79.7636 82.5684 79.6408C82.5439 79.5181 82.4955 79.4014 82.4259 79.2973C82.3563 79.1933 82.2669 79.104 82.1628 79.0345C82.0588 78.965 81.942 78.9167 81.8192 78.8923ZM51.8281 79.2981C52.0693 79.3722 52.33 79.3476 52.5531 79.2297C52.7762 79.1117 52.9434 78.9101 53.018 78.6691C53.0926 78.4281 53.0686 78.1673 52.9512 77.9439C52.8338 77.7206 52.6325 77.5529 52.3917 77.4778C48.4726 76.2623 43.7372 76.4079 38.3178 77.9082C36.9436 78.2888 35.552 78.6201 34.1816 78.8923C33.9336 78.9416 33.7154 79.0872 33.5749 79.2973C33.4344 79.5075 33.3831 79.7648 33.4323 80.0127C33.4815 80.2606 33.6272 80.4789 33.8373 80.6194C34.0474 80.7599 34.3047 80.8112 34.5527 80.762C35.9692 80.4805 37.4068 80.1385 38.8261 79.7453C43.8874 78.3433 48.262 78.1925 51.8281 79.2981Z" fill="#027189"/>
<path d="M18.9524 92.6184C19.4784 92.6184 19.9048 92.192 19.9048 91.666C19.9048 91.14 19.4784 90.7136 18.9524 90.7136C18.4264 90.7136 18 91.14 18 91.666C18 92.192 18.4264 92.6184 18.9524 92.6184Z" fill="#02062E"/>
<path d="M23.2384 90.7136H21.8098C21.5572 90.7136 21.315 90.814 21.1364 90.9926C20.9578 91.1712 20.8574 91.4134 20.8574 91.666C20.8574 91.9186 20.9578 92.1608 21.1364 92.3394C21.315 92.518 21.5572 92.6184 21.8098 92.6184H23.2384C23.491 92.6184 23.7332 92.518 23.9118 92.3394C24.0904 92.1608 24.1908 91.9186 24.1908 91.666C24.1908 91.4134 24.0904 91.1712 23.9118 90.9926C23.7332 90.814 23.491 90.7136 23.2384 90.7136ZM94.1908 90.7136H92.7622C92.5096 90.7136 92.2674 90.814 92.0887 90.9926C91.9101 91.1712 91.8098 91.4134 91.8098 91.666C91.8098 91.9186 91.9101 92.1608 92.0887 92.3394C92.2674 92.518 92.5096 92.6184 92.7622 92.6184H94.1908C94.4433 92.6184 94.6856 92.518 94.8642 92.3394C95.0428 92.1608 95.1431 91.9186 95.1431 91.666C95.1431 91.4134 95.0428 91.1712 94.8642 90.9926C94.6856 90.814 94.4433 90.7136 94.1908 90.7136Z" fill="#02062E"/>
<path d="M97.0481 92.6184C97.5741 92.6184 98.0005 92.192 98.0005 91.666C98.0005 91.14 97.5741 90.7136 97.0481 90.7136C96.5221 90.7136 96.0957 91.14 96.0957 91.666C96.0957 92.192 96.5221 92.6184 97.0481 92.6184Z" fill="#02062E"/>
<path d="M74.264 94.5232H70.308C70.0686 94.5424 69.8451 94.651 69.6822 94.8275C69.5193 95.004 69.4288 95.2354 69.4288 95.4756C69.4288 95.7158 69.5193 95.9471 69.6822 96.1236C69.8451 96.3001 70.0686 96.4088 70.308 96.428H74.264C74.5035 96.4088 74.7269 96.3001 74.8898 96.1236C75.0527 95.9471 75.1432 95.7158 75.1432 95.4756C75.1432 95.2354 75.0527 95.004 74.8898 94.8275C74.7269 94.651 74.5035 94.5424 74.264 94.5232ZM45.6926 94.5232H41.7365C41.4971 94.5424 41.2737 94.651 41.1108 94.8275C40.9479 95.004 40.8574 95.2354 40.8574 95.4756C40.8574 95.7158 40.9479 95.9471 41.1108 96.1236C41.2737 96.3001 41.4971 96.4088 41.7365 96.428H45.6926C45.932 96.4088 46.1554 96.3001 46.3184 96.1236C46.4813 95.9471 46.5717 95.7158 46.5717 95.4756C46.5717 95.2354 46.4813 95.004 46.3184 94.8275C46.1554 94.651 45.932 94.5424 45.6926 94.5232ZM67.5241 94.5232H48.4765C48.2239 94.5232 47.9817 94.6235 47.803 94.8021C47.6244 94.9807 47.5241 95.223 47.5241 95.4756C47.5241 95.7282 47.6244 95.9704 47.803 96.149C47.9817 96.3276 48.2239 96.428 48.4765 96.428H56.067V97.3803H52.286C52.0334 97.3803 51.7912 97.4807 51.6126 97.6593C51.434 97.8379 51.3336 98.0801 51.3336 98.3327C51.3336 98.5853 51.434 98.8275 51.6126 99.0062C51.7912 99.1848 52.0334 99.2851 52.286 99.2851H64.1908C64.4434 99.2851 64.6856 99.1848 64.8642 99.0062C65.0428 98.8275 65.1431 98.5853 65.1431 98.3327C65.1431 98.0801 65.0428 97.8379 64.8642 97.6593C64.6856 97.4807 64.4434 97.3803 64.1908 97.3803H59.9336V96.428H67.5241C67.7767 96.428 68.0189 96.3276 68.1975 96.149C68.3761 95.9704 68.4765 95.7282 68.4765 95.4756C68.4765 95.223 68.3761 94.9807 68.1975 94.8021C68.0189 94.6235 67.7767 94.5232 67.5241 94.5232Z" fill="#027189"/>
<path d="M89.7724 90.7135H88.3719C88.4397 90.5815 88.4755 90.4354 88.4766 90.287V53.0144C88.4766 52.7804 88.3905 52.5546 88.2348 52.38C88.0791 52.2054 87.8645 52.0941 87.6321 52.0675C84.2711 51.6938 80.9445 51.0583 77.6825 50.1666C65.6062 46.8167 59.9195 50.5007 58.0004 52.2867C56.0816 50.5007 50.3964 46.8163 38.3185 50.1666C35.0564 51.0582 31.7297 51.6938 28.3687 52.0675C28.1362 52.0941 27.9217 52.2054 27.7659 52.38C27.6102 52.5546 27.5241 52.7804 27.5242 53.0144V90.287C27.5252 90.4354 27.5611 90.5815 27.6289 90.7135H26.2283C26.0928 90.6958 25.9551 90.7072 25.8244 90.747C25.6937 90.7867 25.5729 90.8539 25.4702 90.9441C25.3675 91.0342 25.2853 91.1452 25.2289 91.2697C25.1725 91.3942 25.1434 91.5293 25.1434 91.6659C25.1434 91.8025 25.1725 91.9376 25.2289 92.0621C25.2853 92.1866 25.3675 92.2976 25.4702 92.3877C25.5729 92.4779 25.6937 92.5451 25.8244 92.5848C25.9551 92.6246 26.0928 92.636 26.2283 92.6183H89.7724C89.9079 92.636 90.0456 92.6246 90.1763 92.5848C90.3071 92.5451 90.4278 92.4779 90.5305 92.3877C90.6332 92.2976 90.7155 92.1866 90.7718 92.0621C90.8282 91.9376 90.8573 91.8025 90.8573 91.6659C90.8573 91.5293 90.8282 91.3942 90.7718 91.2697C90.7155 91.1452 90.6332 91.0342 90.5305 90.9441C90.4278 90.8539 90.3071 90.7867 90.1763 90.747C90.0456 90.7072 89.9079 90.6958 89.7724 90.7135ZM86.5718 85.3874C83.571 85.0106 80.6006 84.4228 77.6825 83.6282C67.1981 80.7172 61.5299 83.5008 58.9527 85.6161V58.7037C59.8303 57.5622 64.6229 52.3839 77.1738 55.8692C80.258 56.7093 83.3988 57.3259 86.5718 57.7141V85.3874ZM29.4289 53.8599C32.6024 53.4684 35.7434 52.8481 38.8274 52.0037C52.593 48.1834 57.1835 54.1833 57.2238 54.2382C57.3118 54.3622 57.4282 54.4633 57.5633 54.5331C57.6984 54.6029 57.8483 54.6393 58.0004 54.6393C58.1524 54.6393 58.3023 54.6029 58.4374 54.5331C58.5725 54.4633 58.6889 54.3622 58.777 54.2382C58.8204 54.1768 63.2903 48.1504 77.1735 52.0037C80.2575 52.8481 83.3984 53.4685 86.5718 53.8599V55.7917C83.571 55.4149 80.6006 54.8271 77.6825 54.0326C65.6375 50.6883 59.9472 54.8604 58.0004 56.8999C56.0537 54.8604 50.3623 50.6901 38.3187 54.0321C35.4005 54.8269 32.4299 55.4149 29.4289 55.7917V53.8599ZM29.4289 57.7141C32.6021 57.3259 35.7431 56.7092 38.8274 55.8687C51.3897 52.3839 56.1795 57.5725 57.048 58.703V85.6161C54.471 83.5012 48.8026 80.7188 38.3185 83.6277C35.4004 84.4226 32.4298 85.0106 29.4289 85.3874V57.7141ZM29.4289 87.3099C32.6022 86.9221 35.7432 86.3053 38.8274 85.4644C52.5723 81.651 57.0154 88.2251 57.1947 88.502C57.2804 88.6371 57.3987 88.7483 57.5387 88.8256C57.6788 88.9029 57.836 88.9436 57.9959 88.944H58.002C58.1613 88.9436 58.318 88.9035 58.4579 88.8272C58.5978 88.7509 58.7164 88.6409 58.803 88.5071C58.9853 88.2251 63.4296 81.6482 77.1735 85.4648C80.2578 86.3054 83.3987 86.9221 86.5718 87.3099V89.2111C83.5706 88.831 80.6001 88.239 77.6825 87.4396C66.8399 84.4304 61.1126 88.0311 58.6635 90.4452C58.504 90.6027 58.2933 90.6979 58.0697 90.7135H57.931C57.7074 90.6979 57.4967 90.6027 57.3372 90.4452C55.5515 88.6853 52.0243 86.2945 46.041 86.2945C43.4269 86.3255 40.829 86.7107 38.3185 87.4397C35.4008 88.239 32.4302 88.831 29.4289 89.2111V87.3099ZM83.7784 90.7135H61.2964C63.9445 88.8075 68.8676 86.9719 77.1735 89.2768C79.3484 89.8713 81.5531 90.3509 83.7784 90.7135ZM38.8274 89.2763C47.1319 86.9714 52.0558 88.8074 54.7044 90.7135H32.2223C34.4477 90.3508 36.6525 89.8711 38.8274 89.2763ZM50.5264 24.9992C50.809 24.9992 51.0852 24.9154 51.3201 24.7585C51.555 24.6015 51.7381 24.3784 51.8462 24.1174C51.9544 23.8563 51.9827 23.5691 51.9275 23.292C51.8724 23.0148 51.7364 22.7603 51.5366 22.5605C51.3368 22.3607 51.0822 22.2247 50.8051 22.1695C50.528 22.1144 50.2408 22.1427 49.9797 22.2508C49.7187 22.359 49.4956 22.5421 49.3386 22.777C49.1816 23.0119 49.0978 23.2881 49.0978 23.5707C49.0983 23.9494 49.2489 24.3125 49.5167 24.5803C49.7846 24.8482 50.1477 24.9988 50.5264 24.9992ZM50.5264 22.8564C50.6677 22.8564 50.8058 22.8983 50.9233 22.9768C51.0407 23.0552 51.1323 23.1668 51.1863 23.2973C51.2404 23.4278 51.2545 23.5715 51.227 23.71C51.1994 23.8486 51.1314 23.9758 51.0315 24.0757C50.9316 24.1756 50.8043 24.2437 50.6658 24.2712C50.5272 24.2988 50.3836 24.2846 50.2531 24.2306C50.1225 24.1765 50.011 24.085 49.9325 23.9675C49.854 23.85 49.8121 23.7119 49.8121 23.5707C49.8123 23.3813 49.8876 23.1997 50.0215 23.0658C50.1555 22.9319 50.337 22.8566 50.5264 22.8564ZM93.3836 54.0469C93.1952 54.0469 93.0111 54.1027 92.8544 54.2074C92.6978 54.312 92.5758 54.4607 92.5037 54.6348C92.4316 54.8088 92.4127 55.0003 92.4495 55.185C92.4862 55.3698 92.5769 55.5395 92.7101 55.6727C92.8433 55.8059 93.013 55.8966 93.1978 55.9333C93.3825 55.9701 93.574 55.9512 93.748 55.8791C93.9221 55.807 94.0708 55.685 94.1754 55.5283C94.2801 55.3717 94.3359 55.1876 94.3359 54.9992C94.3356 54.7467 94.2352 54.5047 94.0567 54.3261C93.8781 54.1476 93.6361 54.0471 93.3836 54.0469ZM93.3836 55.4754C93.2894 55.4754 93.1973 55.4475 93.119 55.3952C93.0407 55.3428 92.9797 55.2685 92.9436 55.1815C92.9076 55.0945 92.8981 54.9987 92.9165 54.9063C92.9349 54.814 92.9802 54.7291 93.0468 54.6625C93.1134 54.5959 93.1983 54.5506 93.2907 54.5322C93.383 54.5138 93.4788 54.5232 93.5658 54.5593C93.6528 54.5953 93.7272 54.6564 93.7795 54.7347C93.8318 54.813 93.8597 54.9051 93.8597 54.9992C93.8596 55.1255 93.8094 55.2465 93.7201 55.3358C93.6309 55.4251 93.5098 55.4753 93.3836 55.4754ZM40.8575 39.7611C40.6691 39.7611 40.485 39.817 40.3284 39.9216C40.1718 40.0263 40.0497 40.175 39.9776 40.3491C39.9055 40.5231 39.8867 40.7146 39.9234 40.8993C39.9602 41.0841 40.0509 41.2538 40.1841 41.387C40.3173 41.5201 40.487 41.6109 40.6717 41.6476C40.8564 41.6843 41.0479 41.6655 41.222 41.5934C41.396 41.5213 41.5447 41.3993 41.6494 41.2426C41.754 41.086 41.8099 40.9019 41.8099 40.7135C41.8096 40.461 41.7092 40.2189 41.5306 40.0404C41.3521 39.8619 41.11 39.7614 40.8575 39.7611ZM40.8575 41.1897C40.7633 41.1897 40.6713 41.1618 40.5929 41.1095C40.5146 41.0571 40.4536 40.9828 40.4176 40.8957C40.3815 40.8087 40.3721 40.713 40.3905 40.6206C40.4088 40.5282 40.4542 40.4434 40.5208 40.3768C40.5874 40.3102 40.6722 40.2649 40.7646 40.2465C40.857 40.2281 40.9527 40.2375 41.0397 40.2736C41.1267 40.3096 41.2011 40.3707 41.2534 40.449C41.3058 40.5273 41.3337 40.6193 41.3337 40.7135C41.3336 40.8398 41.2834 40.9608 41.1941 41.0501C41.1048 41.1394 40.9838 41.1896 40.8575 41.1897ZM93.3836 25.9516C93.1952 25.9516 93.0111 26.0075 92.8544 26.1121C92.6978 26.2168 92.5758 26.3655 92.5037 26.5395C92.4316 26.7136 92.4127 26.9051 92.4495 27.0898C92.4862 27.2745 92.5769 27.4442 92.7101 27.5774C92.8433 27.7106 93.013 27.8013 93.1978 27.8381C93.3825 27.8748 93.574 27.856 93.748 27.7839C93.9221 27.7118 94.0708 27.5897 94.1754 27.4331C94.2801 27.2765 94.3359 27.0924 94.3359 26.904C94.3356 26.6515 94.2352 26.4094 94.0567 26.2309C93.8781 26.0523 93.6361 25.9519 93.3836 25.9516ZM93.3836 27.3802C93.2894 27.3802 93.1973 27.3523 93.119 27.2999C93.0407 27.2476 92.9797 27.1732 92.9436 27.0862C92.9076 26.9992 92.8981 26.9035 92.9165 26.8111C92.9349 26.7187 92.9802 26.6339 93.0468 26.5673C93.1134 26.5007 93.1983 26.4553 93.2907 26.437C93.383 26.4186 93.4788 26.428 93.5658 26.4641C93.6528 26.5001 93.7272 26.5611 93.7795 26.6394C93.8318 26.7177 93.8597 26.8098 93.8597 26.904C93.8596 27.0303 93.8094 27.1513 93.7201 27.2406C93.6309 27.3298 93.5098 27.3801 93.3836 27.3802ZM26.2407 34.523C26.2407 34.3347 26.1848 34.1505 26.0802 33.9939C25.9755 33.8373 25.8268 33.7152 25.6528 33.6432C25.4788 33.5711 25.2873 33.5522 25.1025 33.589C24.9178 33.6257 24.7481 33.7164 24.6149 33.8496C24.4817 33.9828 24.391 34.1525 24.3542 34.3372C24.3175 34.522 24.3364 34.7135 24.4084 34.8875C24.4805 35.0615 24.6026 35.2103 24.7592 35.3149C24.9158 35.4196 25.1 35.4754 25.2883 35.4754C25.5408 35.4751 25.7829 35.3747 25.9614 35.1962C26.14 35.0176 26.2404 34.7755 26.2407 34.523ZM24.8121 34.523C24.8121 34.4289 24.8401 34.3368 24.8924 34.2585C24.9447 34.1802 25.0191 34.1191 25.1061 34.0831C25.1931 34.0471 25.2888 34.0376 25.3812 34.056C25.4736 34.0744 25.5584 34.1197 25.625 34.1863C25.6916 34.2529 25.737 34.3378 25.7554 34.4301C25.7737 34.5225 25.7643 34.6183 25.7283 34.7053C25.6922 34.7923 25.6312 34.8667 25.5529 34.919C25.4746 34.9713 25.3825 34.9992 25.2883 34.9992C25.1621 34.9991 25.041 34.9489 24.9517 34.8596C24.8625 34.7703 24.8123 34.6493 24.8121 34.523Z" fill="#02062E"/>
<path d="M23.1845 54.0522L23.8926 53.1213L23.4455 52.8679L22.9907 53.9108H22.976L22.5141 52.8751L22.0593 53.136L22.7598 54.0451V54.0598L21.6641 53.9184V54.4251L22.7669 54.2836V54.2984L22.0593 55.207L22.4836 55.4755L22.9683 54.4251H22.9831L23.4303 55.4679L23.8998 55.1998L23.1845 54.3055V54.2908L24.3093 54.4251V53.9184L23.1845 54.067V54.0522Z" fill="#027189"/>
<path d="M57.873 44.6646L57.4654 45.188L57.7102 45.3427L57.9892 44.7375H57.9978L58.2549 45.3385L58.5254 45.1842L58.1135 44.6689V44.6604L58.7611 44.7375V44.4461L58.1135 44.5318V44.5232L58.5211 43.987L58.264 43.8413L58.0021 44.4418H57.9935L57.7278 43.8451L57.4654 43.9956L57.8692 44.5189V44.5275L57.2383 44.4461V44.7375L57.873 44.6561V44.6646Z" fill="#027189"/>
<path d="M80.6812 40.9617V40.465L79.5779 40.6112V40.5965L80.2722 39.6831L79.8336 39.4346L79.3879 40.4574H79.3731L78.9202 39.4417L78.4741 39.6979L79.1612 40.5893V40.6041L78.0869 40.465V40.9617L79.1683 40.8231V40.8379L78.4741 41.7293L78.8907 41.9927L79.366 40.9617H79.3802L79.8188 41.985L80.2793 41.7222L79.5779 40.845V40.8303L80.6812 40.9617Z" fill="#027189"/>
<path d="M69.5958 25.8508L70.1948 25.0627L69.8167 24.8484L69.4324 25.7308H69.4196L69.0286 24.8546L68.6439 25.0755L69.2367 25.8446V25.857L68.3096 25.7374V26.166L69.2429 26.0465V26.0589L68.6439 26.8279L69.0029 27.0551L69.4134 26.166H69.4258L69.8039 27.0484L70.201 26.8217L69.5958 26.0651V26.0527L70.5477 26.166V25.7374L69.5958 25.8632V25.8508Z" fill="#027189"/>
<path d="M107.931 60.4802C108.036 60.4919 108.133 60.5037 108.221 60.5154C108.309 60.5212 108.408 60.5242 108.52 60.5242C108.895 60.5242 109.264 60.4802 109.627 60.3923C109.996 60.3044 110.304 60.199 110.55 60.0759V54.6091H114.76V56.5867H112.844V67.7136H110.55V62.0359C110.479 62.071 110.389 62.1062 110.277 62.1414C110.166 62.1765 110.043 62.2087 109.908 62.238C109.779 62.2673 109.645 62.2908 109.504 62.3083C109.363 62.3259 109.229 62.3347 109.1 62.3347C109.129 62.4812 109.152 62.613 109.17 62.7302C109.188 62.8474 109.196 62.9822 109.196 63.1345C109.196 63.6619 109.097 64.1365 108.897 64.5583C108.698 64.9744 108.423 65.3289 108.071 65.6218C107.726 65.9089 107.315 66.1316 106.841 66.2898C106.372 66.4421 105.868 66.5183 105.329 66.5183C104.772 66.5183 104.266 66.4392 103.809 66.281C103.352 66.1228 102.936 65.9089 102.561 65.6394C102.186 65.364 101.846 65.0417 101.541 64.6726C101.242 64.3035 100.97 63.908 100.724 63.4861C100.483 63.0583 100.267 62.616 100.073 62.1589C99.8857 61.696 99.7158 61.239 99.5635 60.7878L101.523 59.9968C101.629 60.3308 101.746 60.6736 101.875 61.0251C102.01 61.3767 102.159 61.7195 102.323 62.0535C102.493 62.3816 102.678 62.6921 102.877 62.9851C103.082 63.2722 103.305 63.5271 103.545 63.7498C103.791 63.9666 104.055 64.1394 104.336 64.2683C104.623 64.3914 104.934 64.4529 105.268 64.4529C105.783 64.4529 106.176 64.3035 106.445 64.0046C106.721 63.7058 106.858 63.3044 106.858 62.8005C106.858 62.49 106.809 62.2234 106.709 62.0007C106.609 61.7781 106.472 61.5935 106.296 61.447C106.12 61.3005 105.912 61.1951 105.672 61.1306C105.432 61.0603 105.171 61.0251 104.89 61.0251C104.831 61.0251 104.761 61.0281 104.679 61.0339C104.597 61.0339 104.512 61.0369 104.424 61.0427C104.336 61.0486 104.248 61.0544 104.16 61.0603C104.072 61.0662 103.996 61.072 103.932 61.0779V59.1003C103.984 59.1062 104.037 59.1091 104.09 59.1091C104.148 59.1091 104.204 59.1091 104.257 59.1091C104.562 59.1091 104.846 59.0857 105.109 59.0388C105.373 58.9919 105.602 58.9128 105.795 58.8015C105.988 58.6843 106.141 58.5291 106.252 58.3357C106.363 58.1423 106.419 57.9021 106.419 57.615C106.419 57.1755 106.29 56.8562 106.032 56.657C105.774 56.4578 105.426 56.3582 104.986 56.3582C104.658 56.3582 104.336 56.405 104.02 56.4988C103.703 56.5867 103.396 56.6951 103.097 56.824L102.569 54.908C102.991 54.7029 103.422 54.5505 103.861 54.4509C104.307 54.3513 104.731 54.3015 105.136 54.3015C105.669 54.3015 106.155 54.3806 106.595 54.5388C107.04 54.697 107.421 54.9138 107.737 55.1892C108.054 55.4646 108.3 55.7898 108.476 56.1648C108.651 56.5339 108.739 56.9324 108.739 57.3601C108.739 57.8757 108.607 58.3562 108.344 58.8015C108.086 59.241 107.699 59.6277 107.184 59.9617L107.192 60.0056C107.327 60.0701 107.456 60.1433 107.579 60.2253C107.702 60.3074 107.819 60.3923 107.931 60.4802ZM120.297 56.5867H118.381V67.7136H116.087V56.5867H114.145V54.6091H120.297V56.5867ZM129.877 56.5867H126.933C127.155 57.0437 127.331 57.4949 127.46 57.9402C127.595 58.3796 127.662 58.8396 127.662 59.3201C127.662 59.7478 127.604 60.1492 127.486 60.5242C127.375 60.8992 127.199 61.239 126.959 61.5437C126.719 61.8425 126.411 62.0974 126.036 62.3083C125.667 62.5193 125.225 62.6716 124.709 62.7654L124.691 62.8005C124.938 63.1521 125.187 63.4919 125.438 63.8201C125.696 64.1482 125.966 64.4705 126.247 64.7869C126.528 65.1033 126.827 65.4167 127.144 65.7273C127.46 66.0378 127.806 66.3513 128.181 66.6677L126.73 68.2761C126.268 67.9128 125.822 67.5144 125.395 67.0808C124.967 66.6414 124.56 66.1843 124.173 65.7097C123.786 65.2351 123.423 64.7546 123.083 64.2683C122.743 63.782 122.43 63.3074 122.143 62.8445C121.861 62.3816 121.606 61.9421 121.378 61.5261C121.155 61.1042 120.965 60.7263 120.807 60.3923L122.749 59.3992C122.948 59.9265 123.162 60.2986 123.391 60.5154C123.619 60.7322 123.859 60.8406 124.111 60.8406C124.275 60.8406 124.431 60.8025 124.577 60.7263C124.724 60.6501 124.853 60.5388 124.964 60.3923C125.075 60.24 125.163 60.0583 125.228 59.8474C125.298 59.6306 125.333 59.3816 125.333 59.1003C125.333 58.7078 125.263 58.2859 125.122 57.8347C124.981 57.3835 124.776 56.9675 124.507 56.5867H119.69V54.6091H129.877V56.5867ZM135.423 56.5867H133.507V67.7136H131.213V56.5867H129.271V54.6091H135.423V56.5867ZM131.441 54.8552L131.187 54.3806C130.882 53.8064 130.612 53.3171 130.378 52.9128C130.149 52.5085 129.938 52.1746 129.745 51.9109C129.558 51.6414 129.385 51.4333 129.227 51.2869C129.068 51.1345 128.91 51.0232 128.752 50.9529C128.588 50.8767 128.418 50.8298 128.242 50.8123C128.061 50.7947 127.858 50.7859 127.636 50.7859H125.843V48.8171H127.478C127.94 48.8171 128.339 48.8318 128.673 48.8611C129.001 48.8904 129.297 48.9695 129.561 49.0984C129.824 49.2214 130.073 49.4089 130.308 49.6609C130.548 49.9128 130.806 50.2644 131.081 50.7156C131.362 51.1609 131.682 51.7205 132.039 52.3943C132.396 53.0681 132.827 53.8884 133.331 54.8552H131.441ZM141.936 56.5867H140.23V63.2048C140.23 63.3689 140.225 63.53 140.213 63.6882C140.207 63.8406 140.181 63.9753 140.134 64.0925C140.093 64.2097 140.022 64.3064 139.923 64.3826C139.829 64.4529 139.697 64.488 139.527 64.488C139.293 64.488 139.044 64.4236 138.78 64.2947C138.517 64.1599 138.256 63.9871 137.998 63.7761C137.74 63.5593 137.494 63.3191 137.26 63.0554C137.025 62.7859 136.817 62.5164 136.636 62.2468C136.46 61.9714 136.319 61.7078 136.214 61.4558C136.108 61.2039 136.056 60.9871 136.056 60.8054C136.056 60.7292 136.067 60.6531 136.091 60.5769C136.12 60.5007 136.173 60.4333 136.249 60.3748C136.325 60.3162 136.428 60.2693 136.557 60.2341C136.691 60.199 136.864 60.1814 137.075 60.1814H137.954V56.5867H134.808V54.6091H141.936V56.5867ZM141.03 56.5867V54.6091H153.651V56.5867H151.735V67.7136H149.441V64.4529L149.415 64.4441C149.28 64.5437 149.131 64.6433 148.967 64.7429C148.809 64.8367 148.633 64.9216 148.439 64.9978C148.246 65.074 148.032 65.1355 147.798 65.1824C147.563 65.2292 147.303 65.2527 147.016 65.2527C146.266 65.2527 145.609 65.1062 145.047 64.8132C144.49 64.5144 144.019 64.1248 143.632 63.6443C143.245 63.158 142.938 62.6101 142.709 62.0007C142.48 61.3914 142.322 60.7703 142.234 60.1375C142.609 60.0906 142.923 60.0085 143.175 59.8914C143.433 59.7742 143.638 59.6335 143.79 59.4695C143.948 59.2996 144.06 59.115 144.124 58.9158C144.194 58.7107 144.229 58.4998 144.229 58.283C144.229 58.0193 144.183 57.7498 144.089 57.4744C143.995 57.199 143.846 56.9031 143.641 56.5867H141.03ZM146.559 58.6433C146.559 59.2117 146.412 59.7126 146.119 60.1462C145.826 60.574 145.393 60.9138 144.818 61.1658C144.9 61.5115 145.015 61.8074 145.161 62.0535C145.313 62.2996 145.486 62.5017 145.68 62.6599C145.873 62.8123 146.084 62.9265 146.312 63.0027C146.541 63.073 146.778 63.1082 147.024 63.1082C147.575 63.1082 148.05 62.9734 148.448 62.7039C148.847 62.4285 149.178 62.0476 149.441 61.5613V56.5867H145.917C146.14 56.9441 146.301 57.2986 146.4 57.6501C146.506 57.9958 146.559 58.3269 146.559 58.6433ZM158.011 54.6091H172.987V56.5867H171.071V67.7136H168.777V62.2732H164.251C163.911 62.5017 163.504 62.6658 163.029 62.7654L163.012 62.8005C163.182 63.1521 163.372 63.4919 163.583 63.8201C163.794 64.1482 164.028 64.4705 164.286 64.7869C164.55 65.1033 164.84 65.4167 165.156 65.7273C165.473 66.0378 165.818 66.3513 166.193 66.6677L164.743 68.2761C164.333 67.9128 163.929 67.5085 163.53 67.0632C163.132 66.6121 162.745 66.1433 162.37 65.657C162.001 65.1707 161.649 64.6755 161.315 64.1716C160.981 63.6677 160.671 63.1785 160.384 62.7039C160.097 62.2234 159.839 61.7693 159.61 61.3416C159.382 60.9138 159.188 60.533 159.03 60.199L160.973 59.2058C161.195 59.7742 161.43 60.1902 161.676 60.4539C161.928 60.7117 162.186 60.8406 162.449 60.8406C162.602 60.8406 162.733 60.7996 162.845 60.7175C162.962 60.6355 163.056 60.5242 163.126 60.3835C163.202 60.2371 163.258 60.0642 163.293 59.865C163.328 59.6658 163.346 59.446 163.346 59.2058C163.346 58.7371 163.278 58.2859 163.144 57.8523C163.009 57.4187 162.801 56.9968 162.52 56.5867H158.011V54.6091ZM168.777 60.3132V56.5867H164.901C165.124 57.0437 165.297 57.4949 165.42 57.9402C165.549 58.3796 165.613 58.8396 165.613 59.3201C165.613 59.49 165.604 59.657 165.587 59.821C165.569 59.9851 165.546 60.1492 165.517 60.3132H168.777ZM167.512 67.9246C167.898 67.7019 168.309 67.532 168.742 67.4148C169.176 67.2976 169.601 67.239 170.017 67.239C170.386 67.239 170.737 67.2888 171.071 67.3884C171.405 67.4822 171.701 67.6257 171.959 67.8191C172.211 68.0125 172.413 68.2556 172.565 68.5486C172.718 68.8474 172.794 69.196 172.794 69.5945C172.794 70.0691 172.686 70.4763 172.469 70.8162C172.258 71.1619 171.974 71.4431 171.616 71.6599C171.253 71.8826 170.837 72.0466 170.368 72.1521C169.899 72.2576 169.41 72.3103 168.9 72.3103C168.203 72.3103 167.562 72.2341 166.976 72.0818C166.384 71.9353 165.851 71.7478 165.376 71.5193C164.901 71.2966 164.482 71.0476 164.119 70.7722C163.756 70.5027 163.451 70.2449 163.205 69.9988L164.559 68.3992C164.875 68.739 165.191 69.0408 165.508 69.3044C165.824 69.5681 166.155 69.7878 166.501 69.9636C166.847 70.1453 167.213 70.283 167.6 70.3767C167.986 70.4705 168.408 70.5173 168.865 70.5173C169.088 70.5173 169.305 70.5027 169.516 70.4734C169.721 70.45 169.902 70.4001 170.061 70.324C170.219 70.2537 170.348 70.1541 170.447 70.0251C170.541 69.9021 170.588 69.741 170.588 69.5417C170.588 69.4011 170.564 69.281 170.518 69.1814C170.471 69.0876 170.406 69.0085 170.324 68.9441C170.242 68.8796 170.146 68.8328 170.034 68.8035C169.923 68.7742 169.803 68.7595 169.674 68.7595C169.533 68.7595 169.39 68.7742 169.243 68.8035C169.097 68.8328 168.956 68.8708 168.821 68.9177C168.687 68.9705 168.563 69.0232 168.452 69.0759C168.335 69.1345 168.241 69.1902 168.171 69.2429L167.512 67.9246ZM177.355 57.3162C177.391 57.2341 177.423 57.1375 177.452 57.0261C177.481 56.9089 177.496 56.7888 177.496 56.6658C177.496 56.5193 177.473 56.3933 177.426 56.2878C177.385 56.1765 177.329 56.0857 177.259 56.0154C177.188 55.9451 177.109 55.8923 177.021 55.8572C176.934 55.822 176.843 55.8044 176.749 55.8044C176.497 55.8044 176.283 55.9275 176.107 56.1736C175.938 56.4138 175.853 56.739 175.853 57.1492C175.853 57.8171 176.046 58.3328 176.433 58.696C176.825 59.0593 177.364 59.241 178.05 59.241C178.513 59.241 179.017 59.1589 179.562 58.9949L179.852 60.8757C179.705 60.8933 179.506 60.9285 179.254 60.9812C179.008 61.0281 178.762 61.116 178.516 61.2449C178.275 61.3679 178.064 61.5437 177.883 61.7722C177.707 62.0007 177.619 62.2996 177.619 62.6687C177.619 62.9031 177.657 63.1111 177.733 63.2927C177.815 63.4685 177.927 63.6179 178.067 63.741C178.208 63.8582 178.375 63.949 178.568 64.0134C178.768 64.072 178.984 64.1013 179.219 64.1013C179.523 64.1013 179.805 64.0544 180.062 63.9607C180.32 63.8669 180.552 63.7498 180.757 63.6091C180.962 63.4685 181.138 63.3162 181.284 63.1521C181.431 62.988 181.548 62.8386 181.636 62.7039V54.6091H185.846V56.5867H183.93V67.7136H181.636V65.4197L181.601 65.4109C181.396 65.575 181.182 65.7126 180.959 65.824C180.742 65.9294 180.52 66.0144 180.291 66.0789C180.068 66.1375 179.846 66.1785 179.623 66.2019C179.406 66.2253 179.198 66.2371 178.999 66.2371C178.46 66.2371 177.962 66.1462 177.505 65.9646C177.048 65.7771 176.652 65.5281 176.318 65.2175C175.984 64.9011 175.721 64.5378 175.527 64.1277C175.34 63.7175 175.246 63.2839 175.246 62.8269C175.246 62.4753 175.311 62.1267 175.439 61.781C175.574 61.4353 175.782 61.1013 176.063 60.7791V60.6912C175.636 60.4919 175.27 60.2605 174.965 59.9968C174.666 59.7332 174.42 59.449 174.227 59.1443C174.033 58.8337 173.89 58.5115 173.796 58.1775C173.708 57.8376 173.664 57.4949 173.664 57.1492C173.664 56.698 173.743 56.2878 173.901 55.9187C174.06 55.5437 174.276 55.2214 174.552 54.9519C174.827 54.6824 175.155 54.4744 175.536 54.3279C175.917 54.1814 176.333 54.1082 176.784 54.1082C177.259 54.1082 177.669 54.1873 178.015 54.3455C178.366 54.4978 178.653 54.6941 178.876 54.9343C179.104 55.1687 179.271 55.4324 179.377 55.7253C179.488 56.0183 179.544 56.2996 179.544 56.5691C179.544 56.8328 179.5 57.0935 179.412 57.3513C179.33 57.6033 179.239 57.823 179.14 58.0105L177.355 57.3162ZM191.392 56.5867H189.476V67.7136H187.182V56.5867H185.239V54.6091H191.392V56.5867Z" fill="#012253"/>
</svg>
