<svg width="231" height="121" viewBox="0 0 231 121" fill="none" xmlns="http://www.w3.org/2000/svg">
<rect x="0.583984" y="0.713623" width="230" height="120" rx="7" fill="#E2F8E2"/>
<g clip-path="url(#clip0_0_1)">
<path d="M74.5843 58.5262C68.7452 58.5424 62.906 58.5352 57.0669 58.5352H56.35V54.1729C57.4901 54.308 58.605 54.5169 59.7271 54.5566C63.5706 54.6971 66.8702 53.366 69.6565 50.7328C70.2419 50.1799 70.2275 49.6342 69.6133 49.0182C67.9617 47.3576 66.3047 45.6988 64.6387 44.0508C64.3937 43.8076 64.3145 43.5807 64.3595 43.2295C64.7269 40.3063 65.4203 34.1519 65.4203 33.9556C63.3491 34.2798 61.3102 34.5986 59.2732 34.9174C58.3492 35.0633 57.4199 35.1876 56.4995 35.3605C56.1501 35.4253 55.9232 35.3442 55.6782 35.0939C54.5723 33.9628 53.4502 32.8497 52.3264 31.7366C52.0652 31.4773 51.7806 31.2449 51.5051 31H50.9197C49.6175 31.9672 48.7043 33.2676 48.0235 34.6923C45.6461 39.6741 46.0063 44.4686 49.1582 49.0308C49.2861 49.2145 49.4176 49.4469 49.4176 49.6576C49.4356 52.5844 49.4302 55.513 49.4302 58.4884H37.6492V38.5394C37.6492 37.1309 37.4079 36.886 36.0246 36.886H17.5147C16.281 36.886 16 37.1688 16 38.4061V89.4871C16 90.1823 16.2756 90.9928 17.5219 90.9928C36.5199 90.9928 55.5197 90.991 74.5195 91C75.1499 91 75.9964 90.5749 75.9964 89.7518V59.2394C75.6938 58.6685 75.2075 58.5244 74.5843 58.5262ZM35.6158 88.963H30.769V88.3308C30.769 85.422 30.7708 82.5132 30.769 79.6026C30.769 78.5184 30.4574 78.2032 29.384 78.2014C27.6657 78.1996 25.9475 78.1996 24.2292 78.2032C23.1846 78.205 22.8838 78.5076 22.8838 79.5738C22.882 82.4826 22.8838 85.3914 22.8838 88.3002V88.9756H18.0244V38.9122H35.6158V88.963ZM62.5404 41.857C61.973 41.2753 61.4651 40.7529 60.923 40.1964C61.557 39.4345 62.2234 38.6367 62.888 37.8388C62.8122 38.4067 62.6964 40.2205 62.5404 41.857ZM61.2526 36.7257C60.6727 37.4209 60.0909 38.1161 59.5308 38.788C58.9832 38.2296 58.4591 37.6947 57.908 37.1309C58.976 36.9634 60.967 36.7567 61.2526 36.7257ZM51.1683 33.6044C56.5968 39.0365 62.0271 44.4704 67.4556 49.9043C64.0101 53.1247 57.1569 53.8289 52.4632 49.6666C47.476 45.2449 47.4274 37.9144 51.1683 33.6044ZM54.2751 53.3931V58.4758H51.4888V51.6478C52.4074 52.2223 53.3188 52.7933 54.2751 53.3931ZM73.9648 88.9738H37.6978V60.5704H73.9648V88.9738Z" fill="#02062E"/>
<path d="M46.491 82.1338C46.4914 83.0506 46.4988 83.9674 46.489 84.8839C46.4804 85.7079 46.1283 86.0732 45.319 86.0788C43.7976 86.0892 42.2763 86.0896 40.7549 86.0782C40.0062 86.0727 39.6058 85.7222 39.5953 84.9805C39.5685 83.089 39.5688 81.1965 39.5942 79.3049C39.6043 78.556 39.9948 78.2109 40.7457 78.2056C42.2865 78.1948 43.8275 78.1939 45.3682 78.2062C46.12 78.2123 46.4757 78.5722 46.487 79.325C46.5015 80.2611 46.4908 81.1974 46.491 82.1338ZM44.3976 84.0185C44.3976 82.735 44.3976 81.5188 44.3976 80.2855C43.4821 80.2855 42.6145 80.2855 41.7195 80.2855C41.7195 81.5524 41.7195 82.7795 41.7195 84.0185C42.6415 84.0185 43.4947 84.0185 44.3976 84.0185Z" fill="#02062E"/>
<path d="M64.1962 82.1493C64.196 83.0659 64.2055 83.9826 64.1933 84.8992C64.1823 85.7189 63.8275 86.0737 63.0076 86.0789C61.5061 86.0885 60.0041 86.0881 58.5025 86.0791C57.6852 86.0742 57.3108 85.7266 57.3023 84.9062C57.2836 83.0536 57.2827 81.2006 57.3037 79.3482C57.3127 78.5537 57.6816 78.2105 58.4663 78.2051C59.9876 78.1946 61.5088 78.1948 63.03 78.2049C63.8444 78.2103 64.1838 78.5628 64.1938 79.3995C64.2048 80.3159 64.1964 81.2327 64.1962 82.1493ZM62.0914 84.0111C62.0914 82.7231 62.0914 81.5075 62.0914 80.2909C61.17 80.2909 60.3031 80.2909 59.4103 80.2909C59.4103 81.5499 59.4103 82.7642 59.4103 84.0111C60.3251 84.0111 61.1916 84.0111 62.0914 84.0111Z" fill="#02062E"/>
<path d="M64.1961 70.3181C64.1963 71.2347 64.2044 72.1514 64.1939 73.0678C64.1842 73.9086 63.8514 74.2598 63.0347 74.2661C61.5137 74.2782 59.9923 74.2776 58.4713 74.2661C57.6795 74.2601 57.313 73.9224 57.304 73.1294C57.2829 71.2575 57.282 69.3849 57.3058 67.5131C57.3157 66.7388 57.7046 66.3949 58.4971 66.3892C59.9986 66.3782 61.5004 66.378 63.0021 66.3892C63.8227 66.3953 64.1813 66.7539 64.1928 67.568C64.2058 68.4847 64.1959 69.4015 64.1961 70.3181ZM62.112 68.4732C61.176 68.4732 60.2949 68.4732 59.4212 68.4732C59.4212 69.7419 59.4212 70.9569 59.4212 72.1756C60.3473 72.1756 61.2138 72.1756 62.112 72.1756C62.112 70.9287 62.112 69.7264 62.112 68.4732Z" fill="#02062E"/>
<path d="M46.4913 70.3722C46.4911 71.289 46.5007 72.2058 46.4881 73.1223C46.4773 73.9121 46.1316 74.2603 45.3354 74.2664C43.8142 74.2783 42.2926 74.2776 40.7714 74.2666C39.9845 74.2608 39.6019 73.9163 39.5924 73.1353C39.5695 71.2632 39.569 69.3903 39.5937 67.5182C39.6037 66.7492 40.0034 66.3958 40.7876 66.3898C42.2894 66.3785 43.7913 66.3787 45.2931 66.3895C46.1329 66.3956 46.482 66.7627 46.4895 67.6221C46.4978 68.5387 46.4915 69.4555 46.4913 70.3722ZM44.3954 72.1906C44.3954 70.9016 44.3954 69.6849 44.3954 68.4598C43.4772 68.4598 42.6091 68.4598 41.7218 68.4598C41.7218 69.728 41.7218 70.9558 41.7218 72.1906C42.6463 72.1906 43.4995 72.1906 44.3954 72.1906Z" fill="#02062E"/>
<path d="M48.4482 70.3337C48.4482 69.4169 48.4405 68.4998 48.4505 67.5832C48.4594 66.7731 48.8257 66.3965 49.6342 66.39C51.1362 66.3781 52.6385 66.379 54.1404 66.3895C54.9754 66.3952 55.3554 66.7729 55.3608 67.6156C55.3727 69.4297 55.3727 71.2441 55.3608 73.0582C55.3552 73.9035 54.9855 74.2626 54.137 74.2676C52.635 74.2766 51.1327 74.2775 49.6308 74.2669C48.8118 74.2612 48.4588 73.9018 48.4502 73.0843C48.4406 72.1674 48.448 71.2504 48.4482 70.3337ZM50.5191 72.1613C51.4337 72.1613 52.3463 72.1613 53.2905 72.1613C53.2905 70.9187 53.2905 69.706 53.2905 68.4616C52.3492 68.4616 51.4496 68.4616 50.5191 68.4616C50.5191 69.702 50.5191 70.9019 50.5191 72.1613Z" fill="#02062E"/>
<path d="M73.0642 70.3129C73.0642 71.1907 73.068 72.0684 73.0633 72.9463C73.0581 73.9217 72.7279 74.2647 71.7764 74.2688C70.3136 74.2751 68.8505 74.2764 67.3875 74.2681C66.4988 74.263 66.1523 73.9129 66.1492 73.0205C66.1431 71.2259 66.1428 69.4312 66.1494 67.6368C66.1527 66.7591 66.5195 66.3935 67.4012 66.3886C68.864 66.3807 70.3271 66.3811 71.7901 66.3885C72.6995 66.393 73.0552 66.7575 73.0628 67.6799C73.0698 68.5573 73.0642 69.4352 73.0642 70.3129ZM68.2101 72.17C69.1805 72.17 70.0834 72.17 70.9868 72.17C70.9868 70.9026 70.9868 69.6866 70.9868 68.4686C70.0367 68.4686 69.1335 68.4686 68.2101 68.4686C68.2101 69.7187 68.2101 70.9207 68.2101 72.17Z" fill="#02062E"/>
<path d="M48.4487 82.1034C48.4487 81.1865 48.4393 80.2696 48.4518 79.353C48.4622 78.5765 48.8273 78.2109 49.6088 78.2053C51.1304 78.1947 52.6519 78.1952 54.1735 78.205C54.9766 78.2102 55.3547 78.58 55.3606 79.393C55.3741 81.2267 55.3745 83.0604 55.3602 84.8941C55.3539 85.7011 54.968 86.0738 54.163 86.079C52.6415 86.0887 51.1197 86.0902 49.5983 86.0779C48.8267 86.0718 48.4613 85.6939 48.4516 84.9126C48.4397 83.9762 48.4487 83.0398 48.4487 82.1034ZM50.5228 84.004C51.485 84.004 52.371 84.004 53.2722 84.004C53.2722 82.7376 53.2722 81.5121 53.2722 80.2868C52.3261 80.2868 51.4405 80.2868 50.5228 80.2868C50.5228 81.5406 50.5228 82.7542 50.5228 84.004Z" fill="#02062E"/>
<path d="M73.0646 82.1329C73.0646 83.0302 73.0716 83.9275 73.0626 84.8247C73.0537 85.7105 72.6932 86.0755 71.8177 86.0797C70.3352 86.0869 68.8527 86.0874 67.3704 86.0793C66.5239 86.0746 66.1541 85.7079 66.1505 84.8636C66.1424 83.0495 66.1428 81.2354 66.1503 79.4216C66.1539 78.5682 66.5113 78.2089 67.3607 78.2042C68.8626 78.1957 70.3645 78.1954 71.8665 78.2046C72.6807 78.2096 73.0478 78.5704 73.0611 79.3828C73.0759 80.2992 73.0644 81.2162 73.0646 82.1329ZM68.2378 80.2821C68.2378 81.5762 68.2378 82.7921 68.2378 83.9888C69.1954 83.9888 70.0989 83.9888 70.9807 83.9888C70.9807 82.7168 70.9807 81.5006 70.9807 80.2821C70.0384 80.2821 69.149 80.2821 68.2378 80.2821Z" fill="#02062E"/>
<path d="M26.8292 63.4453C29.0147 63.4453 31.2001 63.4429 33.3856 63.4464C34.3549 63.4478 34.6966 63.7736 34.6997 64.743C34.7085 67.4943 34.7092 70.2457 34.6991 72.997C34.6957 73.9399 34.3584 74.2677 33.4239 74.2686C29.014 74.2728 24.604 74.2729 20.194 74.2684C19.2779 74.2675 18.9363 73.9143 18.9345 72.9774C18.9296 70.2261 18.9291 67.4747 18.9348 64.7233C18.9368 63.8023 19.2952 63.4485 20.2141 63.4467C22.4192 63.4424 24.6243 63.4453 26.8292 63.4453ZM21.0057 65.5106C21.0057 67.7703 21.0057 69.9631 21.0057 72.1826C24.8797 72.1826 28.7121 72.1826 32.5751 72.1826C32.5751 69.9395 32.5751 67.7348 32.5751 65.5106C28.6962 65.5106 24.8777 65.5106 21.0057 65.5106Z" fill="#02062E"/>
<path d="M27.8007 57.0644C27.8007 55.6799 27.7954 54.2954 27.8026 52.9111C27.8073 51.9889 28.1567 51.6361 29.0751 51.6309C30.518 51.6227 31.961 51.6235 33.4041 51.6305C34.3242 51.635 34.6949 51.9842 34.6987 52.8983C34.71 55.6671 34.7093 58.4361 34.699 61.2051C34.6956 62.1239 34.3377 62.4755 33.417 62.4836C31.9742 62.4963 30.5311 62.4958 29.0881 62.4837C28.134 62.4758 27.8059 62.1296 27.8021 61.1594C27.7967 59.7943 27.8007 58.4293 27.8007 57.0644ZM32.5833 60.371C32.5833 58.0934 32.5833 55.904 32.5833 53.692C31.6651 53.692 30.7989 53.692 29.9002 53.692C29.9002 55.9312 29.9002 58.1359 29.9002 60.371C30.813 60.371 31.6773 60.371 32.5833 60.371Z" fill="#02062E"/>
<path d="M27.8006 45.2692C27.8006 43.8847 27.7956 42.5002 27.8024 41.1157C27.8071 40.1851 28.1374 39.8415 29.0684 39.8328C30.5307 39.8191 31.9936 39.8175 33.4559 39.8335C34.3418 39.8433 34.6945 40.1968 34.6983 41.0898C34.7096 43.8588 34.7091 46.6278 34.699 49.3968C34.6956 50.324 34.3346 50.6767 33.4233 50.6817C31.9802 50.6897 30.5372 50.6888 29.0942 50.6821C28.1435 50.6778 27.8057 50.3316 27.8019 49.3642C27.7967 47.9993 27.8006 46.6343 27.8006 45.2692ZM32.5939 41.9504C31.6467 41.9504 30.7823 41.9504 29.9079 41.9504C29.9079 44.2066 29.9079 46.4102 29.9079 48.6096C30.831 48.6096 31.6975 48.6096 32.5939 48.6096C32.5939 46.3773 32.5939 44.188 32.5939 41.9504Z" fill="#02062E"/>
<path d="M25.8494 45.2339C25.8494 46.6186 25.8533 48.0033 25.8481 49.388C25.8447 50.3096 25.4893 50.6761 24.5801 50.6814C23.1174 50.6898 21.6546 50.6904 20.1919 50.681C19.3133 50.6754 18.9378 50.306 18.9355 49.4316C18.9279 46.6426 18.9275 43.8538 18.9357 41.0648C18.9382 40.2181 19.2971 39.8456 20.148 39.8348C21.6495 39.8157 23.1515 39.8152 24.6531 39.8351C25.4953 39.8465 25.843 40.2271 25.8476 41.0793C25.8546 42.4646 25.8494 43.8493 25.8494 45.2339ZM23.7779 41.9547C22.8159 41.9547 21.9152 41.9547 20.9999 41.9547C20.9999 44.2019 20.9999 46.3922 20.9999 48.6155C21.9384 48.6155 22.8408 48.6155 23.7779 48.6155C23.7779 46.3884 23.7779 44.1981 23.7779 41.9547Z" fill="#02062E"/>
<path d="M18.9322 57.0138C18.9322 55.6682 18.9288 54.3224 18.9333 52.9768C18.9367 51.9883 19.2888 51.6333 20.2728 51.6297C21.6964 51.6245 23.1201 51.6234 24.5437 51.6303C25.4922 51.6348 25.8466 51.9945 25.8479 52.9487C25.8513 55.6986 25.8519 58.4483 25.8475 61.1983C25.8461 62.1085 25.4893 62.4749 24.5718 62.4833C23.1288 62.4963 21.6854 62.4952 20.2423 62.4841C19.2908 62.4767 18.9376 62.1148 18.9337 61.168C18.9279 59.7831 18.9322 58.3985 18.9322 57.0138ZM21.0001 53.6835C21.0001 55.9418 21.0001 58.1332 21.0001 60.349C21.9509 60.349 22.8646 60.349 23.7667 60.349C23.7667 58.0901 23.7667 55.8994 23.7667 53.6835C22.8323 53.6835 21.9435 53.6835 21.0001 53.6835Z" fill="#02062E"/>
<path d="M44.3978 84.0184C43.4949 84.0184 42.6417 84.0184 41.7197 84.0184C41.7197 82.7796 41.7197 81.5525 41.7197 80.2854C42.6147 80.2854 43.4823 80.2854 44.3978 80.2854C44.3978 81.5186 44.3978 82.7349 44.3978 84.0184Z" fill="#20C1A4"/>
<path d="M62.0913 84.0112C61.1914 84.0112 60.3248 84.0112 59.4102 84.0112C59.4102 82.7643 59.4102 81.5498 59.4102 80.291C60.3028 80.291 61.1698 80.291 62.0913 80.291C62.0913 81.5075 62.0913 82.723 62.0913 84.0112Z" fill="#20C1A4"/>
<path d="M62.1117 68.4734C62.1117 69.7266 62.1117 70.9288 62.1117 72.1757C61.2135 72.1757 60.347 72.1757 59.4209 72.1757C59.4209 70.9571 59.4209 69.7421 59.4209 68.4734C60.2946 68.4734 61.1757 68.4734 62.1117 68.4734Z" fill="#20C1A4"/>
<path d="M44.3952 72.1905C43.4992 72.1905 42.646 72.1905 41.7217 72.1905C41.7217 70.9555 41.7217 69.7277 41.7217 68.4597C42.6089 68.4597 43.477 68.4597 44.3952 68.4597C44.3952 69.6848 44.3952 70.9015 44.3952 72.1905Z" fill="#20C1A4"/>
<path d="M50.5195 72.1613C50.5195 70.9018 50.5195 69.7021 50.5195 68.4617C51.45 68.4617 52.3498 68.4617 53.2909 68.4617C53.2909 69.7062 53.2909 70.9189 53.2909 72.1613C52.3467 72.1613 51.4341 72.1613 50.5195 72.1613Z" fill="#20C1A4"/>
<path d="M68.21 72.1699C68.21 70.9209 68.21 69.7186 68.21 68.4685C69.1334 68.4685 70.0366 68.4685 70.9867 68.4685C70.9867 69.6864 70.9867 70.9025 70.9867 72.1699C70.0833 72.1699 69.1804 72.1699 68.21 72.1699Z" fill="#20C1A4"/>
<path d="M50.5225 84.004C50.5225 82.7542 50.5225 81.5408 50.5225 80.2869C51.4401 80.2869 52.3259 80.2869 53.2718 80.2869C53.2718 81.512 53.2718 82.7374 53.2718 84.004C52.3704 84.004 51.4846 84.004 50.5225 84.004Z" fill="#20C1A4"/>
<path d="M68.2373 80.2822C69.1485 80.2822 70.0379 80.2822 70.9802 80.2822C70.9802 81.5007 70.9802 82.717 70.9802 83.9889C70.0984 83.9889 69.1949 83.9889 68.2373 83.9889C68.2373 82.7922 68.2373 81.5763 68.2373 80.2822Z" fill="#20C1A4"/>
<path d="M21.0059 65.5105C24.8779 65.5105 28.6964 65.5105 32.5752 65.5105C32.5752 67.7347 32.5752 69.9394 32.5752 72.1825C28.7122 72.1825 24.8798 72.1825 21.0059 72.1825C21.0059 69.9632 21.0059 67.7702 21.0059 65.5105Z" fill="#20C1A4"/>
<path d="M32.5835 60.3712C31.6775 60.3712 30.8132 60.3712 29.9004 60.3712C29.9004 58.136 29.9004 55.9313 29.9004 53.6921C30.7991 53.6921 31.6653 53.6921 32.5835 53.6921C32.5835 55.9041 32.5835 58.0935 32.5835 60.3712Z" fill="#20C1A4"/>
<path d="M32.5942 41.9504C32.5942 44.1881 32.5942 46.3774 32.5942 48.6096C31.6978 48.6096 30.8313 48.6096 29.9082 48.6096C29.9082 46.4103 29.9082 44.2067 29.9082 41.9504C30.7826 41.9504 31.647 41.9504 32.5942 41.9504Z" fill="#20C1A4"/>
<path d="M23.778 41.9546C23.778 44.198 23.778 46.3884 23.778 48.6154C22.8411 48.6154 21.9387 48.6154 21 48.6154C21 46.3921 21 44.2018 21 41.9546C21.9153 41.9546 22.8162 41.9546 23.778 41.9546Z" fill="#20C1A4"/>
<path d="M21 53.6836C21.9434 53.6836 22.8321 53.6836 23.7667 53.6836C23.7667 55.8995 23.7667 58.0902 23.7667 60.3491C22.8645 60.3491 21.9508 60.3491 21 60.3491C21 58.1332 21 55.9418 21 53.6836Z" fill="#20C1A4"/>
</g>
<path d="M93.3605 41.9497C93.4992 41.9497 93.6218 41.9924 93.7285 42.0777C93.8352 42.1524 93.9098 42.2537 93.9525 42.3817L97.4405 52.9897H95.7765L93.0245 44.1097C92.9818 43.9497 92.9392 43.7897 92.8965 43.6297C92.8538 43.4697 92.8112 43.3204 92.7685 43.1817H92.3205C92.2778 43.3204 92.2352 43.4697 92.1925 43.6297C92.1498 43.7897 92.1018 43.9497 92.0485 44.1097L89.2965 52.9897H87.6485L91.1365 42.3817C91.1792 42.2537 91.2538 42.1524 91.3605 42.0777C91.4672 41.9924 91.5898 41.9497 91.7285 41.9497H93.3605ZM95.3445 48.3017V49.6297H89.7125V48.3017H95.3445ZM100.511 41.9497V52.9897H98.9114V41.9497H100.511ZM104.793 41.9497V52.9897H103.193V41.9497H104.793ZM118.066 41.9497C118.482 41.9497 118.695 42.1684 118.706 42.6057L119.154 52.9897H117.586L117.186 43.2457H116.866L114.53 51.1657C114.445 51.5177 114.221 51.6937 113.858 51.6937H112.546C112.173 51.6937 111.938 51.5177 111.842 51.1657L109.506 43.2457H109.186L108.818 52.9897H107.25L107.682 42.6057C107.703 42.1684 107.917 41.9497 108.322 41.9497H110.05C110.391 41.9497 110.615 42.1257 110.722 42.4777L112.658 49.0057C112.743 49.2511 112.813 49.4964 112.866 49.7417C112.919 49.9871 112.983 50.2431 113.058 50.5097H113.33C113.405 50.2431 113.469 49.9871 113.522 49.7417C113.586 49.4964 113.655 49.2404 113.73 48.9737L115.666 42.4777C115.751 42.1257 115.975 41.9497 116.338 41.9497H118.066ZM124.783 41.7577C125.316 41.7684 125.865 41.7951 126.431 41.8377C127.007 41.8804 127.577 41.9657 128.143 42.0937L128.031 43.2297C127.572 43.2084 127.055 43.1924 126.479 43.1817C125.913 43.1711 125.364 43.1657 124.831 43.1657C124.457 43.1657 124.137 43.1764 123.871 43.1977C123.604 43.2191 123.385 43.2777 123.215 43.3737C123.044 43.4697 122.916 43.6244 122.831 43.8377C122.756 44.0511 122.719 44.3444 122.719 44.7177C122.719 45.2831 122.825 45.6831 123.039 45.9177C123.252 46.1417 123.599 46.3124 124.079 46.4297L126.303 47.0217C127.156 47.2351 127.743 47.5977 128.063 48.1097C128.383 48.6111 128.543 49.2884 128.543 50.1417C128.543 50.7817 128.468 51.2991 128.319 51.6937C128.18 52.0884 127.956 52.3924 127.647 52.6057C127.348 52.8191 126.959 52.9684 126.479 53.0537C125.999 53.1391 125.428 53.1817 124.767 53.1817C124.404 53.1817 123.924 53.1657 123.327 53.1337C122.729 53.1017 122.041 53.0111 121.263 52.8617L121.375 51.6937C122.004 51.7151 122.516 51.7364 122.911 51.7577C123.316 51.7684 123.663 51.7737 123.951 51.7737C124.239 51.7737 124.527 51.7737 124.815 51.7737C125.348 51.7737 125.769 51.7364 126.079 51.6617C126.388 51.5764 126.607 51.4164 126.735 51.1817C126.863 50.9364 126.927 50.5844 126.927 50.1257C126.927 49.7311 126.879 49.4217 126.783 49.1977C126.697 48.9737 126.553 48.8084 126.351 48.7017C126.159 48.5844 125.908 48.4884 125.599 48.4137L123.311 47.7897C122.511 47.5657 121.945 47.2031 121.615 46.7017C121.284 46.2004 121.119 45.5337 121.119 44.7017C121.119 44.0617 121.188 43.5444 121.327 43.1497C121.476 42.7551 121.7 42.4617 121.999 42.2697C122.297 42.0671 122.676 41.9337 123.135 41.8697C123.593 41.7951 124.143 41.7577 124.783 41.7577ZM137.392 41.7577C137.925 41.7684 138.475 41.7951 139.04 41.8377C139.616 41.8804 140.187 41.9657 140.752 42.0937L140.64 43.2297C140.181 43.2084 139.664 43.1924 139.088 43.1817C138.523 43.1711 137.973 43.1657 137.44 43.1657C137.067 43.1657 136.747 43.1764 136.48 43.1977C136.213 43.2191 135.995 43.2777 135.824 43.3737C135.653 43.4697 135.525 43.6244 135.44 43.8377C135.365 44.0511 135.328 44.3444 135.328 44.7177C135.328 45.2831 135.435 45.6831 135.648 45.9177C135.861 46.1417 136.208 46.3124 136.688 46.4297L138.912 47.0217C139.765 47.2351 140.352 47.5977 140.672 48.1097C140.992 48.6111 141.152 49.2884 141.152 50.1417C141.152 50.7817 141.077 51.2991 140.928 51.6937C140.789 52.0884 140.565 52.3924 140.256 52.6057C139.957 52.8191 139.568 52.9684 139.088 53.0537C138.608 53.1391 138.037 53.1817 137.376 53.1817C137.013 53.1817 136.533 53.1657 135.936 53.1337C135.339 53.1017 134.651 53.0111 133.872 52.8617L133.984 51.6937C134.613 51.7151 135.125 51.7364 135.52 51.7577C135.925 51.7684 136.272 51.7737 136.56 51.7737C136.848 51.7737 137.136 51.7737 137.424 51.7737C137.957 51.7737 138.379 51.7364 138.688 51.6617C138.997 51.5764 139.216 51.4164 139.344 51.1817C139.472 50.9364 139.536 50.5844 139.536 50.1257C139.536 49.7311 139.488 49.4217 139.392 49.1977C139.307 48.9737 139.163 48.8084 138.96 48.7017C138.768 48.5844 138.517 48.4884 138.208 48.4137L135.92 47.7897C135.12 47.5657 134.555 47.2031 134.224 46.7017C133.893 46.2004 133.728 45.5337 133.728 44.7017C133.728 44.0617 133.797 43.5444 133.936 43.1497C134.085 42.7551 134.309 42.4617 134.608 42.2697C134.907 42.0671 135.285 41.9337 135.744 41.8697C136.203 41.7951 136.752 41.7577 137.392 41.7577ZM146.902 44.9897C147.5 44.9897 148.001 45.0697 148.406 45.2297C148.822 45.3791 149.132 45.6404 149.334 46.0137C149.548 46.3871 149.654 46.8991 149.654 47.5497V52.9897H148.438L148.198 51.2937L148.102 51.1017V47.5497C148.102 47.0911 147.996 46.7604 147.782 46.5577C147.569 46.3551 147.164 46.2537 146.566 46.2537C146.161 46.2537 145.649 46.2751 145.03 46.3177C144.422 46.3604 143.82 46.4031 143.222 46.4457L143.078 45.3417C143.441 45.2777 143.841 45.2191 144.278 45.1657C144.726 45.1124 145.18 45.0697 145.638 45.0377C146.097 45.0057 146.518 44.9897 146.902 44.9897ZM148.95 48.1737L148.934 49.2617L145.254 49.2777C144.892 49.2884 144.636 49.3844 144.486 49.5657C144.348 49.7364 144.278 49.9764 144.278 50.2857V50.7657C144.278 51.1497 144.369 51.4324 144.55 51.6137C144.742 51.7844 145.041 51.8697 145.446 51.8697C145.745 51.8697 146.076 51.8164 146.438 51.7097C146.812 51.5924 147.185 51.4217 147.558 51.1977C147.932 50.9631 148.268 50.6697 148.566 50.3177V51.3257C148.46 51.4751 148.3 51.6564 148.086 51.8697C147.873 52.0724 147.612 52.2697 147.302 52.4617C147.004 52.6537 146.668 52.8137 146.294 52.9417C145.932 53.0697 145.532 53.1337 145.094 53.1337C144.625 53.1337 144.209 53.0537 143.846 52.8937C143.494 52.7231 143.217 52.4777 143.014 52.1577C142.812 51.8271 142.71 51.4271 142.71 50.9577V50.1097C142.71 49.5017 142.902 49.0271 143.286 48.6857C143.681 48.3444 144.225 48.1737 144.918 48.1737H148.95ZM154.146 42.8937V50.7657C154.146 51.1284 154.221 51.3897 154.37 51.5497C154.53 51.6991 154.797 51.7737 155.17 51.7737H156.322L156.498 52.9097C156.317 52.9631 156.109 53.0057 155.874 53.0377C155.65 53.0697 155.421 53.0911 155.186 53.1017C154.962 53.1231 154.781 53.1337 154.642 53.1337C153.981 53.1337 153.474 52.9524 153.122 52.5897C152.77 52.2271 152.594 51.7044 152.594 51.0217V42.8937H154.146ZM156.578 45.1817V46.3337H151.186V45.2617L152.722 45.1817H156.578ZM161.454 44.9897C162.659 44.9897 163.529 45.2084 164.062 45.6457C164.606 46.0724 164.878 46.7071 164.878 47.5497C164.889 48.2537 164.734 48.7977 164.414 49.1817C164.105 49.5657 163.598 49.7577 162.894 49.7577H158.382V48.6537H162.494C162.846 48.6537 163.075 48.5417 163.182 48.3177C163.289 48.0937 163.342 47.8377 163.342 47.5497C163.331 47.0697 163.187 46.7284 162.91 46.5257C162.643 46.3231 162.179 46.2217 161.518 46.2217C160.974 46.2217 160.547 46.3017 160.238 46.4617C159.929 46.6217 159.71 46.8991 159.582 47.2937C159.465 47.6884 159.406 48.2431 159.406 48.9577C159.406 49.7577 159.481 50.3711 159.63 50.7977C159.79 51.2137 160.041 51.5017 160.382 51.6617C160.734 51.8217 161.198 51.9017 161.774 51.9017C162.179 51.9017 162.633 51.8857 163.134 51.8537C163.646 51.8111 164.11 51.7631 164.526 51.7097L164.686 52.7177C164.43 52.8244 164.121 52.9151 163.758 52.9897C163.395 53.0537 163.022 53.1017 162.638 53.1337C162.254 53.1657 161.902 53.1817 161.582 53.1817C160.665 53.1817 159.929 53.0431 159.374 52.7657C158.819 52.4884 158.414 52.0511 158.158 51.4537C157.902 50.8457 157.774 50.0511 157.774 49.0697C157.774 48.0457 157.902 47.2351 158.158 46.6377C158.414 46.0404 158.814 45.6191 159.358 45.3737C159.902 45.1177 160.601 44.9897 161.454 44.9897ZM168.382 41.7897L168.366 50.7657C168.366 51.0964 168.457 51.3471 168.638 51.5177C168.83 51.6884 169.091 51.7737 169.422 51.7737H170.158L170.334 52.9097C170.227 52.9631 170.078 53.0057 169.886 53.0377C169.705 53.0697 169.513 53.0911 169.31 53.1017C169.118 53.1231 168.953 53.1337 168.814 53.1337C168.217 53.1337 167.737 52.9631 167.374 52.6217C167.022 52.2804 166.846 51.7844 166.846 51.1337V41.7897H168.382ZM173.226 41.7897L173.21 50.7657C173.21 51.0964 173.3 51.3471 173.482 51.5177C173.674 51.6884 173.935 51.7737 174.266 51.7737H175.002L175.178 52.9097C175.071 52.9631 174.922 53.0057 174.73 53.0377C174.548 53.0697 174.356 53.0911 174.154 53.1017C173.962 53.1231 173.796 53.1337 173.658 53.1337C173.06 53.1337 172.58 52.9631 172.218 52.6217C171.866 52.2804 171.69 51.7844 171.69 51.1337V41.7897H173.226ZM178.101 45.1817V52.9897H176.581V45.1817H178.101ZM177.701 41.8377C178.011 41.8377 178.165 41.9924 178.165 42.3017V43.2137C178.165 43.5231 178.011 43.6777 177.701 43.6777H176.981C176.672 43.6777 176.517 43.5231 176.517 43.2137V42.3017C176.517 41.9924 176.672 41.8377 176.981 41.8377H177.701ZM182.724 42.8937V50.7657C182.724 51.1284 182.799 51.3897 182.948 51.5497C183.108 51.6991 183.375 51.7737 183.748 51.7737H184.9L185.076 52.9097C184.895 52.9631 184.687 53.0057 184.452 53.0377C184.228 53.0697 183.999 53.0911 183.764 53.1017C183.54 53.1231 183.359 53.1337 183.22 53.1337C182.559 53.1337 182.052 52.9524 181.7 52.5897C181.348 52.2271 181.172 51.7044 181.172 51.0217V42.8937H182.724ZM185.156 45.1817V46.3337H179.764V45.2617L181.3 45.1817H185.156ZM190.032 44.9897C191.237 44.9897 192.107 45.2084 192.64 45.6457C193.184 46.0724 193.456 46.7071 193.456 47.5497C193.467 48.2537 193.312 48.7977 192.992 49.1817C192.683 49.5657 192.176 49.7577 191.472 49.7577H186.96V48.6537H191.072C191.424 48.6537 191.653 48.5417 191.76 48.3177C191.867 48.0937 191.92 47.8377 191.92 47.5497C191.909 47.0697 191.765 46.7284 191.488 46.5257C191.221 46.3231 190.757 46.2217 190.096 46.2217C189.552 46.2217 189.125 46.3017 188.816 46.4617C188.507 46.6217 188.288 46.8991 188.16 47.2937C188.043 47.6884 187.984 48.2431 187.984 48.9577C187.984 49.7577 188.059 50.3711 188.208 50.7977C188.368 51.2137 188.619 51.5017 188.96 51.6617C189.312 51.8217 189.776 51.9017 190.352 51.9017C190.757 51.9017 191.211 51.8857 191.712 51.8537C192.224 51.8111 192.688 51.7631 193.104 51.7097L193.264 52.7177C193.008 52.8244 192.699 52.9151 192.336 52.9897C191.973 53.0537 191.6 53.1017 191.216 53.1337C190.832 53.1657 190.48 53.1817 190.16 53.1817C189.243 53.1817 188.507 53.0431 187.952 52.7657C187.397 52.4884 186.992 52.0511 186.736 51.4537C186.48 50.8457 186.352 50.0511 186.352 49.0697C186.352 48.0457 186.48 47.2351 186.736 46.6377C186.992 46.0404 187.392 45.6191 187.936 45.3737C188.48 45.1177 189.179 44.9897 190.032 44.9897ZM92.8485 60.7577C93.3285 60.7577 93.7392 60.7684 94.0805 60.7897C94.4218 60.8111 94.7365 60.8484 95.0245 60.9017C95.3125 60.9444 95.6112 61.0084 95.9205 61.0937L95.7605 62.2937C95.4405 62.2617 95.1418 62.2404 94.8645 62.2297C94.5872 62.2084 94.2885 62.1924 93.9685 62.1817C93.6592 62.1711 93.2858 62.1657 92.8485 62.1657C92.1658 62.1657 91.6272 62.2991 91.2325 62.5657C90.8378 62.8324 90.5552 63.2804 90.3845 63.9097C90.2245 64.5284 90.1445 65.3817 90.1445 66.4697C90.1445 67.5577 90.2245 68.4164 90.3845 69.0457C90.5552 69.6644 90.8378 70.1071 91.2325 70.3737C91.6272 70.6404 92.1658 70.7737 92.8485 70.7737C93.5418 70.7737 94.1232 70.7631 94.5925 70.7417C95.0725 70.7097 95.5365 70.6617 95.9845 70.5977L96.1445 71.7977C95.6752 71.9364 95.1898 72.0324 94.6885 72.0857C94.1978 72.1497 93.5845 72.1817 92.8485 72.1817C91.7818 72.1817 90.9232 72.0004 90.2725 71.6377C89.6325 71.2644 89.1685 70.6617 88.8805 69.8297C88.5925 68.9977 88.4485 67.8777 88.4485 66.4697C88.4485 65.0617 88.5925 63.9417 88.8805 63.1097C89.1685 62.2777 89.6325 61.6804 90.2725 61.3177C90.9232 60.9444 91.7818 60.7577 92.8485 60.7577ZM101.188 63.9897C102.394 63.9897 103.263 64.2084 103.796 64.6457C104.34 65.0724 104.612 65.7071 104.612 66.5497C104.623 67.2537 104.468 67.7977 104.148 68.1817C103.839 68.5657 103.332 68.7577 102.628 68.7577H98.1164V67.6537H102.228C102.58 67.6537 102.81 67.5417 102.916 67.3177C103.023 67.0937 103.076 66.8377 103.076 66.5497C103.066 66.0697 102.922 65.7284 102.644 65.5257C102.378 65.3231 101.914 65.2217 101.252 65.2217C100.708 65.2217 100.282 65.3017 99.9724 65.4617C99.663 65.6217 99.4444 65.8991 99.3164 66.2937C99.199 66.6884 99.1404 67.2431 99.1404 67.9577C99.1404 68.7577 99.215 69.3711 99.3644 69.7977C99.5244 70.2137 99.775 70.5017 100.116 70.6617C100.468 70.8217 100.932 70.9017 101.508 70.9017C101.914 70.9017 102.367 70.8857 102.868 70.8537C103.38 70.8111 103.844 70.7631 104.26 70.7097L104.42 71.7177C104.164 71.8244 103.855 71.9151 103.492 71.9897C103.13 72.0537 102.756 72.1017 102.372 72.1337C101.988 72.1657 101.636 72.1817 101.316 72.1817C100.399 72.1817 99.663 72.0431 99.1084 71.7657C98.5537 71.4884 98.1484 71.0511 97.8924 70.4537C97.6364 69.8457 97.5084 69.0511 97.5084 68.0697C97.5084 67.0457 97.6364 66.2351 97.8924 65.6377C98.1484 65.0404 98.5484 64.6191 99.0924 64.3737C99.6364 64.1177 100.335 63.9897 101.188 63.9897ZM111.444 63.9897C112.863 63.9897 113.572 64.7044 113.572 66.1337V71.9897H112.02V66.5817C112.02 66.0911 111.94 65.7551 111.78 65.5737C111.62 65.3817 111.348 65.2857 110.964 65.2857C110.506 65.2857 110.047 65.3977 109.588 65.6217C109.13 65.8351 108.58 66.1337 107.94 66.5177L107.876 65.4777C108.474 64.9977 109.071 64.6297 109.668 64.3737C110.266 64.1177 110.858 63.9897 111.444 63.9897ZM107.844 64.1817L107.988 65.6857L108.1 65.9097V71.9897H106.564V64.1817H107.844ZM118.084 61.8937V69.7657C118.084 70.1284 118.158 70.3897 118.308 70.5497C118.468 70.6991 118.734 70.7737 119.108 70.7737H120.26L120.436 71.9097C120.254 71.9631 120.046 72.0057 119.812 72.0377C119.588 72.0697 119.358 72.0911 119.124 72.1017C118.9 72.1231 118.718 72.1337 118.58 72.1337C117.918 72.1337 117.412 71.9524 117.06 71.5897C116.708 71.2271 116.532 70.7044 116.532 70.0217V61.8937H118.084ZM120.516 64.1817V65.3337H115.124V64.2617L116.66 64.1817H120.516ZM123.296 64.1817L123.488 65.6857L123.632 65.9097V71.9897H122.096V64.1817H123.296ZM127.12 63.9897L126.96 65.4297H126.464C126.026 65.4297 125.578 65.5151 125.12 65.6857C124.672 65.8564 124.122 66.1017 123.472 66.4217L123.36 65.4777C123.925 65.0084 124.496 64.6457 125.072 64.3897C125.658 64.1231 126.224 63.9897 126.768 63.9897H127.12ZM131.704 63.9897C132.909 63.9897 133.779 64.2084 134.312 64.6457C134.856 65.0724 135.128 65.7071 135.128 66.5497C135.139 67.2537 134.984 67.7977 134.664 68.1817C134.355 68.5657 133.848 68.7577 133.144 68.7577H128.632V67.6537H132.744C133.096 67.6537 133.325 67.5417 133.432 67.3177C133.539 67.0937 133.592 66.8377 133.592 66.5497C133.581 66.0697 133.437 65.7284 133.16 65.5257C132.893 65.3231 132.429 65.2217 131.768 65.2217C131.224 65.2217 130.797 65.3017 130.488 65.4617C130.179 65.6217 129.96 65.8991 129.832 66.2937C129.715 66.6884 129.656 67.2431 129.656 67.9577C129.656 68.7577 129.731 69.3711 129.88 69.7977C130.04 70.2137 130.291 70.5017 130.632 70.6617C130.984 70.8217 131.448 70.9017 132.024 70.9017C132.429 70.9017 132.883 70.8857 133.384 70.8537C133.896 70.8111 134.36 70.7631 134.776 70.7097L134.936 71.7177C134.68 71.8244 134.371 71.9151 134.008 71.9897C133.645 72.0537 133.272 72.1017 132.888 72.1337C132.504 72.1657 132.152 72.1817 131.832 72.1817C130.915 72.1817 130.179 72.0431 129.624 71.7657C129.069 71.4884 128.664 71.0511 128.408 70.4537C128.152 69.8457 128.024 69.0511 128.024 68.0697C128.024 67.0457 128.152 66.2351 128.408 65.6377C128.664 65.0404 129.064 64.6191 129.608 64.3737C130.152 64.1177 130.851 63.9897 131.704 63.9897ZM144.876 60.9497C145.015 60.9497 145.137 60.9924 145.244 61.0777C145.351 61.1524 145.425 61.2537 145.468 61.3817L148.956 71.9897H147.292L144.54 63.1097C144.497 62.9497 144.455 62.7897 144.412 62.6297C144.369 62.4697 144.327 62.3204 144.284 62.1817H143.836C143.793 62.3204 143.751 62.4697 143.708 62.6297C143.665 62.7897 143.617 62.9497 143.564 63.1097L140.812 71.9897H139.164L142.652 61.3817C142.695 61.2537 142.769 61.1524 142.876 61.0777C142.983 60.9924 143.105 60.9497 143.244 60.9497H144.876ZM146.86 67.3017V68.6297H141.228V67.3017H146.86ZM152.271 61.8937V69.7657C152.271 70.1284 152.346 70.3897 152.495 70.5497C152.655 70.6991 152.922 70.7737 153.295 70.7737H154.447L154.623 71.9097C154.442 71.9631 154.234 72.0057 153.999 72.0377C153.775 72.0697 153.546 72.0911 153.311 72.1017C153.087 72.1231 152.906 72.1337 152.767 72.1337C152.106 72.1337 151.599 71.9524 151.247 71.5897C150.895 71.2271 150.719 70.7044 150.719 70.0217V61.8937H152.271ZM154.703 64.1817V65.3337H149.311V64.2617L150.847 64.1817H154.703ZM92.5605 79.8217C93.4778 79.8217 94.2032 79.9071 94.7365 80.0777C95.2805 80.2377 95.6698 80.5257 95.9045 80.9417C96.1498 81.3577 96.2725 81.9444 96.2725 82.7017C96.2725 83.4911 96.1232 84.0937 95.8245 84.5097C95.5365 84.9257 95.0618 85.1657 94.4005 85.2297V85.2937C95.2218 85.3684 95.7978 85.6564 96.1285 86.1577C96.4592 86.6591 96.6245 87.3524 96.6245 88.2377C96.6245 88.9951 96.5018 89.5817 96.2565 89.9977C96.0218 90.4137 95.6432 90.7071 95.1205 90.8777C94.5978 91.0377 93.9098 91.1177 93.0565 91.1177C92.4058 91.1177 91.8458 91.1124 91.3765 91.1017C90.9178 91.1017 90.4912 91.0911 90.0965 91.0697C89.7018 91.0484 89.2912 91.0217 88.8645 90.9897L89.0885 89.7577C89.3232 89.7684 89.7765 89.7791 90.4485 89.7897C91.1205 89.8004 91.9045 89.8057 92.8005 89.8057C93.3552 89.8057 93.7925 89.7577 94.1125 89.6617C94.4325 89.5657 94.6618 89.3844 94.8005 89.1177C94.9392 88.8511 95.0085 88.4617 95.0085 87.9497C95.0085 87.3951 94.9338 86.9737 94.7845 86.6857C94.6458 86.3871 94.4112 86.1791 94.0805 86.0617C93.7498 85.9337 93.2912 85.8644 92.7045 85.8537H89.0725V84.6857H92.6885C93.2005 84.6751 93.6058 84.6217 93.9045 84.5257C94.2032 84.4297 94.4165 84.2537 94.5445 83.9977C94.6725 83.7311 94.7365 83.3631 94.7365 82.8937C94.7365 82.4137 94.6672 82.0457 94.5285 81.7897C94.3898 81.5337 94.1552 81.3631 93.8245 81.2777C93.4938 81.1817 93.0458 81.1337 92.4805 81.1337C91.9472 81.1337 91.4672 81.1337 91.0405 81.1337C90.6138 81.1337 90.2405 81.1391 89.9205 81.1497C89.6005 81.1497 89.3232 81.1604 89.0885 81.1817L88.8645 79.9497C89.2485 79.9071 89.6112 79.8804 89.9525 79.8697C90.3045 79.8484 90.6832 79.8377 91.0885 79.8377C91.5045 79.8271 91.9952 79.8217 92.5605 79.8217ZM90.4325 79.9497V90.9897H88.8645V79.9497H90.4325ZM102.465 82.9897C103.062 82.9897 103.564 83.0697 103.969 83.2297C104.385 83.3791 104.694 83.6404 104.897 84.0137C105.11 84.3871 105.217 84.8991 105.217 85.5497V90.9897H104.001L103.761 89.2937L103.665 89.1017V85.5497C103.665 85.0911 103.558 84.7604 103.345 84.5577C103.132 84.3551 102.726 84.2537 102.129 84.2537C101.724 84.2537 101.212 84.2751 100.593 84.3177C99.9849 84.3604 99.3822 84.4031 98.7849 84.4457L98.6409 83.3417C99.0035 83.2777 99.4035 83.2191 99.8409 83.1657C100.289 83.1124 100.742 83.0697 101.201 83.0377C101.66 83.0057 102.081 82.9897 102.465 82.9897ZM104.513 86.1737L104.497 87.2617L100.817 87.2777C100.454 87.2884 100.198 87.3844 100.049 87.5657C99.9102 87.7364 99.8409 87.9764 99.8409 88.2857V88.7657C99.8409 89.1497 99.9315 89.4324 100.113 89.6137C100.305 89.7844 100.604 89.8697 101.009 89.8697C101.308 89.8697 101.638 89.8164 102.001 89.7097C102.374 89.5924 102.748 89.4217 103.121 89.1977C103.494 88.9631 103.83 88.6697 104.129 88.3177V89.3257C104.022 89.4751 103.862 89.6564 103.649 89.8697C103.436 90.0724 103.174 90.2697 102.865 90.4617C102.566 90.6537 102.23 90.8137 101.857 90.9417C101.494 91.0697 101.094 91.1337 100.657 91.1337C100.188 91.1337 99.7715 91.0537 99.4089 90.8937C99.0569 90.7231 98.7795 90.4777 98.5769 90.1577C98.3742 89.8271 98.2729 89.4271 98.2729 88.9577V88.1097C98.2729 87.5017 98.4649 87.0271 98.8489 86.6857C99.2435 86.3444 99.7875 86.1737 100.481 86.1737H104.513ZM109.101 79.7897L109.085 88.7657C109.085 89.0964 109.175 89.3471 109.357 89.5177C109.549 89.6884 109.81 89.7737 110.141 89.7737H110.877L111.053 90.9097C110.946 90.9631 110.797 91.0057 110.605 91.0377C110.423 91.0697 110.231 91.0911 110.029 91.1017C109.837 91.1231 109.671 91.1337 109.533 91.1337C108.935 91.1337 108.455 90.9631 108.093 90.6217C107.741 90.2804 107.565 89.7844 107.565 89.1337V79.7897H109.101ZM116.152 82.9897C116.75 82.9897 117.251 83.0697 117.656 83.2297C118.072 83.3791 118.382 83.6404 118.584 84.0137C118.798 84.3871 118.904 84.8991 118.904 85.5497V90.9897H117.688L117.448 89.2937L117.352 89.1017V85.5497C117.352 85.0911 117.246 84.7604 117.032 84.5577C116.819 84.3551 116.414 84.2537 115.816 84.2537C115.411 84.2537 114.899 84.2751 114.28 84.3177C113.672 84.3604 113.07 84.4031 112.472 84.4457L112.328 83.3417C112.691 83.2777 113.091 83.2191 113.528 83.1657C113.976 83.1124 114.43 83.0697 114.888 83.0377C115.347 83.0057 115.768 82.9897 116.152 82.9897ZM118.2 86.1737L118.184 87.2617L114.504 87.2777C114.142 87.2884 113.886 87.3844 113.736 87.5657C113.598 87.7364 113.528 87.9764 113.528 88.2857V88.7657C113.528 89.1497 113.619 89.4324 113.8 89.6137C113.992 89.7844 114.291 89.8697 114.696 89.8697C114.995 89.8697 115.326 89.8164 115.688 89.7097C116.062 89.5924 116.435 89.4217 116.808 89.1977C117.182 88.9631 117.518 88.6697 117.816 88.3177V89.3257C117.71 89.4751 117.55 89.6564 117.336 89.8697C117.123 90.0724 116.862 90.2697 116.552 90.4617C116.254 90.6537 115.918 90.8137 115.544 90.9417C115.182 91.0697 114.782 91.1337 114.344 91.1337C113.875 91.1337 113.459 91.0537 113.096 90.8937C112.744 90.7231 112.467 90.4777 112.264 90.1577C112.062 89.8271 111.96 89.4271 111.96 88.9577V88.1097C111.96 87.5017 112.152 87.0271 112.536 86.6857C112.931 86.3444 113.475 86.1737 114.168 86.1737H118.2ZM123.908 82.9897C124.249 82.9897 124.617 83.0004 125.012 83.0217C125.407 83.0431 125.796 83.0697 126.18 83.1017C126.575 83.1337 126.932 83.1764 127.252 83.2297L127.14 84.3177C126.639 84.2964 126.137 84.2804 125.636 84.2697C125.145 84.2484 124.655 84.2377 124.164 84.2377C123.695 84.2271 123.327 84.2377 123.06 84.2697C122.793 84.3017 122.601 84.3817 122.484 84.5097C122.367 84.6377 122.308 84.8564 122.308 85.1657C122.308 85.5391 122.399 85.7844 122.58 85.9017C122.772 86.0191 123.055 86.1204 123.428 86.2057L125.652 86.7177C126.281 86.8777 126.745 87.1124 127.044 87.4217C127.343 87.7311 127.492 88.2217 127.492 88.8937C127.492 89.5337 127.369 90.0191 127.124 90.3497C126.889 90.6697 126.521 90.8831 126.02 90.9897C125.519 91.1071 124.884 91.1657 124.116 91.1657C123.828 91.1657 123.396 91.1551 122.82 91.1337C122.255 91.1124 121.631 91.0431 120.948 90.9257L121.06 89.8537C121.305 89.8644 121.572 89.8751 121.86 89.8857C122.148 89.8964 122.452 89.9017 122.772 89.9017C123.103 89.9017 123.433 89.9017 123.764 89.9017C124.34 89.9017 124.788 89.8804 125.108 89.8377C125.439 89.7844 125.668 89.6884 125.796 89.5497C125.935 89.4004 126.004 89.1817 126.004 88.8937C126.004 88.5417 125.892 88.3071 125.668 88.1897C125.455 88.0617 125.161 87.9551 124.788 87.8697L122.596 87.3577C122.148 87.2511 121.791 87.1071 121.524 86.9257C121.268 86.7337 121.081 86.4991 120.964 86.2217C120.857 85.9337 120.804 85.5764 120.804 85.1497C120.804 84.5524 120.911 84.0991 121.124 83.7897C121.337 83.4697 121.668 83.2564 122.116 83.1497C122.575 83.0324 123.172 82.9791 123.908 82.9897ZM132.8 82.9897C133.717 82.9897 134.448 83.1231 134.992 83.3897C135.546 83.6564 135.941 84.0937 136.176 84.7017C136.421 85.2991 136.544 86.0937 136.544 87.0857C136.544 88.0884 136.421 88.8937 136.176 89.5017C135.941 90.0991 135.546 90.5311 134.992 90.7977C134.448 91.0644 133.717 91.1977 132.8 91.1977C131.893 91.1977 131.162 91.0644 130.608 90.7977C130.064 90.5311 129.669 90.0991 129.424 89.5017C129.178 88.8937 129.056 88.0884 129.056 87.0857C129.056 86.0937 129.178 85.2991 129.424 84.7017C129.669 84.0937 130.064 83.6564 130.608 83.3897C131.162 83.1231 131.893 82.9897 132.8 82.9897ZM132.8 84.2377C132.266 84.2377 131.845 84.3231 131.536 84.4937C131.226 84.6644 131.008 84.9577 130.88 85.3737C130.752 85.7791 130.688 86.3497 130.688 87.0857C130.688 87.8217 130.752 88.3977 130.88 88.8137C131.008 89.2297 131.226 89.5231 131.536 89.6937C131.845 89.8537 132.266 89.9337 132.8 89.9337C133.333 89.9337 133.754 89.8537 134.064 89.6937C134.384 89.5231 134.608 89.2297 134.736 88.8137C134.864 88.3977 134.928 87.8217 134.928 87.0857C134.928 86.3497 134.864 85.7791 134.736 85.3737C134.608 84.9577 134.384 84.6644 134.064 84.4937C133.754 84.3231 133.333 84.2377 132.8 84.2377ZM139.78 83.1817L139.972 84.6857L140.116 84.9097V90.9897H138.58V83.1817H139.78ZM143.604 82.9897L143.444 84.4297H142.948C142.511 84.4297 142.063 84.5151 141.604 84.6857C141.156 84.8564 140.607 85.1017 139.956 85.4217L139.844 84.4777C140.409 84.0084 140.98 83.6457 141.556 83.3897C142.143 83.1231 142.708 82.9897 143.252 82.9897H143.604ZM148.188 82.9897C149.394 82.9897 150.263 83.2084 150.796 83.6457C151.34 84.0724 151.612 84.7071 151.612 85.5497C151.623 86.2537 151.468 86.7977 151.148 87.1817C150.839 87.5657 150.332 87.7577 149.628 87.7577H145.116V86.6537H149.228C149.58 86.6537 149.81 86.5417 149.916 86.3177C150.023 86.0937 150.076 85.8377 150.076 85.5497C150.066 85.0697 149.922 84.7284 149.644 84.5257C149.378 84.3231 148.914 84.2217 148.252 84.2217C147.708 84.2217 147.282 84.3017 146.972 84.4617C146.663 84.6217 146.444 84.8991 146.316 85.2937C146.199 85.6884 146.14 86.2431 146.14 86.9577C146.14 87.7577 146.215 88.3711 146.364 88.7977C146.524 89.2137 146.775 89.5017 147.116 89.6617C147.468 89.8217 147.932 89.9017 148.508 89.9017C148.914 89.9017 149.367 89.8857 149.868 89.8537C150.38 89.8111 150.844 89.7631 151.26 89.7097L151.42 90.7177C151.164 90.8244 150.855 90.9151 150.492 90.9897C150.13 91.0537 149.756 91.1017 149.372 91.1337C148.988 91.1657 148.636 91.1817 148.316 91.1817C147.399 91.1817 146.663 91.0431 146.108 90.7657C145.554 90.4884 145.148 90.0511 144.892 89.4537C144.636 88.8457 144.508 88.0511 144.508 87.0697C144.508 86.0457 144.636 85.2351 144.892 84.6377C145.148 84.0404 145.548 83.6191 146.092 83.3737C146.636 83.1177 147.335 82.9897 148.188 82.9897Z" fill="#012253"/>
<defs>
<clipPath id="clip0_0_1">
<rect width="59.9964" height="60" fill="white" transform="translate(16 31)"/>
</clipPath>
</defs>
</svg>
