<svg width="43" height="21" viewBox="0 0 43 21" fill="none" xmlns="http://www.w3.org/2000/svg">
<path d="M5.46289 2.9436C4.92383 3.66431 4.48145 4.36743 4.13574 5.05298C3.7959 5.73267 3.52637 6.38892 3.32715 7.02173C3.12793 7.65454 2.99023 8.25806 2.91406 8.83228C2.84375 9.40063 2.80859 9.93384 2.80859 10.4319C2.80859 11.3752 2.91406 12.1721 3.125 12.8225C3.33594 13.467 3.61133 13.9885 3.95117 14.387C4.29102 14.7854 4.6748 15.0725 5.10254 15.2483C5.53613 15.4182 5.97559 15.5032 6.4209 15.5032C6.76074 15.5032 7.07715 15.4563 7.37012 15.3625C7.66895 15.2688 7.92676 15.134 8.14355 14.9583C8.36035 14.7766 8.53027 14.5569 8.65332 14.2991C8.77637 14.0413 8.83789 13.7483 8.83789 13.4202C8.83789 13.1624 8.79688 12.925 8.71484 12.7083C8.63867 12.4856 8.52441 12.2952 8.37207 12.137C8.22559 11.9729 8.04395 11.8469 7.82715 11.759C7.61621 11.6653 7.37598 11.6184 7.10645 11.6184C6.84277 11.6184 6.59375 11.6624 6.35938 11.7502C6.13086 11.8381 5.86719 11.967 5.56836 12.137L4.77734 10.4934C5.31641 10.2473 5.80566 9.98364 6.24512 9.70239C6.68457 9.42114 7.05957 9.12231 7.37012 8.80591C7.68652 8.4895 7.92969 8.15259 8.09961 7.79517C8.26953 7.43774 8.35449 7.05396 8.35449 6.6438C8.35449 6.43286 8.33105 6.25708 8.28418 6.11646C8.24316 5.96997 8.18457 5.85278 8.1084 5.76489C8.03223 5.677 7.94434 5.61548 7.84473 5.58032C7.74512 5.53931 7.64258 5.5188 7.53711 5.5188C7.4082 5.5188 7.28516 5.54517 7.16797 5.5979C7.05078 5.65063 6.94531 5.7356 6.85156 5.85278C6.75781 5.96997 6.67871 6.12524 6.61426 6.3186C6.5498 6.5061 6.50586 6.73755 6.48242 7.01294L4.5752 6.68774C4.61621 6.29517 4.70703 5.93188 4.84766 5.5979C4.99414 5.25806 5.19043 4.96509 5.43652 4.71899C5.68262 4.4729 5.97852 4.27954 6.32422 4.13892C6.67578 3.99829 7.07715 3.92798 7.52832 3.92798C7.97949 3.92798 8.38672 3.99829 8.75 4.13892C9.11914 4.27954 9.43262 4.47583 9.69043 4.72778C9.9541 4.97388 10.1562 5.26392 10.2969 5.5979C10.4375 5.93188 10.5078 6.29224 10.5078 6.67896C10.5078 6.99536 10.4609 7.31177 10.3672 7.62817C10.2793 7.94458 10.1504 8.25806 9.98047 8.5686C9.81055 8.87329 9.60547 9.16919 9.36523 9.4563C9.13086 9.74341 8.86719 10.0159 8.57422 10.2737L8.58301 10.3088C9.0459 10.4084 9.44141 10.5608 9.76953 10.7659C10.0977 10.9709 10.3672 11.2141 10.5781 11.4954C10.7891 11.7708 10.9414 12.0725 11.0352 12.4006C11.1348 12.7229 11.1846 13.054 11.1846 13.3938C11.1846 13.8743 11.0879 14.343 10.8945 14.8C10.707 15.2571 10.4199 15.6672 10.0332 16.0305C9.64648 16.3879 9.16016 16.678 8.57422 16.9006C7.99414 17.1174 7.31445 17.2258 6.53516 17.2258C5.55078 17.2258 4.69824 17.05 3.97754 16.6985C3.25684 16.3411 2.65918 15.8547 2.18457 15.2395C1.71582 14.6243 1.36719 13.9065 1.13867 13.0862C0.916016 12.2659 0.804688 11.3899 0.804688 10.4583C0.804688 9.09888 1.04785 7.70728 1.53418 6.28345C2.02051 4.85962 2.77344 3.41235 3.79297 1.94165L5.46289 2.9436ZM16.9941 9.1311L18.1279 10.5989C17.7881 10.8625 17.5039 11.1204 17.2754 11.3723C17.0527 11.6184 16.8711 11.8616 16.7305 12.1018C16.5957 12.342 16.499 12.5823 16.4404 12.8225C16.3818 13.0627 16.3525 13.3 16.3525 13.5344C16.3525 13.8918 16.4082 14.2053 16.5195 14.4749C16.6309 14.7444 16.7803 14.9729 16.9678 15.1604C17.1611 15.342 17.3838 15.4797 17.6357 15.5735C17.8936 15.6672 18.1689 15.7141 18.4619 15.7141C18.7197 15.7141 18.9541 15.679 19.165 15.6086C19.376 15.5383 19.5576 15.4417 19.71 15.3186C19.8623 15.1897 19.9795 15.0403 20.0615 14.8704C20.1436 14.6946 20.1846 14.5012 20.1846 14.2903C20.1846 14.1438 20.1582 13.9944 20.1055 13.842C20.0586 13.6838 19.9678 13.5198 19.833 13.3499L18.8311 14.3518L17.5566 13.1301L20.791 9.81665L22.083 11.0559L21.1338 12.0491C21.7607 12.7815 22.0742 13.5198 22.0742 14.2639C22.0742 14.6682 21.9893 15.0549 21.8193 15.4241C21.6494 15.7874 21.4033 16.1096 21.0811 16.3909C20.7646 16.6663 20.3779 16.8831 19.9209 17.0413C19.4697 17.2053 18.96 17.2874 18.3916 17.2874C17.7998 17.2874 17.249 17.1965 16.7393 17.0149C16.2354 16.8333 15.7988 16.5754 15.4297 16.2415C15.0605 15.9075 14.7705 15.509 14.5596 15.0461C14.3486 14.5833 14.2432 14.0706 14.2432 13.5081C14.2432 13.2327 14.2666 12.969 14.3135 12.717C14.3662 12.4651 14.4395 12.219 14.5332 11.9788C14.1582 11.8499 13.8359 11.6799 13.5664 11.469C13.3027 11.2581 13.0859 11.0178 12.916 10.7483C12.7461 10.4729 12.6201 10.1741 12.5381 9.85181C12.4619 9.52368 12.4238 9.17798 12.4238 8.8147C12.4238 8.07056 12.5791 7.39673 12.8896 6.79321C13.2002 6.18384 13.6279 5.66821 14.1729 5.24634C14.7178 4.8186 15.3594 4.49048 16.0977 4.26196C16.8418 4.02759 17.6445 3.9104 18.5059 3.9104C19.3496 3.9104 20.1318 4.02173 20.8525 4.24438C21.5791 4.46704 22.2061 4.78345 22.7334 5.1936C23.2666 5.5979 23.6826 6.09009 23.9814 6.67017C24.2861 7.25024 24.4385 7.89478 24.4385 8.60376C24.4385 8.88501 24.4121 9.17505 24.3594 9.47388C24.3066 9.77271 24.2188 10.0686 24.0957 10.3616L22.0742 9.75513C22.1211 9.58521 22.1562 9.42114 22.1797 9.26294C22.209 9.09888 22.2236 8.9231 22.2236 8.7356C22.2236 8.24927 22.1416 7.80688 21.9775 7.40845C21.8135 7.01001 21.5762 6.67017 21.2656 6.38892C20.9551 6.10767 20.5771 5.89087 20.1318 5.73853C19.6865 5.58032 19.1797 5.50122 18.6113 5.50122C18.043 5.50122 17.5156 5.58032 17.0293 5.73853C16.543 5.89087 16.1211 6.1106 15.7637 6.39771C15.4121 6.67896 15.1367 7.02466 14.9375 7.43481C14.7383 7.83911 14.6387 8.29321 14.6387 8.79712C14.6387 8.99634 14.6533 9.18677 14.6826 9.36841C14.7178 9.55005 14.7676 9.71704 14.832 9.86938C14.8965 10.0217 14.9756 10.1565 15.0693 10.2737C15.1689 10.3909 15.2832 10.4846 15.4121 10.5549C15.6348 10.2913 15.8779 10.0452 16.1416 9.81665C16.4111 9.58228 16.6953 9.35376 16.9941 9.1311ZM17.1172 19.2913C17.1172 19.1155 17.1465 18.9514 17.2051 18.7991C17.2695 18.6467 17.3574 18.5149 17.4688 18.4036C17.5801 18.2922 17.7119 18.2043 17.8643 18.1399C18.0225 18.0754 18.1953 18.0432 18.3828 18.0432C18.5645 18.0432 18.7344 18.0754 18.8926 18.1399C19.0508 18.2043 19.1855 18.2922 19.2969 18.4036C19.4141 18.5208 19.5049 18.6555 19.5693 18.8079C19.6396 18.9661 19.6748 19.136 19.6748 19.3176C19.6748 19.4993 19.6426 19.6663 19.5781 19.8186C19.5195 19.9709 19.4316 20.0999 19.3145 20.2053C19.2031 20.3167 19.0684 20.4016 18.9102 20.4602C18.7578 20.5247 18.5908 20.5569 18.4092 20.5569C18.2275 20.5569 18.0576 20.5247 17.8994 20.4602C17.7412 20.4016 17.6035 20.3137 17.4863 20.1965C17.375 20.0852 17.2842 19.9534 17.2139 19.801C17.1494 19.6487 17.1172 19.4788 17.1172 19.2913ZM22.5225 3.26001C21.8135 2.87329 21.1279 2.5979 20.4658 2.43384C19.8037 2.26978 19.1562 2.18774 18.5234 2.18774C17.9023 2.18774 17.2461 2.26978 16.5547 2.43384C15.8574 2.59204 15.1396 2.86743 14.4014 3.26001L13.6719 1.97681C13.9941 1.76587 14.3486 1.57837 14.7354 1.41431C15.1221 1.25024 15.5234 1.11255 15.9395 1.00122C16.3555 0.884033 16.7832 0.796143 17.2227 0.737549C17.6621 0.673096 18.0957 0.640869 18.5234 0.640869C19.3555 0.640869 20.1904 0.755127 21.0283 0.983643C21.8604 1.21216 22.6309 1.552 23.3398 2.00317L22.5225 3.26001ZM29.1143 6.38013C29.1143 6.06958 29.0498 5.85278 28.9209 5.72974C28.7979 5.60669 28.6484 5.54517 28.4727 5.54517C28.3496 5.54517 28.2441 5.56567 28.1562 5.60669C28.0684 5.64771 27.9951 5.70337 27.9365 5.77368C27.8838 5.84399 27.8457 5.9231 27.8223 6.01099C27.7988 6.09888 27.7871 6.1897 27.7871 6.28345C27.7871 6.48853 27.8428 6.71118 27.9541 6.95142C28.0713 7.18579 28.209 7.40552 28.3672 7.6106L26.75 8.66528C26.4512 8.31372 26.208 7.93286 26.0205 7.52271C25.833 7.10669 25.7393 6.6936 25.7393 6.28345C25.7393 5.96704 25.8008 5.66528 25.9238 5.37817C26.0469 5.09106 26.2227 4.83911 26.4512 4.62231C26.6855 4.40552 26.9668 4.23267 27.2949 4.10376C27.623 3.97485 27.9922 3.9104 28.4023 3.9104C28.7715 3.9104 29.085 3.96899 29.3428 4.08618C29.6064 4.19751 29.8438 4.3645 30.0547 4.58716H30.0898C30.2832 4.37036 30.5176 4.20337 30.793 4.08618C31.0684 3.96899 31.3848 3.9104 31.7422 3.9104C32.1172 3.9104 32.4688 3.97192 32.7969 4.09497C33.1309 4.21216 33.418 4.3938 33.6582 4.63989C33.9043 4.88599 34.0977 5.19653 34.2383 5.57153C34.3789 5.94653 34.4492 6.38599 34.4492 6.88989C34.4492 7.54028 34.335 8.09985 34.1064 8.5686C33.8779 9.03149 33.585 9.42993 33.2275 9.76392C32.8701 10.092 32.4775 10.3704 32.0498 10.5989C31.6221 10.8215 31.2061 11.0208 30.8018 11.1965C30.5439 11.3079 30.2744 11.4309 29.9932 11.5657C29.7119 11.6946 29.4541 11.8499 29.2197 12.0315C28.9854 12.2131 28.792 12.4299 28.6396 12.6819C28.4932 12.928 28.4199 13.2209 28.4199 13.5608C28.4199 13.8948 28.4902 14.1907 28.6309 14.4485C28.7715 14.7063 28.9707 14.9231 29.2285 15.0989C29.4922 15.2747 29.8057 15.4094 30.1689 15.5032C30.5322 15.5911 30.9365 15.635 31.3818 15.635C31.9854 15.635 32.5449 15.5413 33.0605 15.3538C33.582 15.1604 34.0303 14.8997 34.4053 14.5715C34.7861 14.2375 35.082 13.8479 35.293 13.4026C35.5098 12.9514 35.6182 12.4651 35.6182 11.9436V3.9104H37.8154V17.0149H35.6182V15.6702L35.583 15.6614C35.3604 15.8723 35.1055 16.0745 34.8184 16.2678C34.5371 16.4553 34.2178 16.6194 33.8604 16.76C33.5029 16.9006 33.1074 17.012 32.6738 17.094C32.2461 17.1819 31.7744 17.2258 31.2588 17.2258C30.333 17.2258 29.5479 17.1233 28.9033 16.9182C28.2646 16.7073 27.7461 16.4319 27.3477 16.092C26.9492 15.7463 26.6592 15.3567 26.4775 14.9231C26.2959 14.4836 26.2051 14.0354 26.2051 13.5784C26.2051 13.0334 26.3047 12.5618 26.5039 12.1633C26.709 11.7649 26.9785 11.4163 27.3125 11.1174C27.6465 10.8127 28.0244 10.5491 28.4463 10.3264C28.874 10.1038 29.3135 9.89868 29.7646 9.71118C30.0752 9.58228 30.3828 9.44458 30.6875 9.2981C30.998 9.14575 31.2734 8.96118 31.5137 8.74438C31.7598 8.52759 31.959 8.26392 32.1113 7.95337C32.2637 7.64282 32.3398 7.25903 32.3398 6.802C32.3398 5.93481 32.0967 5.50122 31.6104 5.50122C31.4697 5.50122 31.3438 5.55981 31.2324 5.677C31.127 5.78833 31.0742 6.01099 31.0742 6.34497V8.05005H29.1143V6.38013ZM40.2764 3.9104H42.4736V17.0149H40.2764V3.9104Z" fill="black"/>
</svg>
