<svg width="39" height="36" viewBox="0 0 39 36" fill="none" xmlns="http://www.w3.org/2000/svg">
<g clip-path="url(#clip0_723_81)">
<path d="M12.6145 6.61889C12.9785 6.61889 27.8803 6.61831 34.9815 6.62043C35.3988 6.62063 35.8199 6.61272 36.2327 6.66189C37.5146 6.81519 38.4095 7.77758 38.4122 9.05563C38.424 14.5822 38.4244 20.109 38.4126 25.6358C38.4095 27.0654 37.3747 28.0818 35.8895 28.0951C33.1263 28.1199 30.3629 28.0964 27.5995 28.1084C26.9638 28.1111 26.4709 27.899 26.4821 27.2208C26.4931 26.5565 26.9896 26.3253 27.6186 26.3266C30.157 26.3326 32.6955 26.3301 35.2339 26.328C36.5308 26.3268 36.6338 26.2293 36.6342 24.9859C36.6359 20.072 36.635 15.1578 36.635 10.04C36.2734 10.283 28.517 16.323 24.8824 19.1825C23.0589 20.6171 21.884 20.6267 20.0485 19.1906C17.3422 17.0729 14.6413 14.9486 11.9421 12.8219C11.6937 12.6262 11.4753 12.3927 11.1866 12.1243C10.902 12.2804 10.5674 12.4563 10.24 12.6447C8.76201 13.4949 8.34126 14.8016 9.17099 16.2837C10.4874 18.6352 11.838 20.9688 13.2306 23.276C14.0873 24.6955 15.4469 24.9929 16.8572 24.184C16.9407 24.136 17.0232 24.0858 17.1033 24.0322C20.0282 22.071 21.8794 23.2804 23.3325 25.2206C24.6366 26.9618 25.9237 28.7439 26.3333 30.9653C26.5724 32.2614 26.2197 33.0268 25.0864 33.7042C20.6661 36.347 15.32 35.8231 11.1106 32.3528C9.35514 30.9057 7.9157 29.1953 6.76723 27.2399C5.30464 24.7499 3.83242 22.2648 2.41843 19.747C0.752411 16.781 -0.230036 13.6096 0.0462831 10.1723C0.391441 5.87979 2.48109 2.67773 6.31042 0.656332C7.37868 0.0925099 8.36903 0.426291 9.11565 1.21398C9.90219 2.04391 10.5744 2.99743 11.1991 3.9604C11.7354 4.78705 12.1343 5.70316 12.6145 6.61889ZM19.2606 33.6245C20.7745 33.5173 22.3427 33.1768 23.8263 32.3887C24.6092 31.9728 24.7127 31.4587 24.4472 30.7491C23.7197 28.8043 22.6646 27.0486 21.2164 25.5617C20.2832 24.6036 19.7502 24.593 18.5674 25.2673C18.2332 25.4578 17.9033 25.6562 17.5676 25.8438C15.5676 26.962 13.127 26.467 11.8948 24.5085C10.3256 22.0143 8.85225 19.4547 7.44809 16.8633C6.4562 15.033 6.87039 12.2853 9.18507 11.1642C9.50169 11.0109 9.80115 10.8213 10.1056 10.6437C11.234 9.98505 11.5318 9.50144 11.1714 8.28124C10.5578 6.20412 9.55761 4.31 8.08596 2.69064C7.66213 2.2242 7.25276 2.13839 6.66233 2.49435C3.55128 4.37016 1.94002 7.13412 1.80215 10.7272C1.68569 13.7629 2.65483 16.5365 4.13901 19.1406C5.4724 21.4802 6.83664 23.8024 8.19799 26.1259C9.32776 28.0542 10.7203 29.7617 12.4928 31.1417C14.445 32.6616 16.6287 33.5632 19.2606 33.6245ZM12.6201 11.0751C15.54 13.3661 18.5115 15.712 21.5018 18.0336C22.2982 18.6518 22.6973 18.5938 23.6437 17.8523C27.41 14.9023 35.5251 8.59439 35.7318 8.44977C35.5941 8.45671 20.5194 8.45112 13.197 8.45112C13.6739 9.75848 13.3021 10.4609 12.6201 11.0751Z" fill="white"/>
</g>
<defs>
<clipPath id="clip0_723_81">
<rect width="38.4213" height="35" fill="white" transform="translate(0 0.375)"/>
</clipPath>
</defs>
</svg>
