<svg width="41" height="36" viewBox="0 0 41 36" fill="none" xmlns="http://www.w3.org/2000/svg">
<path d="M1.82221 18.1822C1.42003 18.1822 1.07228 18.1768 0.724636 18.1839C0.434264 18.1898 0.211607 18.0826 0.0715367 17.8257C-0.0762334 17.5547 0.0251278 17.33 0.1922 17.1005C1.76335 14.9429 3.33102 12.7829 4.89374 10.6191C5.11776 10.3088 5.3824 10.1698 5.77972 10.1708C9.7153 10.1813 13.651 10.1742 17.5866 10.1722C17.7791 10.1721 17.9715 10.1722 18.2271 10.1722C18.6204 9.76339 19.0412 9.34065 19.4413 8.89935C19.5368 8.79408 19.6137 8.6268 19.6145 8.48757C19.6257 6.55517 19.6221 4.62266 19.6221 2.71051C18.9278 1.95984 18.8433 1.34957 19.3407 0.792345C19.7775 0.303048 20.4823 0.233434 20.9987 0.639196C21.3552 0.919336 21.577 1.30569 21.4592 1.74331C21.3606 2.11004 21.1107 2.43606 20.9101 2.81356C21.0629 2.82147 21.2301 2.83739 21.3973 2.8375C23.1197 2.83929 24.8421 2.83834 26.5645 2.83908C26.7225 2.83919 26.8825 2.8318 27.0382 2.85279C27.5796 2.92589 27.796 3.4425 27.4395 3.85396C27.1064 4.23831 26.7327 4.58743 26.3779 4.95301C26.2808 5.053 26.1874 5.15657 26.0672 5.28525C26.5145 5.74407 26.9644 6.1859 27.391 6.64936C27.7426 7.03139 27.6662 7.51773 27.2362 7.68913C27.0969 7.74461 26.9273 7.73606 26.7715 7.73628C25.0141 7.73923 23.2567 7.73817 21.4992 7.73817C21.3094 7.73817 21.1195 7.73817 20.9039 7.73817C20.9039 8.09405 20.9039 8.40361 20.9039 8.71888C21.3746 9.18286 21.8491 9.65054 22.3601 10.1542C22.4263 10.1582 22.548 10.1714 22.6698 10.172C24.795 10.1836 26.9203 10.2015 29.0456 10.2017C30.9081 10.202 32.7709 10.1913 34.6333 10.1643C35.0824 10.1578 35.3868 10.3096 35.6502 10.6762C37.177 12.8013 38.7198 14.9149 40.2614 17.0293C40.4445 17.2806 40.6096 17.5219 40.4255 17.8414C40.2521 18.1424 39.9742 18.1965 39.6565 18.1843C39.3439 18.1722 39.0304 18.1817 38.6723 18.1817C38.6723 18.4268 38.6724 18.6328 38.6723 18.8387C38.6705 23.6191 38.6468 28.3997 38.6804 33.1799C38.6902 34.5823 37.6941 35.3791 36.491 35.3749C28.8988 35.3486 21.3064 35.3569 13.7142 35.3558C10.5507 35.3553 7.38716 35.3647 4.22366 35.3552C3.82665 35.354 3.4 35.3403 3.03896 35.1996C2.19569 34.8708 1.822 34.183 1.82073 33.29C1.81862 31.849 1.82189 30.4079 1.822 28.9669C1.82221 25.5573 1.822 22.1478 1.82189 18.7382C1.8221 18.5808 1.82221 18.4233 1.82221 18.1822ZM37.4398 18.2002C35.0713 18.2002 32.7638 18.2002 30.4142 18.2002C30.4944 18.3205 30.553 18.4028 30.6061 18.4888C30.786 18.7802 30.6969 19.0278 30.467 19.2399C30.2437 19.446 29.9887 19.4445 29.7393 19.2975C29.636 19.2366 29.5555 19.1352 29.4687 19.0483C26.86 16.4391 24.2505 13.8306 21.6446 11.2184C21.1887 10.7615 20.7489 10.2886 20.2948 9.81592C20.1802 9.91211 20.1246 9.95198 20.0768 9.99987C17.0716 13.0072 14.0672 16.0153 11.062 19.0226C10.963 19.1216 10.8677 19.2307 10.7515 19.305C10.4786 19.4794 10.2143 19.445 9.98912 19.2113C9.78502 18.9994 9.7325 18.7589 9.89461 18.4943C9.95157 18.4014 10.0079 18.3082 10.0657 18.2133C7.71898 18.2133 5.4074 18.2133 3.06196 18.2133C3.06196 18.4059 3.06196 18.5616 3.06196 18.7172C3.06291 23.5149 3.06364 28.3125 3.06512 33.11C3.06533 33.9721 3.21532 34.1225 4.07082 34.1233C6.95292 34.1262 9.83502 34.1286 12.7171 34.1309C13.573 34.1315 14.429 34.131 15.3382 34.131C15.3382 33.8752 15.3382 33.6869 15.3382 33.4984C15.3382 30.3526 15.3378 27.2069 15.3389 24.0611C15.339 23.8858 15.3364 23.7087 15.3586 23.5355C15.4484 22.8368 15.8027 22.4988 16.5022 22.4956C18.9274 22.4845 21.353 22.5119 23.7775 22.4732C24.7038 22.4584 25.1844 22.9272 25.1658 23.8371C25.1622 24.0127 25.1668 24.1885 25.1668 24.3644C25.1669 27.4007 25.1669 30.4369 25.1669 33.4732C25.1669 33.676 25.1669 33.8787 25.1669 34.0878C25.3127 34.1059 25.3803 34.1217 25.4479 34.1217C29.1735 34.1234 32.8991 34.1266 36.6245 34.1217C37.247 34.1209 37.4362 33.9025 37.4367 33.2314C37.4394 30.156 37.4391 27.0806 37.4396 24.0052C37.4401 22.0905 37.4398 20.1763 37.4398 18.2002ZM1.85216 16.8977C2.00921 16.9153 2.06132 16.9263 2.11342 16.9263C5.09804 16.928 8.08266 16.9249 11.0673 16.9362C11.3436 16.9373 11.5201 16.8305 11.7027 16.6467C13.3352 15.0029 14.9751 13.3665 16.6109 11.7261C16.6869 11.6499 16.7448 11.5557 16.8501 11.4195C13.1283 11.4195 9.48242 11.4195 5.83647 11.4195C4.50981 13.2434 3.20308 15.0402 1.85216 16.8977ZM23.6148 11.4122C23.7316 11.554 23.7694 11.6085 23.8155 11.6546C25.4657 13.3064 27.1214 14.9529 28.7622 16.6139C28.9921 16.8466 29.2201 16.9382 29.5445 16.9368C32.4248 16.9247 35.3051 16.9291 38.1854 16.9269C38.3156 16.9268 38.4459 16.9109 38.6528 16.8974C37.2908 15.0255 35.9751 13.2174 34.6616 11.4121C30.988 11.4122 27.3579 11.4122 23.6148 11.4122ZM16.6034 23.7213C16.6034 27.2197 16.6034 30.651 16.6034 34.1016C17.6178 34.1016 18.5929 34.1016 19.5907 34.1016C19.5907 30.6331 19.5907 27.1879 19.5907 23.7213C18.5839 23.7213 17.6106 23.7213 16.6034 23.7213ZM20.9007 34.0776C21.933 34.0776 22.9202 34.0776 23.8957 34.0776C23.8957 30.5999 23.8957 27.1695 23.8957 23.7202C22.8791 23.7202 21.905 23.7202 20.9007 23.7202C20.9007 27.1847 20.9007 30.618 20.9007 34.0776ZM20.8952 6.47005C22.4405 6.47005 23.9338 6.47005 25.4901 6.47005C25.3456 6.31194 25.2547 6.20784 25.1587 6.10859C25.0489 5.99499 24.9288 5.89099 24.8233 5.77371C24.5013 5.41562 24.4948 5.15868 24.8112 4.80555C25.0142 4.57899 25.2346 4.36815 25.5035 4.09276C23.9004 4.09276 22.4047 4.09276 20.8952 4.09276C20.8952 4.897 20.8952 5.66538 20.8952 6.47005Z" fill="white"/>
<path d="M20.2353 13.401C22.5045 13.3954 24.2781 15.1637 24.2774 17.4309C24.2767 19.6558 22.4927 21.445 20.2699 21.4503C18.0436 21.4555 16.2355 19.6728 16.2276 17.465C16.2194 15.1862 17.9743 13.4066 20.2353 13.401ZM20.2813 20.2162C21.7962 20.1885 23.0481 19.0824 23.076 17.3978C23.1018 15.8488 21.758 14.5895 20.1949 14.599C18.9077 14.6068 17.4139 15.6391 17.4337 17.4597C17.4511 19.0549 18.6902 20.2222 20.2813 20.2162Z" fill="white"/>
<path d="M30.2798 30.8371C29.2153 30.8371 28.1098 30.8449 27.0046 30.833C26.5816 30.8285 26.3901 30.5926 26.3874 30.0946C26.3805 28.7965 26.3819 27.4984 26.3883 26.2002C26.3892 26.0089 26.424 25.8154 26.464 25.6273C26.6602 24.7046 27.3908 24.0957 28.3286 24.0643C29.8312 24.0141 30.6891 24.8476 30.693 26.3671C30.6962 27.5786 30.6867 28.7901 30.6993 30.0015C30.7029 30.3452 30.6196 30.6218 30.2798 30.8371ZM29.4378 29.5894C29.4378 28.4061 29.4517 27.2811 29.4318 26.1567C29.4222 25.6133 29.0681 25.2658 28.595 25.255C28.098 25.2437 27.6818 25.5982 27.6377 26.1122C27.6048 26.4958 27.6174 26.8838 27.6161 27.2697C27.6136 28.0384 27.6154 28.8072 27.6154 29.5893C28.2481 29.5894 28.8204 29.5894 29.4378 29.5894Z" fill="white"/>
<path d="M9.81087 28.0774C9.81108 27.4274 9.79948 26.777 9.81383 26.1273C9.83587 25.1299 10.4826 24.3393 11.436 24.1168C12.403 23.8911 13.4433 24.2467 13.7952 25.0547C14.0113 25.551 14.0645 26.14 14.0911 26.6922C14.1393 27.69 14.1006 28.6917 14.1213 29.6912C14.1393 30.5613 14.115 30.9011 12.9474 30.8447C12.141 30.8058 11.3313 30.8412 10.5231 30.836C10.042 30.8329 9.82332 30.6241 9.81393 30.133C9.80096 29.448 9.81066 28.7627 9.81087 28.0774ZM12.8924 29.6001C12.8924 28.3841 12.9002 27.2138 12.8876 26.0437C12.8839 25.7011 12.4027 25.2662 12.0379 25.2258C11.6372 25.1814 11.1789 25.4832 11.0771 25.8865C11.0307 26.0703 11.0268 26.2686 11.0283 26.4603C11.0353 27.3713 11.0497 28.2824 11.0647 29.1934C11.0669 29.3271 11.0862 29.4605 11.0981 29.6002C11.693 29.6001 12.2523 29.6001 12.8924 29.6001Z" fill="white"/>
<path d="M36.2075 28.0231C36.2075 28.7087 36.214 29.3943 36.2055 30.0797C36.1983 30.6564 36.0174 30.8333 35.4444 30.836C34.5127 30.8405 33.581 30.8415 32.6494 30.836C32.1423 30.833 31.9304 30.6646 31.9225 30.1467C31.9016 28.7415 31.8661 27.3332 31.9349 25.9309C31.996 24.6867 32.8727 24.0244 34.2161 24.0635C35.403 24.098 36.1252 24.7999 36.1821 26.0199C36.2133 26.6862 36.1877 27.3551 36.1877 28.0229C36.1944 28.0231 36.2009 28.0231 36.2075 28.0231ZM33.131 29.5666C33.7871 29.5666 34.3733 29.5666 34.9949 29.5666C34.9949 28.4904 34.9964 27.4578 34.993 26.4254C34.9926 26.3041 34.9754 26.1807 34.9491 26.062C34.8346 25.5449 34.4523 25.2261 33.9962 25.2598C33.553 25.2925 33.1479 25.6838 33.138 26.1755C33.1158 27.2948 33.131 28.415 33.131 29.5666Z" fill="white"/>
<path d="M4.31504 28.0422C4.31504 27.3394 4.28582 26.635 4.32168 25.9341C4.3798 24.8003 5.12276 24.0921 6.26263 24.0712C6.62652 24.0644 7.00886 24.0915 7.35324 24.1984C8.05021 24.4146 8.49458 24.9137 8.54521 25.6523C8.60164 26.4747 8.58803 27.3023 8.59394 28.1277C8.59868 28.7954 8.60248 29.4637 8.57822 30.1306C8.55829 30.6773 8.37434 30.8343 7.82397 30.8364C6.90993 30.8398 5.99588 30.8402 5.08184 30.8368C4.4801 30.8346 4.30628 30.6614 4.29964 30.0461C4.29236 29.3782 4.29795 28.7103 4.29795 28.0423C4.30365 28.0422 4.30934 28.0422 4.31504 28.0422ZM7.36906 29.5816C7.36906 28.4041 7.38836 27.2674 7.36009 26.1317C7.34786 25.6414 6.91931 25.2708 6.46704 25.2584C5.99915 25.2455 5.59824 25.5691 5.55879 26.098C5.50553 26.8132 5.52399 27.534 5.51618 28.2524C5.51144 28.6859 5.51534 29.1195 5.51534 29.5815C6.14566 29.5816 6.71923 29.5816 7.36906 29.5816Z" fill="white"/>
<path d="M19.623 17.5475C19.623 16.9486 19.6188 16.409 19.6243 15.8697C19.6294 15.3672 19.8704 15.0933 20.2818 15.1065C20.6698 15.119 20.8684 15.366 20.8746 15.8772C20.8831 16.5778 20.8856 17.2787 20.8765 17.9793C20.869 18.5579 20.6538 18.7803 20.0862 18.7953C19.5785 18.8087 19.07 18.8061 18.5623 18.7962C18.0651 18.7864 17.8323 18.5811 17.8272 18.1756C17.8222 17.7697 18.0592 17.5592 18.5479 17.5489C18.8793 17.542 19.2112 17.5475 19.623 17.5475Z" fill="white"/>
</svg>
