<svg width="47" height="36" viewBox="0 0 47 36" fill="none" xmlns="http://www.w3.org/2000/svg">
<g clip-path="url(#clip0_723_91)">
<path d="M44.3391 28.6844C44.3391 19.7504 44.3391 11.1404 44.3391 2.41781C30.9426 2.41781 17.62 2.41781 4.17756 2.41781C4.12186 3.37486 4.06713 4.3114 4.01013 5.28865C3.42345 5.28865 2.95991 5.28865 2.34619 5.28865C2.34619 3.63155 2.34619 2.04808 2.34619 0.374695C16.962 0.374695 31.5315 0.374695 46.2141 0.374695C46.2141 10.4023 46.2141 20.3559 46.2141 30.4337C39.6571 30.4337 33.072 30.4337 26.3983 30.4337C26.3983 29.9252 26.3983 29.4079 26.3983 28.6841C32.327 28.6844 38.256 28.6844 44.3391 28.6844Z" fill="white"/>
<path d="M15.0496 35.375C11.8647 35.375 8.94016 35.375 5.71424 35.375C5.71424 31.3497 5.71424 27.3632 5.71424 23.3763C5.54616 23.3623 5.37774 23.348 5.20965 23.334C5.13213 23.6336 4.99075 23.9324 4.98717 24.233C4.96567 26.1325 4.99336 28.0323 4.96795 29.9314C4.9458 31.5774 4.00633 32.6172 2.57009 32.6556C1.21953 32.6918 0.0982938 31.5419 0.0790745 30.0118C0.0451964 27.3068 -0.0844525 24.5923 0.0881955 21.8987C0.284949 18.8275 2.12251 16.9701 5.19109 16.8098C8.65382 16.629 12.1358 16.657 15.6034 16.7753C17.9198 16.8541 19.1411 17.9477 20.7776 20.813C21.1819 20.5771 21.5816 20.3328 21.9914 20.1067C23.3921 19.3347 24.7577 19.5823 25.4033 20.7182C26.1346 22.0055 25.745 23.6424 24.4938 24.4053C22.8279 25.4214 21.1506 26.4182 19.4707 27.4107C17.668 28.4756 16.1132 27.7388 15.82 25.6592C15.7119 24.8917 15.7177 24.1079 15.6715 23.3313C15.4643 23.3317 15.2568 23.332 15.0496 23.3323C15.0496 25.3077 15.0496 27.283 15.0496 29.2581C15.0496 31.2953 15.0496 33.3326 15.0496 35.375ZM19.329 23.6835C19.1065 19.7419 17.8426 18.2715 14.5766 18.1711C11.8123 18.0861 9.04179 18.0903 6.27747 18.1698C3.47926 18.25 1.9238 19.4591 1.64985 22.2101C1.38859 24.8311 1.58795 27.5026 1.67493 30.1493C1.68568 30.4773 2.20395 30.9301 2.57465 31.0471C2.76652 31.1073 3.2874 30.608 3.41346 30.2695C3.57536 29.835 3.50728 29.3082 3.50858 28.8212C3.5151 26.5048 3.51151 24.1881 3.51151 21.8244C4.851 21.8244 6.01068 21.8244 7.30391 21.8244C7.30391 25.8523 7.30391 29.79 7.30391 33.8336C9.40728 33.8336 11.3751 33.8336 13.5245 33.8336C13.5245 29.7278 13.5245 25.7452 13.5245 21.8052C14.8792 21.8052 16.051 21.8052 17.3299 21.8052C17.3299 23.033 17.294 24.1653 17.341 25.294C17.38 26.238 17.8335 26.5791 18.7273 26.0484C20.3111 25.108 21.9064 24.1864 23.483 23.2339C24.4707 22.6372 24.4312 21.9274 23.5358 20.996C22.1748 21.8655 20.8288 22.7251 19.329 23.6835Z" fill="white"/>
<path d="M11.249 15.8853C8.66382 15.8319 6.54383 13.6738 6.63309 11.1867C6.7256 8.61131 8.82702 6.61055 11.4115 6.63726C13.9654 6.66364 16.0717 8.81979 16.016 11.3502C15.9597 13.9041 13.8214 15.9388 11.249 15.8853ZM11.3415 8.10867C9.59645 8.15917 8.15142 9.66674 8.21201 11.373C8.27097 13.0331 9.73294 14.4211 11.4005 14.3999C13.068 14.3787 14.4277 12.9513 14.4169 11.233C14.4068 9.55403 12.9383 8.06242 11.3415 8.10867Z" fill="white"/>
<path d="M41.2887 7.49365C41.2887 8.10704 41.2887 8.62401 41.2887 9.24196C35.2717 9.24196 29.3408 9.24196 23.3039 9.24196C23.2707 8.66375 23.2407 8.14157 23.2036 7.49365C29.2668 7.49365 35.246 7.49365 41.2887 7.49365Z" fill="white"/>
<path d="M41.2894 15.5925C41.2894 16.2176 41.2894 16.7381 41.2894 17.3554C35.2656 17.3554 29.3311 17.3554 23.3096 17.3554C23.3096 16.744 23.3096 16.2257 23.3096 15.5925C29.264 15.5925 35.205 15.5925 41.2894 15.5925Z" fill="white"/>
</g>
<defs>
<clipPath id="clip0_723_91">
<rect width="46.214" height="35" fill="white" transform="translate(0.000488281 0.375)"/>
</clipPath>
</defs>
</svg>
