<svg width="35" height="31" viewBox="0 0 35 31" fill="none" xmlns="http://www.w3.org/2000/svg">
<g clip-path="url(#clip0_723_75)">
<path d="M17.2247 30.8742C14.0217 30.8742 10.8186 30.875 7.61566 30.8739C5.24751 30.873 3.67835 29.3022 3.67763 26.9318C3.6766 23.4715 3.6837 20.0112 3.67434 16.5509C3.67042 15.1096 4.25469 14.0026 5.45225 13.2031C9.09783 10.7693 12.7392 8.32921 16.3827 5.8923C17.0748 5.4294 17.457 5.42703 18.1509 5.89096C21.8055 8.33436 25.4599 10.7784 29.1122 13.2253C30.2665 13.9986 30.853 15.0816 30.8527 16.4768C30.852 19.9886 30.8552 23.5003 30.8514 27.0121C30.8489 29.2808 29.2571 30.871 26.9881 30.8732C23.7337 30.8766 20.4792 30.8742 17.2247 30.8742ZM12.3256 28.4037C12.3256 26.6954 12.3109 25.0493 12.3296 23.4036C12.35 21.6126 13.6325 20.0767 15.4048 19.8387C16.3788 19.7079 17.3797 19.7612 18.3684 19.7605C20.6088 19.7587 22.1988 21.3577 22.2051 23.6037C22.2091 25.057 22.2059 26.5104 22.2059 27.9636C22.2059 28.1006 22.2059 28.2375 22.2059 28.3714C22.2862 28.3875 22.3224 28.4011 22.3588 28.4012C23.9536 28.4026 25.5485 28.4107 27.1431 28.3994C27.8726 28.3942 28.3792 27.856 28.3801 27.1024C28.3842 23.5526 28.381 20.0029 28.3831 16.4531C28.3834 15.9642 28.1921 15.5851 27.7851 15.3126C24.3567 13.0176 20.928 10.7231 17.503 8.42299C17.3243 8.30296 17.1971 8.31305 17.0223 8.43029C13.6074 10.7224 10.1891 13.0092 6.76973 15.2947C6.35057 15.5749 6.14552 15.9539 6.14604 16.4605C6.14954 19.9974 6.14624 23.5343 6.14902 27.0712C6.14964 27.8856 6.6602 28.3974 7.47103 28.4024C8.34558 28.4078 9.22022 28.4037 10.0948 28.4037C10.8246 28.4037 11.5544 28.4037 12.3256 28.4037ZM19.7342 28.3865C19.7342 26.7094 19.7431 25.0765 19.73 23.4437C19.7244 22.7521 19.1892 22.2403 18.4897 22.2303C17.7182 22.2193 16.9465 22.2258 16.1749 22.2279C15.2816 22.2304 14.7963 22.7174 14.795 23.6153C14.793 25.0943 14.794 26.5732 14.7954 28.0522C14.7955 28.1628 14.8094 28.2734 14.8171 28.3865C16.4633 28.3865 18.0788 28.3865 19.7342 28.3865Z" fill="white"/>
<path d="M24.6777 5.20144C24.6777 4.63262 24.669 4.14388 24.6794 3.65555C24.7078 2.32253 25.7613 1.26455 27.0907 1.2311C27.4636 1.22173 27.8368 1.22801 28.21 1.22863C29.809 1.23151 30.8493 2.262 30.8519 3.85216C30.8549 5.61463 30.858 7.3771 30.8467 9.13947C30.845 9.39959 30.9225 9.55657 31.1402 9.70335C32.0996 10.35 33.0522 11.0071 33.9944 11.6786C34.5248 12.0566 34.6734 12.6586 34.4167 13.2144C34.1704 13.7475 33.5877 14.0395 33.0069 13.8826C32.7905 13.8241 32.584 13.6977 32.3966 13.5681C27.7225 10.3365 23.0515 7.10041 18.3801 3.86513C18.285 3.79925 18.1897 3.73368 18.0937 3.66893C17.4701 3.24782 17.0053 3.24864 16.3916 3.67459C13.1807 5.90316 9.97021 8.13224 6.75943 10.3609C5.17514 11.4606 3.59424 12.5651 2.0047 13.6572C1.18008 14.2238 0.161428 13.8219 0.0163912 12.8756C-0.0684282 12.3219 0.181604 11.916 0.63514 11.6026C2.71898 10.1629 4.79716 8.71496 6.8776 7.27046C9.56001 5.40793 12.2426 3.54561 14.9253 1.6836C16.4713 0.610597 17.99 0.603289 19.5471 1.6729C21.1365 2.76474 22.7201 3.86533 24.3066 4.96129C24.4086 5.03201 24.5149 5.09635 24.6777 5.20144ZM27.1475 3.71566C27.1475 4.75944 27.1451 5.77089 27.1523 6.78234C27.1528 6.8582 27.2018 6.96083 27.262 7.00458C27.6102 7.25769 27.9685 7.49682 28.3613 7.76671C28.3613 6.38212 28.3613 5.05723 28.3613 3.71566C27.9606 3.71566 27.5804 3.71566 27.1475 3.71566Z" fill="white"/>
</g>
<defs>
<clipPath id="clip0_723_75">
<rect width="34.5395" height="30" fill="white" transform="translate(0 0.875)"/>
</clipPath>
</defs>
</svg>
