<svg width="40" height="36" viewBox="0 0 40 36" fill="none" xmlns="http://www.w3.org/2000/svg">
<g clip-path="url(#clip0_723_86)">
<path d="M0 23.9132C3.90647 21.4225 8.01563 21.6975 12.1411 22.1823C12.6813 19.9018 13.1092 17.6876 13.7344 15.531C15.5776 9.1721 19.3051 7.76396 25.4559 8.32283C26.232 8.39336 27.3361 8.49441 28.3824 8.60583C27.7264 6.04468 27.4792 3.30069 27.1986 0.709023C28.9475 -0.156546 30.545 0.72058 30.6588 2.62329C30.8728 6.20054 32.8795 8.52611 36.0191 9.95589C37.0826 10.4401 38.2418 10.7148 39.521 11.1394C39.5608 11.4894 39.6132 11.9508 39.666 12.4178C36.8846 11.7564 34.2147 11.1216 31.5428 10.4866C31.2106 12.7331 31.055 14.6453 30.6289 16.4949C29.5754 21.0666 26.616 23.423 21.9053 23.634C19.743 23.7309 17.5813 23.8477 15.3073 23.9609C15.0969 25.5773 15.0294 27.2545 14.6308 28.8491C14.1819 30.6451 13.5489 32.4183 12.7835 34.105C12.1103 35.5887 9.89256 35.811 8.8406 34.5646C5.91586 31.1003 3.04505 27.59 0 23.9132ZM26.5446 20.218C23.8943 17.0882 21.5257 14.2737 18.9847 11.2728C18.3711 11.5374 17.6723 12.0666 17.4332 13.014C19.7576 15.8649 22.0061 18.6231 24.3749 21.5289C25.271 21.4326 26.0539 21.0092 26.5446 20.218ZM9.5346 33.7823C10.3575 32.4998 10.2976 31.5889 9.40333 30.5592C7.89028 28.8174 6.52866 26.9431 5.12319 25.1094C4.02619 23.6782 3.18847 23.509 1.41555 24.5325C4.10975 27.6021 6.78291 30.6475 9.5346 33.7823ZM27.8532 17.4956C26.2779 15.4658 22.0828 10.5474 21.7785 10.1826C21.1304 10.2507 20.7277 10.2854 19.7359 10.8704C22.0091 13.5797 24.5755 16.6339 26.9853 19.5062C27.4298 18.8501 27.7317 18.2702 27.8532 17.4956ZM16.4023 16.3245C17.7861 18.2998 19.431 20.3552 20.8682 22.4063C21.7566 22.4209 22.519 22.2792 23.6623 21.8137C21.4949 19.1773 19.2541 16.4866 17.1431 13.9187C16.7842 14.8142 16.508 15.5695 16.4023 16.3245ZM5.27283 23.8969C7.18354 26.2604 8.87053 28.3468 10.5575 30.4332C10.6944 30.3997 10.8316 30.3663 10.9685 30.3328C10.9685 29.4992 11.272 28.4884 10.9093 27.8662C9.97523 26.2639 8.74667 24.8338 7.61203 23.303C6.85314 23.4959 6.20685 23.6598 5.27283 23.8969ZM22.9478 9.82817C24.414 11.5555 26.3686 13.8778 28.1282 15.9506C28.4601 13.9587 28.5516 12.4157 28.5303 10.2993C26.7251 10.1423 23.1066 9.83884 22.9478 9.82817ZM15.9287 17.1916C15.4742 19.0395 15.417 20.4864 15.3017 22.1948C16.9653 22.3243 18.1476 22.3924 20.0272 22.5388C18.5731 20.6417 17.4018 19.1133 15.9287 17.1916ZM11.5087 26.8032C11.7325 25.6496 11.9108 24.7295 12.1224 23.6382C10.9327 23.45 9.88011 23.2838 8.41834 23.0526C9.58616 24.47 10.4514 25.5201 11.5087 26.8032ZM31.4672 9.2936C32.4157 9.43643 32.5506 9.46043 33.4736 9.6163C32.3405 8.76436 31.8536 8.24579 31.2292 7.08686C31.4038 8.15067 31.3878 8.42062 31.4672 9.2936Z" fill="white"/>
</g>
<defs>
<clipPath id="clip0_723_86">
<rect width="39.666" height="35" fill="white" transform="translate(0 0.375)"/>
</clipPath>
</defs>
</svg>
