<svg width="32" height="36" viewBox="0 0 32 36" fill="none" xmlns="http://www.w3.org/2000/svg">
<g clip-path="url(#clip0_723_111)">
<path d="M8.35781 0.375C11.109 0.375 14.333 0.375 17.1668 0.375C17.3726 0.813458 17.1695 1.00105 16.8992 1.49483C16.9128 4.12463 16.9612 6.70831 16.8675 9.28469C16.8007 11.1218 17.2627 12.6391 18.0421 14.1869C20.3545 18.7794 22.6323 23.3999 24.7828 28.0983C25.279 29.1819 25.406 30.6302 25.3602 31.8937C25.2871 33.9038 23.9574 35.32 22.2402 35.3324C15.9311 35.3782 9.62115 35.4023 3.3123 35.3251C0.584139 35.292 -0.836001 31.8403 0.52131 28.5384C1.59562 25.9245 2.82159 23.3939 4.03483 20.862C5.33635 18.1457 6.72995 15.4896 8.01821 12.765C8.32694 12.1123 8.5119 11.2948 8.52517 10.5476C8.58177 7.32101 8.55306 4.72842 8.55794 1.50056C8.55794 1.39754 7.9329 0.796606 8.35781 0.375ZM10.1861 2.28336C10.1861 5.3462 10.2221 8.25071 10.1611 11.1527C10.1454 11.8973 9.93637 12.7059 9.62629 13.3615C7.1554 18.5829 4.58377 23.7398 2.15864 28.9899C0.873908 31.771 1.85777 33.5073 4.52365 33.507C7.94888 33.5067 11.3741 33.5102 14.7996 33.5048C17.0988 33.5013 19.3983 33.5048 21.6972 33.4686C23.2113 33.4447 23.8418 32.6953 23.7492 30.9198C23.7096 30.1606 23.5341 29.3418 23.2192 28.683C20.8626 23.7528 18.4209 18.878 16.0925 13.9297C15.6186 12.9224 15.3217 11.6891 15.2722 10.5403C15.1547 7.81193 15.2343 5.07181 15.2343 2.28367C13.5027 2.28336 11.9374 2.28336 10.1861 2.28336Z" fill="white"/>
<path d="M24.296 24.2323C23.5236 22.3265 23.3205 22.054 22.7004 20.2967C22.7004 16.3989 22.7819 11.9288 22.731 8.06343C22.7217 7.36139 22.4301 6.59512 22.1005 5.98338C21.5513 4.9637 21.3225 3.9596 21.7671 2.84486C22.2153 1.72153 22.9739 1.23474 24.0517 1.27258C25.6747 1.32949 27.3009 1.31614 28.9247 1.27576C29.9922 1.24937 30.7836 1.73997 31.2039 2.86807C31.6131 3.96628 31.4243 4.99709 30.8356 6.00691C30.5157 6.55538 30.2498 7.28158 30.2463 7.92957C30.2059 15.2403 30.1937 22.5519 30.2338 29.8626C30.2514 33.1045 27.8 35.3356 25.6124 34.4075C25.9357 33.5887 26.0146 32.778 27.1032 32.5589C28.3476 32.3087 28.6095 30.937 28.6084 29.5634C28.6016 22.2 28.6146 14.8365 28.6003 7.47299C28.5984 6.4371 28.5981 5.48419 29.4447 4.79773C29.6556 4.62667 29.7913 3.99617 29.6876 3.71732C29.5871 3.4477 29.1367 3.22386 28.8345 3.21432C27.2562 3.16345 25.6758 3.16154 24.0972 3.20701C23.795 3.21559 23.3316 3.43753 23.2447 3.69952C23.1483 3.98981 23.297 4.60569 23.5155 4.78819C24.2562 5.40629 24.3014 6.23297 24.2987 7.16712C24.2838 12.4649 24.2941 17.7626 24.296 23.0603C24.2962 23.4511 24.296 23.8416 24.296 24.2323Z" fill="white"/>
<path d="M15.9183 31.9357C14.099 31.8995 12.58 30.062 12.6219 27.9486C12.6647 25.7925 14.1718 24.0718 16.0212 24.0676C17.8928 24.0635 19.4486 25.9496 19.3874 28.1486C19.3283 30.2674 17.7666 31.9723 15.9183 31.9357ZM16.0125 26.0434C15.0135 26.0278 14.2793 26.8453 14.2728 27.9807C14.2663 29.1136 14.9902 29.9695 15.9738 29.9924C16.9268 30.0146 17.7165 29.1307 17.7311 28.0258C17.7457 26.9101 17.0078 26.059 16.0125 26.0434Z" fill="white"/>
<path d="M8.73548 30.2563C6.96193 30.2738 5.43265 28.5594 5.3793 26.4942C5.32514 24.3853 6.87879 22.5154 8.69161 22.5077C10.4668 22.5004 12.0007 24.2406 12.0221 26.2869C12.0454 28.4611 10.5738 30.2381 8.73548 30.2563ZM10.3671 26.3957C10.378 25.3369 9.68901 24.5153 8.75471 24.4724C7.82961 24.4298 7.1125 25.2008 7.06701 26.2866C7.02016 27.4096 7.77708 28.3358 8.72844 28.3199C9.62293 28.3047 10.3563 27.4433 10.3671 26.3957Z" fill="white"/>
<path d="M13.5669 22.9087C12.0587 22.9236 10.758 21.4655 10.7131 19.7094C10.667 17.9159 11.9881 16.3258 13.5298 16.3194C15.0393 16.3131 16.3435 17.7931 16.362 19.533C16.3815 21.3822 15.13 22.8934 13.5669 22.9087ZM14.9543 19.6258C14.9635 18.7254 14.3777 18.0268 13.5832 17.9903C12.7964 17.954 12.1866 18.6096 12.1478 19.533C12.108 20.4878 12.7518 21.2757 13.5607 21.262C14.3214 21.249 14.9451 20.5167 14.9543 19.6258Z" fill="white"/>
<path d="M27.1704 29.7189L25.7002 26.2214V15.9108H27.1704V29.7189Z" fill="white"/>
</g>
<defs>
<clipPath id="clip0_723_111">
<rect width="31.4232" height="35" fill="white" transform="translate(0 0.375)"/>
</clipPath>
</defs>
</svg>
