<svg width="44" height="46" viewBox="0 0 44 46" fill="none" xmlns="http://www.w3.org/2000/svg">
<g clip-path="url(#clip0_723_556)">
<path d="M9.83722 13.653C9.83722 13.4444 9.83722 13.2658 9.83722 13.0871C9.83734 10.0663 9.82891 7.04555 9.8409 4.02478C9.8479 2.2463 10.9489 0.873736 12.6179 0.528964C12.8627 0.478451 13.1186 0.465279 13.3694 0.465158C22.269 0.462016 31.1686 0.458149 40.0683 0.466246C41.8315 0.467817 43.1597 1.53536 43.5186 3.20532C43.5907 3.54079 43.6019 3.89511 43.602 4.24073C43.606 16.7166 43.6065 29.1923 43.6042 41.6681C43.6039 43.6464 42.5706 45.0281 40.8205 45.3806C40.4753 45.4501 40.1125 45.4467 39.7579 45.4468C28.7669 45.4499 17.7758 45.4399 6.78476 45.4615C5.42378 45.4642 4.16641 45.2388 3.03922 44.4341C1.73046 43.4996 1.07086 42.1778 0.841459 40.604C0.802415 40.3365 0.800279 40.0617 0.80016 39.7903C0.798024 32.2685 0.796481 24.7468 0.799685 17.2251C0.800397 15.4883 1.80475 14.1322 3.36783 13.7644C3.68126 13.6907 4.01498 13.6858 4.33944 13.6843C6.03033 13.6768 7.72123 13.6814 9.41224 13.6797C9.54196 13.6796 9.67179 13.6639 9.83722 13.653ZM9.61316 44.0569C9.79913 44.0569 9.92611 44.0569 10.0531 44.0569C20.0063 44.0569 29.9597 44.0577 39.9129 44.0561C41.4153 44.0559 42.2264 43.2289 42.2265 41.7048C42.2272 29.2284 42.2271 16.752 42.2268 4.27541C42.2268 2.65536 41.4408 1.85488 39.8477 1.85476C31.0959 1.85403 22.3441 1.85403 13.5924 1.85476C12.019 1.85488 11.2301 2.64944 11.2314 4.24012C11.2343 7.66874 11.2477 11.0974 11.2467 14.526C11.2442 22.9844 11.2361 31.4429 11.2305 39.9014C11.2298 41.0437 10.9922 42.1206 10.3582 43.0792C10.147 43.3992 9.89431 43.6908 9.61316 44.0569ZM9.83046 15.0775C9.66123 15.0775 9.54587 15.0775 9.43052 15.0775C7.72514 15.0775 6.01977 15.0769 4.31439 15.0776C2.9762 15.0783 2.17716 15.8834 2.17704 17.2351C2.17633 24.74 2.17562 32.2448 2.18024 39.7497C2.18048 40.0797 2.20517 40.4147 2.26379 40.7389C2.68201 43.052 4.9378 44.5164 7.0875 43.8806C8.8064 43.3724 9.83354 41.9648 9.83437 40.0601C9.83805 31.8606 9.83259 23.6613 9.83046 15.4618C9.83046 15.3572 9.83046 15.2524 9.83046 15.0775Z" fill="black"/>
<path d="M16.4079 12.7853C16.4079 11.2456 16.4062 9.70601 16.4088 8.16632C16.41 7.48548 16.615 7.27702 17.2854 7.27666C20.3094 7.27497 23.3334 7.27497 26.3574 7.27666C27.0272 7.27702 27.246 7.48862 27.247 8.16439C27.2513 11.2588 27.2515 14.3531 27.2465 17.4475C27.2454 18.0906 27.0134 18.3197 26.3809 18.3203C23.3421 18.3236 20.3033 18.3235 17.2644 18.3202C16.6249 18.3195 16.4102 18.0976 16.4089 17.4493C16.4058 15.8947 16.4079 14.3401 16.4079 12.7853ZM25.8344 8.71496C25.7282 8.70348 25.6559 8.68898 25.5836 8.68886C23.1066 8.68741 20.6296 8.69297 18.1526 8.68016C17.8153 8.67846 17.7706 8.82553 17.7715 9.11447C17.7796 11.5763 17.7757 14.0382 17.7774 16.5001C17.7775 16.6173 17.7949 16.7344 17.8062 16.8746C20.4897 16.8746 23.1506 16.8746 25.8345 16.8746C25.8344 14.1541 25.8344 11.4572 25.8344 8.71496Z" fill="black"/>
<path d="M31.33 25.2102C29.0605 25.2102 26.791 25.2116 24.5215 25.2074C24.3464 25.207 24.1625 25.195 23.9982 25.1403C23.6857 25.0363 23.5352 24.7583 23.6113 24.4644C23.6703 24.2364 23.8593 24.0183 24.0433 23.8586C24.1451 23.7703 24.355 23.7963 24.5163 23.7963C29.0553 23.7936 33.5942 23.7948 38.1332 23.7928C38.5074 23.7927 38.8622 23.8294 39.0063 24.2537C39.187 24.7859 38.8467 25.2059 38.2274 25.2081C36.5957 25.214 34.9642 25.2102 33.3325 25.2102C32.6649 25.2102 31.9975 25.2102 31.33 25.2102Z" fill="black"/>
<path d="M31.3294 33.6472C29.0451 33.6472 26.7607 33.6574 24.4767 33.6332C24.2144 33.6304 23.8714 33.5077 23.71 33.3154C23.3817 32.9238 23.6568 32.3446 24.163 32.2534C24.2932 32.2299 24.4287 32.2315 24.5618 32.2314C29.071 32.2304 33.5802 32.23 38.0894 32.2311C38.719 32.2313 38.9793 32.3991 39.0316 32.8245C39.0913 33.3104 38.8247 33.6322 38.3156 33.6424C37.5742 33.6571 36.8324 33.6471 36.0908 33.6471C34.5036 33.6474 32.9166 33.6473 31.3294 33.6472Z" fill="black"/>
<path d="M23.3595 36.4571C25.3756 36.4573 27.3918 36.455 29.4079 36.4587C29.9116 36.4597 30.1816 36.6887 30.2073 37.1095C30.2309 37.4971 30.0127 37.7814 29.6337 37.8382C29.488 37.86 29.3382 37.8583 29.1902 37.8583C25.2618 37.8593 21.3334 37.8591 17.405 37.8591C17.3605 37.8591 17.316 37.8595 17.2716 37.8587C16.663 37.8461 16.4 37.6257 16.4105 37.1371C16.4203 36.6755 16.6879 36.4585 17.2669 36.4579C19.2977 36.4558 21.3286 36.457 23.3595 36.4571Z" fill="black"/>
<path d="M22.4692 29.42C20.7188 29.4199 18.9683 29.4239 17.218 29.4176C16.6848 29.4157 16.4405 29.2086 16.4125 28.7797C16.382 28.3136 16.645 28.0321 17.1455 28.0269C17.9761 28.0182 18.8068 28.0241 19.6376 28.0241C22.3225 28.0241 25.0074 28.0263 27.6923 28.0217C28.0772 28.0211 28.4137 28.0819 28.5214 28.5261C28.6526 29.0669 28.3464 29.4153 27.7204 29.4177C25.97 29.4246 24.2195 29.4202 22.4692 29.42Z" fill="black"/>
<path d="M34.722 28.0244C35.8932 28.0243 37.0644 28.0217 38.2356 28.0256C38.7791 28.0275 39.0325 28.2497 39.0381 28.709C39.0437 29.1727 38.7961 29.4152 38.2584 29.4168C35.9012 29.4236 33.5439 29.4236 31.1866 29.4164C30.6933 29.415 30.4245 29.1554 30.4181 28.7315C30.4112 28.2874 30.6924 28.0284 31.2084 28.0262C32.3796 28.0212 33.5508 28.0246 34.722 28.0244Z" fill="black"/>
<path d="M34.7315 15.916C33.5751 15.9164 32.4187 15.9194 31.2623 15.9151C30.7017 15.9129 30.4157 15.6705 30.417 15.2186C30.4183 14.7635 30.704 14.525 31.2648 14.5246C33.5776 14.5228 35.8903 14.5267 38.2031 14.521C38.5943 14.52 38.9198 14.6031 39.0207 15.0422C39.1378 15.5523 38.8454 15.9079 38.2895 15.9127C37.1036 15.9227 35.9175 15.9157 34.7315 15.916Z" fill="black"/>
<path d="M35.636 36.4571C36.5112 36.4572 37.3864 36.4528 38.2617 36.4589C38.7707 36.4625 39.0238 36.6888 39.0373 37.127C39.0519 37.5995 38.8101 37.8511 38.2761 37.854C36.511 37.8634 34.7455 37.8633 32.9803 37.854C32.4761 37.8513 32.2267 37.6028 32.2237 37.1641C32.2205 36.7063 32.4842 36.4622 33.0104 36.4587C33.8855 36.4528 34.7607 36.4571 35.636 36.4571Z" fill="black"/>
<path d="M19.3093 33.6471C18.6274 33.6471 17.9454 33.6504 17.2635 33.6461C16.6936 33.6426 16.4203 33.4174 16.4114 32.9566C16.4021 32.4824 16.6645 32.2367 17.2295 32.2336C18.6379 32.2258 20.0463 32.2258 21.4545 32.2337C21.9815 32.2366 22.2625 32.4881 22.2725 32.9229C22.2831 33.3781 21.9895 33.6408 21.4439 33.6455C20.7325 33.6517 20.0209 33.6471 19.3093 33.6471Z" fill="black"/>
<path d="M34.7579 10.9246C35.4546 10.9246 36.1516 10.9171 36.8482 10.927C37.3906 10.9347 37.6862 11.2093 37.6697 11.6603C37.6537 12.0982 37.3727 12.3405 36.8448 12.3426C35.4365 12.3479 34.028 12.348 32.6196 12.3425C32.0873 12.3404 31.819 12.1031 31.8089 11.6562C31.7982 11.1825 32.0637 10.9345 32.6233 10.9269C33.3346 10.9172 34.0463 10.9246 34.7579 10.9246Z" fill="black"/>
<path d="M19.1755 25.2099C18.5243 25.21 17.8731 25.2149 17.2219 25.2085C16.6892 25.2033 16.4219 24.9719 16.4105 24.5255C16.3984 24.0521 16.6663 23.7993 17.2205 23.7964C18.5229 23.7896 19.8252 23.7893 21.1274 23.797C21.6461 23.8001 21.9255 24.0608 21.9252 24.5016C21.925 24.9445 21.6446 25.2016 21.1289 25.208C20.4778 25.216 19.8266 25.2098 19.1755 25.2099Z" fill="black"/>
<path d="M25.8345 8.71499C25.8345 11.4572 25.8345 14.1541 25.8345 16.8746C23.1507 16.8746 20.4897 16.8746 17.8062 16.8746C17.7949 16.7344 17.7774 16.6173 17.7773 16.5001C17.7758 14.0382 17.7796 11.5764 17.7715 9.11451C17.7705 8.82557 17.8153 8.6785 18.1526 8.68019C20.6295 8.693 23.1066 8.68744 25.5836 8.68889C25.656 8.68901 25.7283 8.70351 25.8345 8.71499Z" fill="#20C1A4"/>
</g>
<defs>
<clipPath id="clip0_723_556">
<rect width="42.8078" height="45" fill="white" transform="translate(0.797852 0.461426)"/>
</clipPath>
</defs>
</svg>
