<svg width="44" height="46" viewBox="0 0 44 46" fill="none" xmlns="http://www.w3.org/2000/svg">
<path d="M26.693 32.5958C25.7804 31.4594 25.0435 30.542 24.1622 29.4444C22.016 29.0641 21.6553 28.8038 20.541 26.6319C20.0741 26.6319 19.564 26.6976 19.0792 26.6134C18.5935 26.5292 18.1326 26.2951 17.8772 26.2038C17.1903 27.7649 16.5358 29.3154 15.8189 30.8352C15.6425 31.2091 15.2816 31.5051 14.9697 31.7976C14.4119 32.3206 13.7612 32.4436 13.2228 31.8463C12.7247 31.2938 13.0038 30.7585 13.3715 30.155C14.0901 28.9749 14.8291 27.754 15.2288 26.4451C15.4898 25.5901 15.1684 24.5508 15.0936 23.3657C14.5077 23.7509 14.2028 24.1092 13.8793 24.1277C13.3731 24.1563 12.7199 24.1035 12.3917 23.7952C12.1977 23.6127 12.5037 22.8716 12.5995 22.3848C12.6111 22.3251 12.711 22.2811 12.7735 22.235C15.699 20.0706 15.2744 20.0115 17.567 22.5833C17.9832 23.0502 18.3427 23.6496 18.8628 23.9168C19.3237 24.1535 20.0885 24.2275 20.5091 23.9892C21.1603 23.6201 21.1956 22.8062 20.6874 22.2397C19.2781 20.6696 17.8517 19.1077 16.3311 17.6516C15.4505 16.8085 14.1319 16.86 13.1024 17.6268C11.6657 18.6967 10.2348 19.7824 8.87553 20.9507C7.33682 22.2731 6.7133 24.0754 6.60152 26.0824C6.49833 27.9322 6.47161 29.7906 6.265 31.6282C6.18459 32.3433 5.82368 33.1074 5.3798 33.6801C4.68888 34.5716 3.82273 35.3231 3.02212 36.1247C2.5306 36.6167 1.95728 36.8649 1.38604 36.3154C0.804118 35.7557 0.869886 35.1293 1.42764 34.5552C1.53664 34.4431 1.63006 34.3082 1.75555 34.2211C3.78671 32.8135 4.35121 30.7885 4.25523 28.4058C4.20642 27.192 4.33633 25.9603 4.49297 24.751C4.79346 22.4281 5.8511 20.4949 7.63917 19.0112C8.77908 18.0653 9.9843 17.2006 11.1191 16.2483C12.3736 15.1957 13.7473 14.6375 15.4001 14.8079C15.7222 14.841 16.1349 14.6472 16.4001 14.4264C16.9372 13.9794 17.402 13.4422 17.8967 12.9424C20.346 10.4687 23.0272 11.0066 24.3762 14.2418C27.4081 14.7731 28.2433 15.6181 28.4595 18.4486C30.3001 19.0218 31.3386 20.2796 31.262 22.3559C31.5399 22.4709 31.7914 22.5679 32.0372 22.678C34.3112 23.6977 34.9668 26.4785 33.3317 28.3797C32.4402 29.4162 31.4314 30.3472 30.4955 31.3449C29.8629 32.0193 29.2543 32.7179 28.6535 33.4222C26.6758 35.7408 24.7769 38.134 22.7139 40.3708C20.7148 42.5382 18.1405 43.2645 15.2846 42.7029C14.5551 42.5595 14.1375 42.7351 13.6845 43.246C13.0887 43.9184 12.4398 44.5431 11.7954 45.1688C11.286 45.6632 10.7031 45.8326 10.1623 45.253C9.65151 44.7052 9.71449 44.1093 10.2334 43.5774C11.2158 42.5704 12.1612 41.5183 13.216 40.5968C13.5528 40.3026 14.2479 40.1588 14.6753 40.2918C17.5249 41.1782 19.8533 40.3966 21.7945 38.188C23.4694 36.2835 25.1376 34.3723 26.693 32.5958ZM22.6195 25.7747C22.9365 26.1744 23.168 26.7428 23.5373 26.86C23.9693 26.9968 24.6728 26.9137 24.9951 26.6233C26.2366 25.5045 27.3837 24.2749 28.5443 23.0654C29.1448 22.4394 29.2322 21.7028 28.5894 21.0851C27.9503 20.4713 27.2533 20.6083 26.6437 21.2302C25.525 22.3715 24.3932 23.4999 23.2937 24.6601C23.0425 24.9254 22.9014 25.2991 22.6195 25.7747ZM26.7014 29.026C26.828 29.1983 27.0212 29.7021 27.3693 29.868C27.7274 30.0384 28.393 30.062 28.6531 29.8323C29.727 28.8828 30.7407 27.8506 31.677 26.7599C31.9064 26.4927 31.9159 25.8067 31.7407 25.4654C31.5669 25.1268 31.0519 24.835 30.6521 24.7796C29.8232 24.6646 26.7135 27.8638 26.7014 29.026ZM23.1543 21.6992C24.056 20.7278 25.0197 19.8541 25.7558 18.8136C26.0418 18.4091 26.0274 17.4772 25.7495 17.0669C25.5385 16.7554 24.4857 16.6203 24.1692 16.8742C23.1617 17.6819 22.3235 18.708 21.4411 19.6279C21.9965 20.2995 22.4915 20.8977 23.1543 21.6992ZM19.8015 17.9342C20.5084 17.2188 21.1926 16.5903 21.7994 15.8919C22.3026 15.3129 22.2772 14.6431 21.7302 14.0934C21.1843 13.5446 20.5554 13.5423 19.9628 14.0437C19.257 14.641 18.5698 15.261 17.9035 15.8458C18.6665 16.6856 19.2089 17.2822 19.8015 17.9342Z" fill="black"/>
<path d="M29.7786 6.55291C25.5334 8.64367 21.9589 7.83221 18.8524 4.14291C17.0462 8.34668 13.9563 9.67474 9.83933 8.42785C9.83933 9.99161 9.85908 11.4664 9.82585 12.9397C9.81725 13.321 9.7545 13.8196 9.5163 14.0487C9.17211 14.3795 8.57369 14.765 8.21742 14.6594C7.87324 14.5575 7.4124 13.7924 7.49606 13.44C8.01291 11.2624 7.5451 9.22606 6.92947 7.17055C6.81281 6.78127 6.8486 6.10896 7.09006 5.90332C7.39985 5.63969 8.0164 5.581 8.45168 5.67353C9.43077 5.88154 10.3627 6.32951 11.3439 6.51504C13.8124 6.98124 15.4338 6.08056 16.4801 3.72949C16.782 3.05102 16.9698 2.32074 17.2287 1.62145C17.6623 0.450051 18.5075 0.288422 19.3233 1.23169C19.8859 1.88199 20.3879 2.58767 20.9617 3.22685C23.1639 5.68016 25.8648 6.1118 28.7149 4.4851C29.1195 4.25413 29.4969 3.97347 29.9048 3.74937C30.794 3.26069 31.5144 3.58466 31.7215 4.60034C31.9018 5.48611 31.9548 6.40027 32.1581 7.27941C32.9622 10.7564 35.1619 12.487 39.2644 12.926C41.1127 13.1238 41.4117 13.7396 40.4357 15.3372C38.3288 18.7861 38.6325 21.2926 41.5131 24.0727C42.0181 24.56 42.6258 24.9471 43.0799 25.4751C43.4048 25.8528 43.7564 26.4094 43.7134 26.8474C43.6802 27.1879 43.0964 27.5484 42.6874 27.7602C41.7617 28.2396 40.7578 28.5676 39.8505 29.0771C38.6304 29.7622 37.9725 30.8974 38.127 32.3132C38.2795 33.7106 38.6711 35.0794 38.8886 36.472C38.9655 36.9645 39.0211 37.6827 38.7526 37.9478C38.4707 38.226 37.7547 38.2237 37.2885 38.103C35.3315 37.5966 33.4096 37.0634 31.3466 37.5914C30.9947 37.6813 30.1755 37.1474 30.1121 36.7995C30.0403 36.4062 30.5299 35.5467 30.8586 35.5006C32.2581 35.3032 33.6878 35.3196 35.1073 35.2862C35.4414 35.2784 35.778 35.3799 36.2846 35.4571C35.1586 31.1499 36.1033 27.8451 40.501 26.1233C37.0206 22.9778 35.7847 19.395 38.038 14.9586C33.1572 14.2403 30.4391 11.433 29.7786 6.55291Z" fill="#FF0000"/>
<path d="M22.6201 25.7747C22.902 25.2991 23.0431 24.9254 23.2945 24.6601C24.3938 23.4998 25.5258 22.3715 26.6446 21.2302C27.2541 20.6083 27.9511 20.4712 28.5902 21.0851C29.233 21.7025 29.1456 22.4394 28.5451 23.0654C27.3845 24.2751 26.2374 25.5045 24.9959 26.6233C24.6736 26.9139 23.9701 26.997 23.5381 26.86C23.1686 26.7428 22.9371 26.1744 22.6201 25.7747Z" fill="white"/>
<path d="M26.7012 29.026C26.7133 27.8638 29.823 24.6646 30.6519 24.7794C31.0517 24.8348 31.5664 25.1265 31.7405 25.4652C31.9157 25.8064 31.9062 26.4925 31.6768 26.7596C30.7405 27.8501 29.727 28.8823 28.6529 29.832C28.3928 30.062 27.7272 30.0384 27.3691 29.8677C27.0207 29.7021 26.8278 29.1983 26.7012 29.026Z" fill="white"/>
<path d="M23.1546 21.6993C22.4918 20.8978 21.9968 20.2996 21.4414 19.628C22.3238 18.7084 23.1623 17.682 24.1695 16.8744C24.4863 16.6204 25.5388 16.7556 25.7498 17.067C26.0278 17.4773 26.042 18.4092 25.7561 18.8137C25.0201 19.8542 24.0563 20.7279 23.1546 21.6993Z" fill="white"/>
<path d="M19.8013 17.9342C19.2087 17.2822 18.6665 16.6856 17.9033 15.846C18.5698 15.261 19.257 14.6413 19.9626 14.044C20.5552 13.5423 21.1841 13.5446 21.73 14.0937C22.2768 14.6434 22.3021 15.3133 21.7992 15.8922C21.1924 16.5903 20.508 17.2188 19.8013 17.9342Z" fill="white"/>
</svg>
