<svg width="51" height="46" viewBox="0 0 51 46" fill="none" xmlns="http://www.w3.org/2000/svg">
<g clip-path="url(#clip0_723_463)">
<path d="M0.881836 20.1111C1.00689 19.6021 1.10774 19.0854 1.2609 18.5852C2.31246 15.1493 5.40704 12.7965 8.93637 12.7601C10.8391 12.7405 12.7422 12.7545 14.6452 12.7535C14.8196 12.7533 14.994 12.7535 15.2204 12.7535C15.2204 11.5646 15.2372 10.4264 15.216 9.28881C15.1925 8.03424 15.3008 6.80233 15.8 5.64316C17.2044 2.38178 19.6476 0.493956 23.154 0.442809C29.7235 0.346742 36.2955 0.413525 42.8663 0.416043C44.0907 0.41644 45.2449 0.727963 46.3377 1.28051C46.8467 1.53784 47.0291 1.94066 46.8378 2.35117C46.6451 2.76446 46.2183 2.87682 45.7069 2.62029C44.6951 2.11266 43.6295 1.89442 42.503 1.89588C36.176 1.90436 29.849 1.89442 23.522 1.90197C19.5845 1.90661 16.6912 4.8627 16.6854 8.87168C16.6808 12.035 16.6807 15.1983 16.6854 18.3618C16.6913 22.36 19.5884 25.3296 23.5212 25.3502C26.5952 25.3662 29.6694 25.3617 32.7433 25.345C33.2253 25.3424 33.5618 25.4937 33.8777 25.8691C35.2852 27.5413 36.718 29.1914 38.1436 30.8479C38.7064 31.5018 39.289 31.6893 39.9561 31.4404C40.6368 31.1866 40.973 30.6369 40.9762 29.7509C40.9804 28.6081 40.9749 27.4653 40.9783 26.3225C40.9805 25.5773 41.2012 25.3433 41.9441 25.3572C43.2613 25.3817 44.5463 25.2474 45.7257 24.5946C48.0671 23.299 49.3303 21.2861 49.3739 18.5753C49.4266 15.2968 49.3904 12.0169 49.3848 8.73758C49.3822 7.19878 48.9209 5.81078 48.0131 4.57847C47.9643 4.51222 47.9094 4.45034 47.8649 4.38143C47.6156 3.99557 47.6641 3.5632 47.982 3.31515C48.308 3.06087 48.7201 3.10871 49.018 3.47496C49.8413 4.48691 50.3997 5.64038 50.6474 6.92847C50.7685 7.55788 50.8381 8.20742 50.842 8.84849C50.8614 11.9951 50.8523 15.142 50.8504 18.2888C50.8476 23.0463 47.5442 26.5822 42.868 26.837C42.7419 26.8439 42.6161 26.8578 42.4407 26.8728C42.4407 27.9007 42.4513 28.9071 42.4382 29.9133C42.4176 31.4905 41.4599 32.6838 39.9616 32.9757C38.9476 33.1732 38.0636 32.8689 37.3275 32.1374C37.0647 31.8761 36.827 31.5886 36.5938 31.3307C36.4026 32.1292 36.2782 32.9308 36.0187 33.6841C34.8867 36.9701 31.8226 39.1697 28.4091 39.187C26.8314 39.1951 25.2538 39.1931 23.6761 39.1853C23.185 39.1829 22.8624 38.8794 22.8542 38.4549C22.846 38.0289 23.1672 37.7234 23.6512 37.6999C23.7648 37.6944 23.879 37.6981 23.9927 37.6981C25.3914 37.6979 26.7902 37.6989 28.1891 37.6978C31.7324 37.6951 34.4854 35.2964 34.9921 31.7269C35.0868 31.0603 35.045 30.3718 35.0374 29.6936C35.0359 29.5504 34.9333 29.3869 34.8349 29.2696C34.2326 28.5522 33.6324 27.8318 32.9972 27.1454C32.8448 26.9808 32.5624 26.8584 32.339 26.857C29.3952 26.8381 26.4511 26.8574 23.5073 26.841C19.8732 26.8207 16.7911 24.6336 15.6778 21.2291C15.41 20.4102 15.2892 19.5194 15.2407 18.6534C15.1685 17.3657 15.2208 16.0709 15.2202 14.779C15.2201 14.6173 15.2202 14.4556 15.2202 14.2692C15.0457 14.2591 14.9198 14.2455 14.7939 14.2455C12.8584 14.245 10.9228 14.231 8.98751 14.2504C5.3071 14.2872 2.3666 17.2885 2.34942 21.0322C2.33419 24.328 2.33354 27.624 2.34968 30.9197C2.3679 34.6549 5.33599 37.6681 8.99805 37.6978C9.2583 37.6999 9.51856 37.697 9.77881 37.6986C10.5321 37.7031 10.753 37.9306 10.7546 38.7143C10.7572 39.8901 10.7424 41.0662 10.7601 42.242C10.7761 43.3089 11.5491 44.0409 12.5305 43.8454C12.9083 43.7702 13.3072 43.4939 13.5724 43.195C15.0331 41.5486 16.463 39.8736 17.885 38.1922C18.1886 37.8332 18.516 37.6644 18.9816 37.6912C19.5167 37.7219 20.0549 37.6895 20.5914 37.7018C21.0824 37.713 21.3882 38.0142 21.383 38.452C21.3778 38.887 21.0698 39.1674 20.5733 39.1886C20.5571 39.1893 20.5401 39.1918 20.5247 39.1885C19.3378 38.9349 18.5863 39.5118 17.8815 40.4337C16.8742 41.7513 15.7411 42.9697 14.6528 44.2223C13.695 45.3246 12.4652 45.6599 11.2264 45.1757C9.99678 44.6952 9.29734 43.5995 9.29214 42.1368C9.28875 41.178 9.29148 40.2191 9.29148 39.255C8.64072 39.1713 8.01025 39.1309 7.39682 39.0046C4.03913 38.3132 1.49096 35.5644 0.972405 32.1087C0.958481 32.0161 0.912676 31.9285 0.881836 31.8385C0.881836 27.929 0.881836 24.0201 0.881836 20.1111Z" fill="black"/>
<path d="M36.5065 6.96213C36.6892 7.06695 36.8573 7.16328 37.027 7.26067C37.2823 7.11611 37.5182 6.96916 37.7652 6.84513C38.8298 6.3102 40.0904 6.63603 40.7312 7.65316C41.1956 8.39029 41.629 9.15141 42.0241 9.92922C42.5716 11.0065 42.2252 12.2702 41.2418 12.9543C41.1078 13.0476 40.9665 13.13 40.8272 13.2152C40.3689 13.4952 40.3585 13.9047 40.8034 14.1812C42.3834 15.1634 42.6823 16.3492 41.7603 17.9808C41.4686 18.4971 41.1805 19.0155 40.8818 19.5273C40.1295 20.8156 38.8158 21.1691 37.5307 20.4343C37.4599 20.3938 37.3903 20.3511 37.3191 20.3112C36.8824 20.0664 36.5615 20.2833 36.4953 20.7796C36.4205 21.3407 36.3556 21.9405 36.11 22.432C35.7287 23.1946 35.0035 23.5203 34.1629 23.5302C33.4312 23.539 32.699 23.5431 31.9673 23.5306C30.5165 23.5057 29.5769 22.5285 29.5627 21.0461C29.5626 21.0296 29.5627 21.013 29.5626 20.9964C29.5572 20.1974 29.2756 20.04 28.5884 20.3951C28.2332 20.5788 27.8407 20.752 27.4516 20.7909C26.5151 20.8847 25.7696 20.4847 25.2721 19.6669C24.8788 19.0202 24.5118 18.3565 24.1451 17.6936C23.4401 16.4193 23.8026 15.0638 25.0392 14.3197C25.1091 14.2777 25.1805 14.2381 25.2503 14.1959C25.7064 13.9202 25.7107 13.4962 25.2604 13.2236C23.7028 12.2807 23.3851 11.06 24.2842 9.47154C24.5438 9.01294 24.8041 8.5546 25.0642 8.09626C25.9561 6.52552 27.1452 6.19187 28.705 7.07476C29.2076 7.35912 29.5548 7.1605 29.5623 6.5837C29.564 6.45119 29.5614 6.31868 29.5654 6.18631C29.5968 5.14255 30.2442 4.27397 31.2257 3.98034C31.4256 3.92058 31.6406 3.8901 31.8492 3.88719C32.6297 3.87606 33.4108 3.864 34.1908 3.8852C35.5482 3.9223 36.4885 4.91875 36.5058 6.3098C36.5088 6.52367 36.5065 6.73767 36.5065 6.96213ZM33.0353 22.0393C33.4092 22.0393 33.7837 22.0545 34.1566 22.0357C34.7121 22.0077 35.0191 21.6852 35.0394 21.1219C35.0519 20.7747 35.0468 20.4268 35.0419 20.0792C35.0367 19.7123 35.1838 19.4527 35.5093 19.2797C35.854 19.0963 36.1922 18.8977 36.5192 18.6834C36.8268 18.482 37.1204 18.469 37.4325 18.6581C37.7394 18.8441 38.0446 19.0351 38.3622 19.2006C38.8281 19.4432 39.2718 19.3339 39.546 18.8806C39.946 18.2192 40.3283 17.5458 40.691 16.8626C40.9401 16.3934 40.8116 15.9564 40.3693 15.6587C40.1124 15.4857 39.8454 15.3244 39.5694 15.1858C39.1539 14.9769 39.0579 14.6519 39.0075 14.1902C38.8795 13.0181 39.1969 12.2016 40.3454 11.7464C40.85 11.5465 40.9429 11.0134 40.6801 10.5223C40.3226 9.85488 39.9493 9.1954 39.5586 8.54744C39.2689 8.06697 38.833 7.96083 38.3396 8.22267C38.0374 8.383 37.7518 8.575 37.4516 8.73944C36.8612 9.06263 35.1442 8.17576 35.0509 7.5013C35.0351 7.38748 35.0436 7.26995 35.043 7.15414C35.0417 6.85626 35.0527 6.55772 35.0386 6.26051C35.0135 5.72651 34.7055 5.39405 34.178 5.37987C33.4146 5.35933 32.6499 5.3592 31.8865 5.38014C31.3527 5.39471 31.0546 5.71949 31.0309 6.26038C31.0179 6.55772 31.0121 6.85706 31.03 7.15387C31.0605 7.65899 30.8161 7.92254 30.4173 8.22267C29.4829 8.92561 28.6502 8.99227 27.714 8.23499C27.2889 7.89114 26.7924 8.06856 26.5051 8.54704C26.1156 9.19566 25.7424 9.85528 25.3852 10.5228C25.1214 11.0158 25.2473 11.4581 25.7146 11.7632C26.015 11.9594 26.3605 12.0957 26.6284 12.3276C26.8177 12.4914 27.0367 12.7761 27.0269 12.9971C26.94 14.9841 27.4945 14.6474 25.7336 15.6316C25.7194 15.6396 25.7055 15.6483 25.692 15.6576C25.2599 15.9588 25.1269 16.3969 25.3758 16.8651C25.739 17.5482 26.1206 18.222 26.5202 18.8836C26.7933 19.3357 27.235 19.4403 27.7054 19.1987C27.9659 19.0649 28.2255 18.9227 28.4649 18.754C28.8987 18.4486 29.2534 18.573 29.7192 18.7752C30.7906 19.2402 31.2051 19.9601 31.0456 21.1301C30.9706 21.6811 31.3525 22.0088 31.9139 22.0361C32.2869 22.0545 32.6614 22.0398 33.0353 22.0393Z" fill="black"/>
<path d="M22.13 30.2488C21.7249 30.252 21.3949 29.9164 21.3897 29.4959C21.3845 29.0776 21.7094 28.7376 22.1171 28.7344C22.5363 28.7312 22.8447 29.047 22.8475 29.4823C22.8501 29.9128 22.5387 30.2455 22.13 30.2488Z" fill="black"/>
<path d="M19.5274 29.4912C19.5259 29.9196 19.208 30.251 18.8003 30.2493C18.395 30.2476 18.0693 29.9079 18.0693 29.4871C18.0693 29.0668 18.395 28.7335 18.8048 28.7349C19.2227 28.7361 19.5291 29.0567 19.5274 29.4912Z" fill="black"/>
<path d="M16.0061 29.4913C16.004 29.9137 15.6786 30.2503 15.273 30.2494C14.8669 30.2484 14.5465 29.912 14.5469 29.4868C14.5471 29.0585 14.8633 28.7327 15.2774 28.7339C15.6887 28.7351 16.0082 29.067 16.0061 29.4913Z" fill="black"/>
<path d="M33.0358 22.0395C32.662 22.0398 32.2875 22.0545 31.9145 22.0364C31.3531 22.0091 30.9713 21.6814 31.0463 21.1304C31.2057 19.9603 30.7912 19.2405 29.7199 18.7755C29.254 18.5733 28.8993 18.4489 28.4656 18.7543C28.2262 18.923 27.9666 19.0652 27.706 19.199C27.2358 19.4406 26.794 19.336 26.5208 18.8839C26.1212 18.2223 25.7397 17.5485 25.3765 16.8654C25.1276 16.3972 25.2605 15.9591 25.6927 15.6579C25.7061 15.6486 25.72 15.6399 25.7342 15.6319C27.4951 14.6477 26.9405 14.9844 27.0276 12.9974C27.0372 12.7764 26.8183 12.4917 26.6291 12.3279C26.3612 12.096 26.0157 11.9596 25.7152 11.7635C25.2479 11.4584 25.1221 11.0159 25.3859 10.5231C25.7431 9.85557 26.1163 9.19596 26.5057 8.54734C26.7931 8.06886 27.2895 7.89143 27.7146 8.23528C28.6509 8.99243 29.4836 8.92591 30.4179 8.22296C30.8168 7.92297 31.0611 7.65928 31.0307 7.15416C31.0127 6.85735 31.0187 6.55815 31.0316 6.26067C31.0551 5.71991 31.3534 5.39514 31.8872 5.38043C32.6505 5.3595 33.4153 5.35963 34.1786 5.38017C34.706 5.39434 35.0142 5.7268 35.0393 6.2608C35.0532 6.55802 35.0424 6.85655 35.0437 7.15443C35.0442 7.27024 35.0358 7.38777 35.0515 7.5016C35.1448 8.17605 36.8618 9.06292 37.4522 8.73974C37.7524 8.57543 38.0382 8.38329 38.3402 8.22296C38.8337 7.96113 39.2696 8.06727 39.5593 8.54773C39.9499 9.19556 40.3232 9.85504 40.6807 10.5226C40.9437 11.0135 40.8508 11.5466 40.346 11.7467C39.1975 12.2019 38.8801 13.0184 39.0082 14.1905C39.0587 14.6523 39.1547 14.9773 39.5701 15.186C39.8461 15.3248 40.1131 15.486 40.37 15.659C40.8123 15.9567 40.9407 16.3937 40.6916 16.8629C40.329 17.5461 39.9465 18.2195 39.5466 18.8809C39.2725 19.3342 38.8287 19.4435 38.3629 19.2009C38.0452 19.0354 37.7401 18.8444 37.4331 18.6584C37.1211 18.4693 36.8275 18.4823 36.5199 18.6837C36.1929 18.8978 35.8547 19.0966 35.5099 19.28C35.1845 19.4532 35.0373 19.7127 35.0425 20.0795C35.0475 20.4269 35.0525 20.775 35.0401 21.1222C35.0198 21.6855 34.7127 22.008 34.1573 22.036C33.7842 22.0545 33.4097 22.0393 33.0358 22.0395ZM37.5173 13.7161C37.5255 11.1843 35.5174 9.13567 33.0306 9.13871C30.5497 9.14176 28.5227 11.2082 28.5373 13.7195C28.5517 16.2214 30.544 18.2537 33.0097 18.2817C35.4695 18.3096 37.5091 16.2438 37.5173 13.7161Z" fill="#20C1A4"/>
<path d="M37.5173 13.7161C37.5091 16.2438 35.4695 18.3096 33.0096 18.2816C30.5439 18.2537 28.5516 16.2214 28.5372 13.7194C28.5227 11.2082 30.5497 9.14172 33.0305 9.13868C35.5174 9.13563 37.5255 11.1843 37.5173 13.7161ZM36.0536 13.7095C36.0568 12.0109 34.7313 10.6467 33.0611 10.6296C31.3831 10.6124 30.0041 11.9962 30.0005 13.7009C29.9968 15.3955 31.3922 16.8085 33.0525 16.7917C34.7132 16.7748 36.0506 15.4013 36.0536 13.7095Z" fill="black"/>
</g>
<defs>
<clipPath id="clip0_723_463">
<rect width="49.9725" height="45" fill="white" transform="translate(0.881836 0.391113)"/>
</clipPath>
</defs>
</svg>
