<svg width="25" height="26" viewBox="0 0 25 26" fill="none" xmlns="http://www.w3.org/2000/svg">
<g clip-path="url(#clip0_723_447)">
<path d="M22.5674 2.97378C23.6883 4.09864 24.3177 5.6219 24.3177 7.20989C24.3177 8.79788 23.6883 10.3211 22.5674 11.446L20.4424 13.5571C18.8869 15.1127 16.6924 15.5988 14.6924 15.071L18.3313 11.446L19.3869 10.3766L20.4424 9.321C21.6091 8.15433 21.6091 6.26545 20.4424 5.09878C20.1671 4.81826 19.8385 4.59543 19.4761 4.44332C19.1136 4.29121 18.7244 4.21287 18.3313 4.21287C17.9382 4.21287 17.5491 4.29121 17.1866 4.44332C16.8241 4.59543 16.4956 4.81826 16.2202 5.09878L15.1508 6.15433L10.4563 10.8488C9.94243 8.84878 10.4285 6.65433 11.9841 5.09878L14.0952 2.97378C15.2201 1.85289 16.7433 1.22351 18.3313 1.22351C19.9193 1.22351 21.4426 1.85289 22.5674 2.97378ZM9.8591 17.7932L17.2758 10.3766C17.8591 9.79322 17.8591 8.84878 17.2758 8.26545C16.6647 7.66822 15.7063 7.72378 15.1508 8.26545L7.74799 15.6821C7.16466 16.2654 7.16466 17.2099 7.74799 17.7932C8.3591 18.3904 9.31743 18.3349 9.8591 17.7932ZM8.80354 20.9738L14.5535 15.2099C15.0813 17.2099 14.5952 19.4043 13.0397 20.9599L10.9285 23.0849C9.80368 24.2058 8.28042 24.8352 6.69243 24.8352C5.10444 24.8352 3.58118 24.2058 2.45632 23.0849C1.33543 21.96 0.706055 20.4368 0.706055 18.8488C0.706055 17.2608 1.33543 15.7375 2.45632 14.6127L4.58132 12.5016C6.13688 10.946 8.33132 10.4599 10.3313 10.9738L4.58132 16.7377C3.40077 17.9043 3.40077 19.7932 4.58132 20.9738C5.74799 22.1404 7.63688 22.1404 8.80354 20.9738Z" fill="#F24E1E"/>
</g>
<defs>
<clipPath id="clip0_723_447">
<rect width="25" height="25" fill="white" transform="translate(0.000976562 0.532715)"/>
</clipPath>
</defs>
</svg>
